<?xml version="1.0" standalone="no"?>
<!DOCTYPE svg PUBLIC "-//W3C//DTD SVG 20010904//EN"
 "http://www.w3.org/TR/2001/REC-SVG-20010904/DTD/svg10.dtd">
<svg version="1.0" xmlns="http://www.w3.org/2000/svg"
 width="1280.000000pt" height="903.000000pt" viewBox="0 0 1280.000000 903.000000"
 preserveAspectRatio="xMidYMid meet">
<metadata>
Created by potrace 1.15, written by Peter Selinger 2001-2017
</metadata>
<g transform="translate(0.000000,903.000000) scale(0.100000,-0.100000)"
fill="#000000" stroke="none">
<path d="M5250 8985 c0 -32 77 -59 87 -30 6 19 -12 33 -49 39 -30 5 -38 3 -38
-9z"/>
<path d="M5102 8910 c-6 -11 -22 -22 -35 -25 -13 -4 -29 -15 -36 -27 -7 -11
-8 -17 -2 -14 5 4 13 1 17 -5 5 -9 -13 -10 -69 -6 -59 5 -76 3 -81 -8 -2 -7 0
-16 7 -19 9 -3 9 -5 0 -5 -7 -1 -13 -6 -13 -12 0 -6 -7 -17 -15 -25 -8 -9 -15
-11 -15 -5 0 6 -7 11 -16 11 -8 0 -12 -5 -8 -11 4 -8 0 -9 -15 -4 -12 4 -21 2
-21 -4 0 -6 -7 -11 -16 -11 -12 0 -15 -6 -11 -22 7 -23 -8 -58 -24 -58 -13 0
-58 52 -59 68 0 6 -4 12 -9 12 -5 0 -7 18 -4 40 4 25 2 40 -5 40 -6 0 -12 -5
-14 -12 -3 -8 -6 -6 -10 4 -4 9 2 25 13 37 20 21 20 22 0 46 -18 24 -20 25
-37 8 -10 -10 -20 -18 -23 -17 -24 4 -49 -16 -38 -29 6 -9 -36 -38 -48 -33
-19 7 -19 -3 1 -25 9 -10 22 -15 30 -12 15 6 18 -5 6 -24 -10 -16 -77 6 -97
33 -8 10 -15 15 -15 9 0 -6 -3 -5 -8 1 -10 15 -89 27 -97 14 -3 -5 -12 -7 -20
-3 -9 3 -15 -1 -15 -8 0 -11 -3 -11 -10 1 -9 13 -12 13 -23 0 -13 -16 -41 -20
-53 -7 -4 4 -22 7 -40 7 -32 0 -33 -1 -36 -47 l-3 -48 -45 0 c-35 0 -45 -4
-48 -17 -4 -22 -28 -24 -35 -4 -7 17 45 38 70 29 11 -4 14 -3 9 6 -5 7 -20 17
-34 22 -19 7 -23 12 -14 18 11 6 11 13 1 35 -11 24 -17 27 -45 21 -18 -3 -46
-13 -63 -21 -23 -11 -39 -13 -59 -7 -32 11 -135 8 -154 -3 -7 -5 -20 -7 -29
-6 -10 2 -19 -6 -22 -20 -4 -12 -9 -19 -13 -15 -4 4 -15 0 -25 -9 -13 -12 -16
-25 -12 -45 4 -20 1 -29 -7 -29 -8 0 -10 8 -7 21 4 15 -1 23 -20 32 -16 7 -27
7 -31 1 -19 -27 -132 -48 -152 -28 -14 14 -110 -31 -110 -51 0 -8 5 -15 11
-15 6 0 8 7 5 16 -6 15 -4 15 19 0 14 -9 25 -13 26 -9 0 5 4 -1 9 -13 5 -12
22 -25 42 -29 l33 -9 -32 -3 c-18 -3 -33 -8 -33 -12 0 -15 25 -31 47 -31 13 0
26 -7 29 -15 3 -8 14 -17 25 -20 10 -4 19 -11 19 -17 0 -5 -7 -7 -16 -4 -17 7
-94 -32 -94 -47 0 -5 -7 -7 -15 -3 -8 3 -15 1 -15 -4 0 -6 5 -10 11 -10 5 0 7
-5 4 -10 -4 -6 -23 -8 -43 -5 -20 4 -61 8 -91 10 -29 3 -55 6 -58 8 -9 10 11
37 28 37 10 0 23 8 28 19 12 22 7 77 -9 95 -5 8 -8 20 -4 29 3 10 -2 20 -15
27 -23 12 -45 5 -35 -11 3 -5 0 -16 -6 -24 -10 -12 -9 -15 6 -15 14 0 16 -2 5
-12 -10 -11 -15 -10 -25 4 -8 12 -30 17 -73 20 -34 1 -59 6 -57 10 2 3 -13 12
-33 19 -21 6 -42 18 -46 26 -5 9 -16 11 -29 7 -17 -5 -19 -3 -14 14 6 19 3 20
-44 18 -28 -1 -54 2 -56 6 -3 5 -14 6 -24 3 -10 -3 -21 -2 -24 3 -9 15 -58 0
-63 -19 -3 -10 -9 -16 -15 -13 -5 3 -15 1 -22 -5 -9 -8 -22 -8 -39 -2 -16 6
-28 6 -35 -1 -12 -12 -84 11 -76 24 9 15 -43 8 -56 -7 -11 -14 -14 -14 -24 0
-9 13 -17 14 -39 6 -38 -15 -46 -13 -23 4 11 8 30 15 42 15 13 0 25 4 28 8 3
5 -15 9 -40 10 -33 0 -51 -6 -69 -23 -14 -12 -25 -27 -25 -34 0 -6 -15 -19
-34 -28 -32 -15 -36 -15 -51 1 -9 9 -23 16 -31 16 -19 0 -18 16 1 24 26 9 18
43 -12 51 -15 3 -33 15 -40 25 -8 11 -20 17 -28 15 -49 -16 -48 -13 -20 -46
14 -17 24 -33 23 -35 -2 -2 -23 3 -47 10 -50 14 -65 33 -44 54 8 8 11 18 6 22
-11 11 -56 16 -69 7 -7 -4 -14 0 -18 8 -6 17 -52 21 -58 5 -2 -6 -14 -4 -30 4
-30 16 -68 11 -68 -9 0 -7 12 -23 28 -34 23 -17 24 -20 8 -21 -10 0 -25 8 -32
18 -12 15 -15 15 -24 2 -6 -8 -8 -25 -5 -37 4 -17 -2 -25 -26 -37 -25 -12 -31
-13 -35 -2 -7 17 -44 9 -61 -12 -7 -9 -13 -11 -13 -5 0 18 29 43 49 43 24 0
37 17 46 58 6 29 4 32 -18 32 -22 0 -37 -12 -90 -69 -12 -12 -17 -30 -15 -48
2 -23 0 -28 -17 -25 -15 2 -17 1 -6 -6 7 -6 10 -15 7 -21 -10 -16 -26 -14 -26
4 0 8 -4 15 -10 15 -5 0 -10 -9 -10 -20 0 -12 -12 -26 -30 -35 -17 -9 -28 -20
-25 -25 8 -12 -56 -52 -72 -45 -9 3 -13 -6 -13 -25 0 -22 -4 -28 -15 -24 -9 4
-15 0 -16 -7 -1 -8 -2 -21 -3 -29 0 -8 -11 -16 -24 -18 -26 -4 -27 1 -6 33 14
22 14 31 4 68 -12 40 -16 43 -47 44 l-35 1 20 -21 c32 -37 34 -46 11 -76 -20
-27 -22 -28 -39 -12 -11 11 -14 21 -8 33 5 10 4 19 -2 23 -12 8 -53 -33 -45
-45 3 -6 -6 -15 -20 -22 -14 -6 -24 -17 -21 -24 3 -7 -2 -15 -10 -18 -8 -3
-14 -12 -14 -21 0 -8 -4 -15 -9 -15 -5 0 -8 7 -7 16 0 9 -6 19 -14 23 -8 4
-30 15 -48 24 -19 9 -40 17 -48 17 -7 0 -16 11 -20 25 -8 31 -12 31 -49 1 -25
-21 -28 -28 -19 -43 6 -10 24 -20 40 -23 l29 -6 -25 -7 c-39 -11 -53 -8 -46 8
4 10 -1 15 -14 15 -11 0 -20 4 -20 10 0 14 -59 42 -75 36 -8 -3 -19 2 -26 11
-12 13 -15 13 -30 -6 -17 -21 -17 -21 -28 12 -7 19 -9 41 -6 49 8 21 -42 53
-59 39 -7 -6 -16 -7 -20 -3 -4 4 -6 0 -4 -8 2 -9 -6 -16 -19 -18 -22 -3 -27
-16 -24 -52 1 -11 -1 -11 -9 3 -9 14 -15 15 -32 6 -16 -9 -19 -18 -15 -44 4
-25 1 -35 -10 -39 -14 -6 -13 -10 6 -30 19 -20 20 -24 6 -30 -14 -5 -14 -8 0
-35 19 -38 19 -41 -5 -41 -22 0 -50 -42 -31 -48 17 -6 13 -30 -7 -50 -26 -26
-34 -52 -21 -68 15 -18 3 -51 -21 -57 -14 -4 -19 -13 -18 -31 1 -14 6 -26 10
-26 18 0 6 -28 -17 -40 -14 -7 -25 -19 -25 -27 0 -7 -4 -13 -9 -13 -5 0 -8
-11 -7 -25 1 -24 12 -30 46 -25 12 1 13 -1 3 -11 -15 -15 -17 -43 -3 -34 6 3
7 -1 4 -9 -7 -17 -16 -20 -28 -9 -3 4 -13 8 -21 9 -15 2 -18 -6 -16 -36 0 -10
-1 -11 -5 -2 -6 14 -24 17 -24 3 0 -4 12 -21 28 -36 21 -22 23 -27 8 -21 -19
6 -19 6 -3 -12 9 -10 17 -26 17 -35 0 -9 7 -17 16 -17 13 0 14 -3 5 -13 -6 -8
-8 -17 -4 -21 4 -4 1 -11 -6 -15 -10 -7 -11 -13 -1 -31 8 -15 8 -20 1 -16 -6
4 -11 0 -11 -8 0 -9 5 -16 10 -16 6 0 10 -6 10 -14 0 -9 -7 -12 -19 -9 -13 3
-21 -2 -26 -17 -9 -28 3 -40 19 -17 20 27 29 20 10 -8 -15 -23 -13 -30 9 -26
12 2 8 -27 -4 -31 -12 -4 3 -38 29 -66 7 -8 11 -20 8 -28 -3 -7 0 -14 7 -17 7
-2 12 -30 13 -73 1 -90 2 -96 14 -89 5 3 7 12 4 19 -3 8 4 16 15 19 15 4 21
13 21 35 0 17 -5 34 -11 38 -8 4 -3 12 14 20 14 8 28 22 31 31 4 14 19 19 58
21 62 3 77 -12 42 -45 -15 -14 -24 -33 -24 -53 0 -17 -9 -39 -20 -50 -11 -11
-20 -24 -20 -30 0 -5 -5 -10 -10 -10 -6 0 -10 -6 -9 -12 3 -29 -2 -38 -26 -38
-28 0 -95 -30 -95 -42 0 -4 -4 -8 -9 -8 -5 0 -7 9 -4 20 3 11 1 20 -3 21 -51
4 -73 2 -70 -6 1 -5 10 -9 18 -7 11 2 14 -4 10 -23 -2 -14 -8 -25 -13 -25 -5
0 -9 -5 -9 -12 0 -6 9 -3 20 7 23 21 32 16 32 -19 0 -32 18 -47 54 -45 63 4
67 -4 29 -45 -19 -20 -30 -25 -50 -20 -41 10 -95 -4 -95 -25 0 -10 -3 -21 -7
-24 -3 -4 -8 -18 -9 -32 -2 -17 2 -25 13 -25 13 0 13 -3 2 -16 -10 -13 -10
-17 2 -25 8 -5 20 -9 27 -9 6 0 12 -4 12 -8 0 -18 36 -48 58 -49 24 -2 27 8
12 38 -9 16 -7 19 9 19 14 0 18 -5 14 -19 -6 -23 21 -35 48 -21 26 14 26 60
-1 67 -11 3 -17 10 -14 15 4 6 2 13 -5 17 -6 4 -14 21 -17 39 -6 31 -6 32 29
32 25 0 35 -4 32 -13 -3 -6 6 -21 20 -31 14 -10 25 -28 25 -39 0 -17 2 -18 16
-6 13 10 17 10 24 -1 4 -7 6 -19 3 -25 -5 -16 42 -65 62 -65 14 0 20 -25 16
-58 -1 -8 3 -20 10 -28 9 -12 5 -14 -25 -14 -22 0 -36 -5 -36 -12 0 -8 -13
-13 -32 -12 -18 0 -39 -2 -45 -4 -37 -12 -57 -140 -32 -195 13 -29 56 -52 73
-39 24 19 54 20 59 2 4 -15 0 -17 -22 -14 -25 5 -25 5 -6 -11 19 -15 18 -16
-17 -13 -44 5 -56 -12 -27 -38 25 -23 24 -31 -6 -36 -21 -4 -25 -1 -25 18 0
21 -19 36 -21 17 0 -5 -3 -19 -6 -33 -2 -14 -4 -43 -4 -66 1 -34 -3 -43 -24
-52 -14 -6 -24 -16 -23 -20 2 -5 -8 -19 -22 -31 l-25 -21 29 -24 c16 -13 25
-29 22 -35 -4 -6 0 -11 11 -12 14 0 14 -2 -4 -9 -13 -5 -23 -16 -23 -25 0 -20
26 -30 43 -17 6 5 22 13 35 16 28 9 30 -14 2 -32 -26 -16 -26 -36 -1 -29 39
10 30 -21 -11 -42 -42 -20 -68 -19 -68 5 0 22 -37 36 -61 23 -15 -8 -19 -8
-15 0 5 7 -2 11 -16 11 -21 1 -22 2 -5 14 22 17 22 33 -3 46 -11 6 -20 17 -20
25 0 8 -8 15 -18 15 -26 0 -34 -11 -20 -28 7 -8 13 -29 14 -46 1 -17 2 -38 3
-48 1 -11 7 -15 24 -11 16 3 18 2 9 -5 -11 -7 -11 -10 2 -15 8 -3 17 -1 20 6
2 7 5 4 5 -5 1 -17 17 -23 49 -19 17 3 15 -18 -4 -26 -11 -4 -13 -13 -9 -35 5
-20 3 -28 -5 -26 -21 5 -21 -17 0 -42 11 -12 24 -37 29 -55 10 -36 47 -79 61
-70 5 3 12 -1 17 -8 4 -8 18 -19 31 -26 12 -6 22 -18 22 -26 0 -8 4 -15 9 -15
8 0 21 -42 26 -82 1 -10 7 -24 14 -31 6 -8 8 -17 4 -20 -11 -12 19 -37 46 -37
68 -1 64 -38 -5 -46 -50 -6 -74 7 -54 30 11 14 8 25 -17 74 -16 31 -28 62 -26
69 2 6 -1 14 -6 18 -6 3 -11 17 -11 30 0 19 -7 26 -27 31 -16 3 -41 10 -56 15
-21 6 -33 5 -43 -5 -18 -18 -18 -30 -1 -23 7 3 21 -1 31 -9 18 -13 18 -15 2
-57 -26 -69 -28 -108 -7 -114 12 -3 17 -11 14 -22 -8 -30 27 -35 55 -9 l24 23
-6 -50 c-3 -27 -6 -71 -6 -96 1 -30 -5 -52 -15 -63 -18 -18 -51 -21 -60 -6 -3
6 -15 10 -25 10 -10 0 -27 11 -38 25 -23 28 -37 33 -28 9 4 -10 -1 -22 -11
-31 -13 -10 -15 -16 -5 -19 6 -3 12 -16 12 -29 0 -18 9 -26 43 -37 32 -10 43
-19 45 -36 3 -18 9 -23 22 -19 13 3 17 0 13 -9 -3 -8 -9 -14 -13 -14 -11 0
-21 -46 -14 -64 3 -9 15 -16 25 -16 10 0 19 -4 19 -10 0 -5 -9 -10 -20 -10
-26 0 -26 -22 0 -38 22 -13 19 -35 -4 -26 -7 3 -16 -2 -19 -10 -4 -9 -2 -16 3
-16 6 0 9 -3 9 -7 -4 -25 2 -35 19 -28 13 5 14 3 5 -6 -19 -19 -5 -36 27 -31
23 3 30 11 36 34 3 17 2 33 -2 37 -5 3 -10 19 -11 34 -3 40 21 29 25 -11 3
-26 8 -32 27 -32 30 0 41 -26 14 -33 -11 -3 -23 -15 -26 -27 -5 -18 -11 -21
-37 -16 -27 5 -33 2 -43 -22 -8 -17 -10 -38 -4 -57 9 -36 -5 -75 -28 -75 -13
0 -13 -2 -3 -9 11 -7 11 -14 -3 -42 -12 -23 -14 -34 -6 -37 6 -2 11 -8 11 -13
0 -6 -4 -7 -10 -4 -5 3 -10 2 -10 -4 0 -6 -6 -8 -14 -5 -11 4 -13 0 -9 -15 3
-11 10 -18 15 -15 6 4 5 -3 -2 -15 -9 -17 -9 -56 -1 -90 1 -2 8 3 18 10 15 13
15 12 4 -9 -14 -26 -6 -62 13 -62 18 0 46 33 47 56 0 17 2 17 11 -3 15 -32 62
-31 92 2 23 24 43 34 31 15 -3 -5 6 -17 20 -26 24 -16 34 -44 15 -44 -14 0
-31 -37 -24 -54 9 -23 24 -9 24 21 0 22 2 24 16 12 10 -8 12 -15 5 -17 -15 -5
-14 -62 2 -64 6 0 17 -2 22 -3 6 -2 16 -3 24 -4 12 -1 11 -4 -2 -14 -16 -11
-16 -13 3 -25 17 -10 20 -10 20 3 0 18 16 20 26 3 5 -7 3 -8 -7 -3 -14 8 -1
-8 52 -67 14 -16 35 -30 47 -31 46 -3 7 -17 -48 -17 -52 0 -59 -2 -54 -17 5
-15 4 -16 -5 -3 -17 23 -13 40 9 40 23 0 26 13 6 29 -10 9 -16 8 -26 -4 -7 -8
-17 -12 -23 -8 -6 4 -7 1 -2 -8 13 -21 17 -77 5 -84 -5 -3 -10 -16 -11 -28 -1
-20 -2 -20 -9 3 -5 17 -8 19 -9 7 -1 -9 -7 -16 -13 -15 -7 2 -13 -6 -13 -17
-1 -11 -6 -29 -12 -39 -8 -14 -7 -23 5 -37 20 -24 25 -52 7 -45 -7 2 -21 -4
-30 -14 -17 -19 -16 -21 14 -52 17 -17 31 -37 31 -42 0 -6 -5 -3 -11 7 -12 21
-42 22 -59 2 -7 -8 -10 -31 -8 -50 2 -19 0 -35 -5 -35 -15 0 3 -54 24 -72 11
-10 18 -22 14 -28 -3 -5 -2 -10 4 -10 7 0 6 -10 0 -30 -12 -34 -40 -43 -32
-10 6 24 -13 50 -37 50 -10 0 -28 11 -38 25 -26 32 -33 21 -35 -55 -1 -42 -6
-60 -15 -60 -8 0 -12 -8 -10 -17 2 -12 13 -18 32 -18 16 0 31 -6 34 -14 2 -8
1 -11 -4 -8 -14 8 -51 -22 -38 -31 6 -4 13 -19 16 -34 5 -29 -5 -43 -45 -63
-12 -6 -23 -19 -25 -29 -3 -13 0 -16 10 -11 7 4 3 -2 -9 -14 -12 -11 -27 -21
-33 -21 -15 0 -12 -21 6 -41 17 -19 11 -39 -12 -39 -10 0 -14 -14 -14 -55 0
-30 -8 -77 -19 -104 -16 -44 -17 -51 -4 -64 9 -8 12 -21 8 -27 -6 -9 -10 -8
-17 4 -13 23 -28 20 -28 -5 0 -18 -2 -19 -15 -9 -8 7 -15 19 -15 26 0 8 -3 14
-7 14 -20 -1 -30 -18 -28 -50 1 -19 -3 -39 -9 -43 -7 -5 -3 -13 12 -24 l24
-16 -34 -12 c-21 -7 -32 -16 -29 -25 8 -32 9 -80 2 -80 -5 0 -6 -11 -3 -25 2
-14 7 -25 10 -25 14 0 40 33 36 45 -3 8 4 16 18 20 48 14 78 28 73 35 -3 4 11
10 30 12 19 2 35 2 35 0 0 -2 -9 -15 -20 -29 -11 -14 -20 -36 -20 -49 0 -12
-6 -25 -12 -27 -10 -4 -10 -6 0 -6 6 -1 12 -5 12 -9 0 -4 -30 -6 -66 -4 -60 4
-66 3 -71 -17 -3 -11 -10 -21 -16 -21 -7 0 -7 -4 1 -12 9 -9 8 -14 -4 -22 -20
-15 -8 -46 17 -46 22 0 24 -11 7 -28 -9 -9 -7 -16 7 -32 16 -18 16 -20 2 -20
-20 0 -23 -16 -4 -23 9 -4 9 -8 -3 -16 -8 -5 -18 -7 -22 -5 -4 3 -8 -4 -8 -16
0 -12 4 -19 9 -15 5 3 12 -4 16 -15 3 -11 12 -20 19 -20 8 0 19 -13 26 -29 11
-27 10 -32 -14 -56 -14 -14 -26 -27 -26 -29 0 -1 27 0 61 2 52 4 63 1 84 -18
24 -23 25 -43 4 -82 -7 -13 -12 -26 -11 -30 1 -5 -2 -8 -6 -8 -4 0 -7 -12 -6
-27 2 -45 3 -48 19 -27 8 10 15 14 15 7 0 -6 -6 -18 -13 -25 -16 -17 -16 -36
1 -47 8 -5 12 -17 9 -27 -4 -17 -6 -17 -12 4 -8 23 -25 27 -60 13 -13 -6 -29
-3 -46 7 -30 17 -76 9 -49 -8 12 -8 12 -10 1 -10 -11 0 -11 -3 -1 -15 10 -12
10 -15 -1 -15 -11 0 -11 -2 -2 -8 9 -6 10 -17 4 -40 -8 -25 -7 -32 5 -32 8 0
14 -6 14 -14 0 -7 7 -19 15 -26 8 -7 14 -18 13 -25 -2 -7 7 -21 19 -31 13 -11
24 -29 26 -42 2 -13 11 -31 19 -41 10 -12 13 -22 6 -29 -6 -6 -3 -15 7 -26 10
-10 12 -16 4 -16 -9 0 -9 -3 0 -14 9 -11 9 -16 -1 -23 -17 -11 -19 -43 -2 -43
7 0 16 -5 20 -12 5 -8 2 -9 -9 -5 -24 9 -21 -1 5 -24 l23 -19 -30 6 c-17 3
-25 2 -20 -3 6 -4 12 -21 13 -37 1 -21 -2 -27 -13 -22 -9 3 -15 0 -15 -10 0
-8 4 -13 9 -9 14 8 25 -15 23 -45 -1 -21 7 -29 46 -48 27 -14 54 -21 65 -17
10 4 17 3 17 -4 0 -16 65 -14 79 3 6 7 23 14 38 14 15 0 29 5 31 11 5 15 37
14 51 -3 9 -11 6 -12 -16 -8 -23 4 -26 2 -16 -9 19 -19 16 -28 -13 -39 -23 -9
-26 -15 -22 -45 2 -19 1 -35 -3 -35 -4 0 -12 -20 -18 -44 -10 -42 -13 -44 -68
-62 -45 -15 -58 -23 -58 -39 0 -11 -7 -27 -15 -36 -8 -9 -23 -29 -32 -45 -10
-16 -23 -37 -30 -46 -10 -15 -10 -20 4 -34 19 -19 58 -10 58 14 0 14 1 14 12
0 7 -9 22 -18 33 -20 14 -2 19 -10 17 -26 -2 -16 2 -22 16 -22 21 0 46 23 36
33 -9 8 65 27 82 20 8 -3 14 -9 14 -14 0 -5 9 -9 20 -9 14 0 20 7 20 21 0 12
8 23 20 26 27 7 25 21 -3 26 -19 4 -19 4 5 6 37 2 44 -15 13 -35 -30 -20 -32
-38 -4 -57 18 -13 19 -18 8 -35 -11 -18 -10 -24 4 -40 15 -16 15 -20 1 -40 -8
-12 -12 -27 -8 -33 4 -7 0 -9 -14 -5 -11 4 -23 2 -27 -4 -8 -14 16 -37 44 -42
33 -5 30 -23 -4 -26 -40 -5 -48 -14 -36 -45 13 -33 28 -35 33 -5 2 14 11 24
23 25 11 2 14 0 8 -3 -7 -3 -13 -13 -13 -21 0 -12 7 -14 30 -10 24 5 28 4 23
-10 -4 -11 -3 -14 6 -9 6 4 18 2 26 -4 12 -10 15 -9 15 5 0 10 12 34 27 54 16
20 26 42 25 50 -2 7 1 11 5 8 5 -3 10 10 10 30 1 23 8 40 22 49 22 16 28 48
11 59 -5 3 -10 16 -10 29 0 12 -5 27 -12 34 -8 8 -5 14 16 23 19 9 25 17 20
32 -4 12 2 27 16 42 23 25 30 79 12 97 -7 7 -12 20 -12 29 0 9 -7 23 -16 30
-14 12 -13 14 12 21 32 8 64 2 64 -13 0 -5 7 -9 15 -9 9 0 15 -9 15 -21 0 -15
5 -19 15 -15 8 3 15 1 15 -5 0 -5 10 -7 23 -4 30 8 89 -41 67 -56 -24 -15 26
-52 60 -44 14 3 50 5 80 3 90 -3 133 -2 163 6 21 7 27 5 27 -8 0 -9 -5 -16
-11 -16 -8 0 -9 -4 0 -13 6 -8 7 -18 3 -22 -4 -5 2 -5 12 -1 16 6 17 4 5 -10
-16 -19 -20 -43 -13 -68 5 -14 13 -17 33 -13 20 4 30 1 39 -14 16 -25 34 -24
50 1 15 24 28 26 36 5 3 -8 2 -14 -2 -14 -19 3 -22 -3 -11 -24 7 -12 18 -26
25 -30 8 -4 14 -15 14 -22 0 -8 9 -15 20 -15 12 0 17 -5 14 -14 -11 -28 61
-44 88 -19 14 12 30 14 76 9 32 -4 61 -4 64 -1 3 4 0 32 -8 63 -18 78 -18 92
5 92 13 0 17 -6 14 -23 -5 -29 18 -60 38 -52 9 3 22 18 29 33 l14 27 6 -40 c7
-47 16 -65 34 -65 17 0 46 33 46 53 0 9 9 25 21 35 l20 20 -28 21 -28 22 32
-16 c41 -19 73 -19 73 0 0 8 6 15 13 15 22 0 27 -11 16 -33 -8 -15 -8 -22 2
-28 20 -12 32 -6 46 22 l12 24 7 -34 7 -34 23 27 c18 21 21 31 14 50 -5 13 -6
27 -3 30 3 3 -2 8 -11 12 -20 8 -21 44 -1 44 8 0 15 5 15 10 0 6 7 10 15 10
19 0 19 -19 0 -26 -8 -4 -15 -13 -15 -22 0 -13 3 -12 14 3 12 17 18 18 40 7
14 -6 26 -18 26 -26 0 -7 7 -16 15 -20 8 -3 18 -7 22 -8 7 -3 43 -67 43 -77 0
-3 -6 2 -12 11 -7 9 -28 19 -46 23 -25 5 -32 3 -32 -9 0 -9 -4 -16 -10 -16 -5
0 -10 8 -10 18 0 14 -2 14 -9 3 -7 -10 -4 -19 7 -27 14 -10 14 -14 2 -29 -12
-14 -12 -16 1 -15 28 4 50 0 45 -9 -9 -14 57 -78 86 -83 39 -7 57 16 33 42
-10 11 -15 23 -11 27 4 4 11 1 15 -6 5 -8 17 -11 30 -6 11 3 21 2 21 -3 0 -6
16 -10 35 -10 38 0 42 7 23 38 -7 10 -9 23 -4 27 10 10 36 -25 36 -48 0 -24
18 -33 35 -19 11 9 12 17 5 30 -6 10 -7 26 -4 34 5 14 10 13 34 -4 15 -11 33
-20 39 -20 6 0 16 -11 21 -25 6 -16 14 -23 25 -19 8 3 15 10 15 16 0 5 5 6 11
2 6 -3 4 5 -5 19 -16 24 -16 25 11 32 25 7 69 10 76 5 1 -1 27 -4 57 -7 64 -6
176 -31 143 -32 -26 -1 -31 -19 -8 -27 9 -4 23 2 33 13 30 35 92 39 92 6 0 -8
6 -13 13 -10 6 2 19 -10 27 -27 20 -40 38 -43 108 -15 89 36 92 40 64 76 -18
23 -23 23 -152 -13 -23 -6 -24 -5 -7 8 17 13 17 15 -7 41 -26 28 -23 35 7 13
9 -7 17 -18 17 -25 0 -6 5 -11 10 -11 6 0 10 13 10 29 0 25 4 29 34 33 19 2
34 -1 33 -6 -1 -5 7 -12 18 -14 11 -2 23 -9 27 -16 5 -7 8 -7 8 3 0 11 3 11
16 0 9 -7 13 -21 10 -33 -5 -20 -4 -20 9 -3 13 18 15 18 42 2 26 -15 58 -63
49 -73 -3 -2 -21 1 -41 8 -22 7 -40 8 -48 3 -7 -5 -28 -16 -47 -23 -40 -15
-90 -58 -90 -77 0 -16 34 -24 85 -19 31 3 44 11 62 36 32 48 63 65 63 36 0 -8
-9 -18 -20 -21 -13 -4 -20 -16 -21 -33 0 -15 -4 -36 -9 -47 -8 -19 -9 -19 -9
3 -1 28 -15 28 -34 1 -11 -16 -12 -28 -4 -52 21 -67 40 -107 59 -124 18 -16
19 -16 9 10 -12 30 -7 34 15 13 8 -8 11 -22 8 -30 -3 -9 -2 -16 4 -16 6 0 12
6 15 13 4 9 7 9 18 0 11 -11 11 -13 -1 -13 -7 0 -11 -3 -7 -6 8 -8 52 24 52
37 0 7 11 19 25 28 18 12 22 13 15 2 -6 -11 -4 -13 9 -8 10 4 20 7 22 7 2 0 4
7 4 15 0 8 -8 15 -19 15 -10 0 -24 7 -31 15 -10 12 -10 15 4 15 9 0 16 8 16
20 0 23 18 27 26 5 4 -10 15 -12 36 -8 34 7 54 -13 36 -34 -7 -9 -7 -13 0 -13
6 0 14 4 17 10 3 5 15 10 25 10 14 0 18 5 13 16 -3 9 0 20 8 25 11 6 11 11 1
21 -13 13 -17 48 -5 48 3 0 19 -14 35 -32 23 -26 37 -33 78 -36 40 -3 50 0 50
12 0 20 10 20 24 1 6 -8 26 -18 44 -21 27 -6 32 -4 32 14 0 25 58 56 77 40 9
-7 13 -7 13 0 0 6 -5 14 -11 18 -22 13 14 22 89 22 64 0 75 -3 79 -19 4 -14
11 -17 34 -12 20 4 29 1 29 -7 0 -9 4 -9 17 1 15 12 16 12 10 -3 -5 -15 -1
-18 23 -18 28 0 29 -2 18 -20 -10 -16 -10 -23 5 -37 22 -23 72 -7 71 23 0 18
3 19 45 9 l44 -10 -33 -5 c-45 -7 -48 -23 -7 -38 42 -15 67 -15 67 0 0 6 3 8
6 5 4 -3 15 -2 26 4 15 8 23 6 39 -12 16 -19 19 -20 25 -5 3 9 10 14 15 11 4
-3 16 6 25 21 14 21 20 24 29 13 6 -8 20 -20 33 -27 19 -10 22 -10 22 5 0 15
1 15 13 -1 20 -27 81 -18 85 12 4 28 27 39 47 22 8 -6 19 -9 24 -6 5 4 12 2
16 -4 4 -6 -5 -10 -19 -10 -19 0 -26 -5 -26 -20 0 -24 9 -28 68 -33 29 -2 47
-10 57 -24 11 -15 25 -21 50 -20 34 1 45 10 25 22 -18 11 -11 21 16 23 15 1
34 8 42 15 13 10 14 9 10 -3 -3 -10 6 -19 26 -26 36 -12 59 -7 52 11 -5 14 20
14 60 1 28 -8 42 21 19 38 -15 10 -13 15 9 39 30 32 31 37 13 37 -17 0 -57 42
-57 59 0 8 -7 10 -20 6 -15 -5 -18 -3 -14 9 7 17 -7 25 -52 30 -16 2 -33 4
-39 5 -18 2 40 28 77 34 31 5 35 3 31 -13 -4 -14 4 -24 30 -36 40 -19 66 -13
74 16 3 11 9 20 14 20 17 0 22 -31 9 -58 -10 -23 -9 -28 6 -37 9 -5 26 -18 36
-28 10 -9 23 -17 30 -17 8 0 9 -3 1 -11 -21 -21 -2 -56 39 -72 22 -9 37 -20
34 -25 -3 -5 8 -12 25 -16 22 -4 36 -1 52 15 l22 21 -33 28 c-21 17 -37 42
-42 64 -10 47 0 46 30 -4 14 -22 27 -40 30 -40 3 0 11 14 19 30 10 24 17 29
33 24 15 -4 27 2 44 22 42 52 21 84 -25 40 l-28 -27 0 33 c0 18 4 38 9 45 6 7
5 20 -2 34 -10 17 -14 19 -21 8 -5 -8 -9 -21 -9 -30 0 -11 -7 -14 -28 -11 -22
3 -31 12 -43 46 -11 29 -12 51 -6 69 10 31 27 36 27 8 0 -10 7 -22 16 -25 13
-5 14 -9 4 -21 -7 -8 -9 -22 -6 -32 6 -15 9 -14 30 8 20 21 21 25 7 36 -22 17
-9 16 38 -3 31 -12 44 -13 60 -4 18 9 27 7 53 -11 l31 -23 -6 32 c-7 35 8 44
18 11 7 -20 8 -20 27 -3 11 11 17 26 14 37 -4 15 -2 16 10 6 11 -9 14 -7 14
15 0 18 -8 30 -30 41 -37 19 -37 27 -4 42 21 10 25 9 20 -2 -6 -17 24 -29 38
-15 7 7 6 14 -2 22 -9 9 -7 14 6 24 24 17 47 -13 25 -34 -10 -10 -11 -18 -4
-25 7 -7 5 -14 -6 -22 -21 -15 -10 -48 14 -43 10 2 27 -5 38 -15 12 -11 32
-17 50 -16 16 2 40 -2 51 -9 36 -19 96 -12 125 15 22 20 30 22 53 13 58 -22
112 -7 86 24 -15 19 8 27 33 12 22 -14 39 8 30 41 -4 17 -1 23 11 23 15 0 21
12 17 33 -1 4 9 3 21 -4 12 -7 23 -8 25 -3 2 5 21 8 43 6 35 -4 40 -1 40 16 0
18 6 21 40 19 43 -1 49 -13 28 -47 -10 -16 -10 -24 0 -41 20 -31 9 -33 -21 -3
-24 24 -28 25 -61 13 -38 -14 -48 -43 -24 -67 20 -20 48 -15 48 9 0 19 2 20
17 8 15 -12 16 -12 10 4 -6 15 -4 16 13 7 11 -6 25 -8 30 -5 5 3 18 1 29 -5
16 -8 22 -6 30 7 5 10 13 15 17 11 3 -4 18 -1 33 6 22 12 29 12 45 1 10 -8 25
-11 34 -8 8 4 13 2 9 -3 -3 -6 -1 -16 4 -24 7 -12 11 -12 17 -2 5 7 13 12 18
11 16 -4 64 13 64 22 0 5 -10 13 -22 18 -18 6 -23 16 -23 49 0 38 1 41 32 44
18 2 33 0 33 -4 0 -14 38 -9 43 6 8 21 -13 36 -49 36 -18 0 -43 4 -56 9 -28
11 -91 72 -83 80 3 3 10 0 14 -7 5 -9 25 -12 57 -10 44 3 49 1 47 -17 -1 -11
4 -23 10 -27 14 -9 33 -10 24 -2 -8 8 12 26 46 42 35 15 58 16 37 1 -12 -9
-12 -10 3 -5 10 3 21 6 23 6 2 0 4 7 4 16 0 9 5 12 12 8 6 -4 16 0 22 8 7 9
25 18 41 19 17 2 34 8 38 14 6 6 10 5 14 -3 4 -10 8 -10 19 -1 12 10 18 8 29
-7 8 -10 15 -25 15 -33 0 -9 7 -11 21 -8 15 4 19 2 15 -9 -3 -8 1 -14 9 -14 7
0 16 -13 20 -29 8 -38 30 -56 69 -56 26 0 31 -4 30 -22 0 -17 5 -23 21 -23 33
0 48 24 41 65 -7 35 6 49 18 19 5 -13 9 -14 21 -4 19 16 19 30 0 30 -23 0 -18
14 11 27 29 13 49 7 49 -16 0 -17 54 -22 73 -6 7 5 29 26 49 45 20 19 38 29
40 23 7 -19 78 12 81 35 2 14 8 19 18 15 8 -3 14 1 14 11 0 9 -6 16 -12 16
-10 0 -9 3 1 9 7 5 22 6 32 4 13 -4 19 0 20 13 0 11 3 14 6 7 2 -7 12 -13 21
-13 15 -1 15 -2 0 -11 -10 -5 -18 -15 -18 -22 0 -7 -9 -18 -20 -25 -28 -17
-25 -39 8 -56 25 -14 26 -15 5 -16 -29 0 -30 -26 -3 -40 26 -14 72 -9 78 8 2
6 -7 16 -20 21 -23 10 -23 10 4 10 43 1 68 51 44 89 -6 9 -11 10 -21 2 -9 -8
-14 -5 -19 12 -9 35 -9 36 32 48 20 7 42 19 49 27 6 8 22 14 35 13 39 -4 42
-1 23 20 -19 21 -19 21 19 18 20 -1 42 -9 47 -18 9 -13 10 -13 5 2 -3 10 -1
20 4 23 6 4 10 -1 10 -9 0 -20 14 -20 30 -1 7 8 22 15 33 15 21 0 21 0 -1 -16
-12 -8 -20 -19 -17 -24 3 -5 -5 -10 -17 -12 -18 -2 -22 -8 -20 -30 2 -19 -2
-28 -12 -28 -22 0 -30 -19 -11 -26 9 -4 25 2 38 13 33 30 81 36 122 15 41 -20
42 -24 13 -37 -27 -12 -32 -65 -10 -96 17 -24 28 -24 54 1 25 23 39 15 57 -29
8 -17 29 -36 58 -50 43 -21 46 -21 64 -5 18 16 19 16 19 0 0 -11 6 -16 18 -14
12 2 18 16 22 48 5 45 5 45 44 46 23 1 44 8 51 17 8 12 15 13 30 4 14 -7 20
-7 23 2 3 9 7 9 18 0 23 -19 16 -28 -26 -35 -45 -7 -69 -29 -52 -46 8 -8 7
-16 -1 -29 -9 -14 -9 -21 1 -31 6 -6 12 -20 12 -29 0 -25 19 -36 77 -43 46 -6
53 -4 63 14 9 16 8 25 -1 36 -9 11 -8 14 4 14 8 0 17 5 19 11 2 7 12 7 31 0
16 -6 46 -11 68 -11 38 0 39 -1 27 -22 -7 -13 -20 -31 -28 -42 -8 -10 -15 -35
-15 -55 0 -30 -4 -37 -22 -39 -13 -2 -23 1 -23 7 0 18 -68 44 -102 39 -19 -3
-49 3 -75 14 -37 16 -43 23 -43 48 0 20 -5 30 -15 30 -8 0 -15 -9 -15 -20 0
-13 -5 -18 -16 -13 -12 4 -14 14 -9 44 8 44 -1 48 -34 18 -14 -13 -20 -27 -16
-40 4 -12 1 -19 -7 -20 -7 -1 -20 -2 -28 -3 -9 0 -15 -10 -14 -23 0 -13 -3
-23 -8 -23 -15 0 -8 -27 13 -54 23 -29 50 -34 68 -12 18 21 70 -12 105 -68 28
-44 73 -67 88 -43 3 5 8 -1 10 -14 2 -20 8 -24 36 -22 34 2 40 -5 20 -25 -9
-9 -9 -12 -1 -12 7 0 24 16 39 35 18 24 35 35 51 35 21 0 24 4 19 22 -3 13 -6
26 -6 31 0 4 -8 7 -17 7 -17 1 -17 1 0 11 22 13 37 4 37 -23 0 -11 8 -22 20
-25 23 -6 26 -19 8 -26 -10 -4 -10 -8 0 -15 8 -5 12 -13 10 -17 -1 -4 7 -10
19 -11 15 -3 24 3 28 16 6 20 51 60 66 60 5 0 9 -6 9 -14 0 -8 5 -18 10 -21
15 -9 50 4 50 20 0 7 11 20 25 29 48 31 26 76 -37 76 -33 0 -39 -4 -44 -27 -4
-15 -15 -36 -25 -47 -18 -19 -19 -19 -37 5 -15 18 -17 27 -9 40 8 13 7 22 -3
34 -12 14 -10 15 15 5 25 -10 32 -7 61 21 18 17 31 36 28 43 -2 6 5 25 17 41
19 28 20 28 17 6 -3 -24 0 -27 65 -55 33 -14 44 -15 74 -4 l35 13 -6 54 c-4
30 -12 61 -19 70 -9 12 -9 13 1 7 7 -4 12 -2 12 5 0 18 11 4 14 -18 2 -10 11
-20 22 -21 10 -2 24 -11 31 -19 6 -8 17 -12 22 -8 8 4 7 -2 0 -19 -15 -32 -5
-56 21 -56 12 0 18 -4 15 -10 -7 -11 11 -40 25 -40 3 0 12 11 19 24 11 20 16
22 36 12 19 -9 21 -14 12 -26 -31 -40 -37 -60 -25 -80 7 -11 17 -18 23 -15 5
3 18 8 28 11 9 4 17 10 17 15 0 5 9 9 21 9 15 0 19 5 15 15 -3 8 -1 15 4 15 5
0 17 14 27 30 9 17 23 30 29 30 7 0 21 11 32 24 13 17 22 22 29 15 16 -16 43
18 43 55 0 18 -10 46 -24 65 -21 28 -23 36 -13 52 7 11 23 19 37 19 32 0 55
15 46 29 -4 6 0 18 8 27 9 9 14 20 11 25 -4 5 6 9 21 9 18 0 37 11 56 32 15
17 28 27 28 22 0 -6 13 -9 29 -6 23 3 33 -2 46 -22 15 -22 20 -24 39 -14 11 7
26 11 33 10 7 -2 15 9 19 23 6 25 23 35 25 15 1 -5 3 -19 4 -30 1 -11 3 -24 4
-30 1 -13 31 -13 31 0 0 16 49 23 65 10 12 -10 15 -10 15 1 0 12 2 12 9 1 11
-18 5 -90 -8 -106 -12 -14 -5 -26 16 -26 18 0 44 -25 36 -34 -4 -3 -1 -6 6 -6
7 0 9 -5 6 -10 -3 -6 -1 -10 4 -10 6 0 11 4 11 9 0 13 37 2 51 -15 17 -20 62
-17 87 7 16 14 23 16 26 7 2 -7 7 -21 10 -30 3 -11 1 -15 -7 -12 -19 7 -35
-28 -26 -54 9 -24 24 -29 33 -9 3 6 4 3 1 -8 -4 -16 4 -25 32 -40 20 -11 44
-18 52 -16 13 2 13 0 -2 -17 -18 -19 -18 -21 3 -40 18 -17 19 -20 5 -32 -8 -7
-15 -22 -14 -34 0 -20 0 -20 9 -1 4 11 18 28 29 38 12 10 19 22 16 27 -4 6 2
13 11 17 10 3 26 15 37 26 16 16 18 23 8 38 -7 12 -7 19 -1 19 5 0 10 -4 10
-8 0 -4 13 -23 29 -42 24 -29 31 -33 44 -22 13 11 20 11 41 -3 23 -15 25 -15
35 4 15 27 6 45 -32 64 l-32 16 35 -6 35 -6 -20 22 c-11 12 -27 20 -36 18 -26
-7 -13 16 17 30 21 10 28 8 49 -11 14 -13 25 -27 25 -31 0 -4 8 -14 18 -21 10
-8 12 -13 5 -14 -20 0 -15 -28 7 -50 12 -12 18 -25 15 -29 -2 -5 2 -14 10 -21
12 -10 15 -10 15 0 0 10 3 10 14 1 15 -12 39 4 48 31 4 10 8 10 21 0 13 -11
19 -10 35 6 11 11 28 19 39 19 10 -1 17 4 15 12 -2 9 4 12 18 8 11 -3 20 -1
20 5 0 5 5 6 12 2 8 -5 9 -2 5 9 -5 14 -3 15 18 5 18 -8 32 -8 54 2 17 7 28
16 26 20 -8 13 9 20 25 9 10 -6 11 -9 3 -9 -7 0 -13 -7 -13 -16 0 -10 7 -14
18 -12 9 2 15 11 13 19 -13 51 -10 67 14 73 51 13 115 -53 86 -88 -9 -10 -7
-17 6 -27 15 -12 16 -12 11 2 -11 29 45 6 60 -24 18 -36 42 -34 103 8 55 37
64 41 74 25 3 -6 23 -10 44 -10 20 0 42 -5 47 -10 7 -7 25 -4 57 10 54 24 63
35 47 55 -7 8 -9 22 -6 31 4 9 1 23 -5 30 -8 10 -7 17 5 29 9 9 16 23 16 30 0
12 7 12 43 2 55 -16 72 -15 71 5 -1 10 9 18 25 21 14 3 37 15 50 26 13 12 30
21 38 21 22 0 38 22 41 53 1 18 -3 27 -13 27 -7 0 -17 5 -20 10 -4 7 3 9 19 6
23 -4 26 -1 26 25 0 25 -4 29 -26 29 -19 0 -25 -4 -21 -14 7 -18 -55 -86 -79
-86 -12 0 -14 3 -5 13 6 8 14 31 19 53 6 29 13 40 29 42 35 5 47 27 29 54 -22
31 -20 38 12 38 38 0 42 6 30 41 -11 33 -23 37 -37 12 -10 -17 -10 -16 -10 2
0 11 6 28 14 39 12 16 12 21 -3 42 -9 13 -24 24 -32 24 -12 0 -11 3 3 11 9 5
17 15 17 22 0 7 11 21 25 31 21 16 23 21 13 34 -11 13 -10 15 4 9 12 -4 19 0
23 14 4 11 4 23 1 26 -3 4 2 15 11 25 10 11 18 35 19 53 1 32 -1 34 -47 45
-37 9 -48 16 -51 35 -3 14 0 26 8 29 31 12 3 76 -32 76 -15 0 -14 3 6 13 14 7
31 25 38 40 17 35 2 64 -43 82 -23 10 -39 28 -54 59 -25 55 -25 54 -4 52 24
-2 40 57 23 88 -7 13 -9 30 -5 37 5 7 4 10 -2 6 -15 -9 -23 16 -12 34 14 23
11 39 -8 32 -13 -5 -15 -2 -9 12 3 10 2 21 -3 25 -6 3 0 20 15 42 24 34 25 37
10 72 -8 20 -21 36 -29 36 -8 0 -18 7 -21 16 -4 10 -1 14 6 11 7 -2 25 4 40
15 23 16 26 23 21 53 -5 33 0 41 29 36 10 -1 58 63 58 77 0 15 -2 15 -36 1
l-28 -10 28 26 c15 14 26 33 24 43 -5 27 -42 26 -69 -2 -26 -28 -46 -32 -69
-13 -19 14 -25 61 -7 54 14 -5 17 51 3 72 -7 11 -5 13 8 8 20 -8 60 50 50 73
-16 38 -11 72 12 80 33 13 40 31 18 47 -10 8 -19 19 -19 26 -1 7 -6 11 -12 10
-13 -3 -10 51 4 69 6 7 7 22 3 33 -5 13 -1 24 14 36 18 15 19 19 6 35 -9 11
-10 15 -2 10 6 -4 12 -3 12 2 0 6 -7 13 -16 16 -8 3 -12 10 -9 16 9 14 -15 83
-32 93 -12 7 -12 12 1 32 14 21 14 23 -6 28 -15 4 -19 11 -15 26 3 12 1 24 -4
27 -6 3 -8 11 -6 17 2 7 -2 18 -9 25 -7 7 -11 19 -7 27 3 8 2 27 -1 41 -6 22
-11 25 -31 20 -30 -8 -33 9 -6 26 10 6 17 18 14 25 -3 7 -1 13 4 13 14 0 -1
113 -16 118 -8 3 -6 9 6 19 17 14 17 14 0 9 -13 -4 -17 -1 -15 12 4 27 -28 67
-67 82 -36 14 -43 24 -24 35 6 4 8 14 4 23 -8 21 41 71 65 65 23 -6 60 14 60
32 0 8 7 15 15 15 20 0 19 3 -14 39 -29 31 -29 33 -26 126 4 88 3 96 -18 110
-18 13 -20 18 -10 34 10 16 9 20 -10 25 -21 5 -21 6 6 34 19 20 23 29 13 29
-8 0 -13 -4 -10 -9 3 -4 -2 -5 -11 -2 -12 5 -6 15 26 46 32 31 38 42 29 53 -9
11 -14 11 -29 -3 -9 -9 -14 -18 -9 -20 13 -6 -3 -31 -17 -26 -17 7 -15 42 2
48 7 3 13 17 13 31 0 24 -3 26 -30 20 -31 -7 -42 8 -14 19 28 11 44 6 66 -19
19 -22 58 -35 58 -20 0 3 -15 21 -33 39 -25 24 -41 33 -60 31 -24 -3 -27 0
-29 28 -1 18 -1 44 0 58 3 40 -24 44 -37 7 -13 -36 -26 -31 -17 7 4 17 19 31
45 42 21 9 42 26 47 37 5 12 24 24 46 29 l36 9 -19 33 c-16 26 -18 38 -10 54
13 23 14 42 4 40 -20 -3 -26 2 -13 11 13 9 13 12 0 23 -9 6 -14 20 -12 30 2
10 -3 17 -12 17 -8 0 -17 4 -20 8 -9 14 6 52 20 52 8 0 11 7 8 18 -2 9 1 7 7
-5 13 -24 28 -30 30 -13 5 34 3 70 -3 70 -3 0 -9 8 -11 18 -3 10 -5 5 -7 -13
l-2 -30 -10 28 c-12 33 -26 35 -37 4 -11 -29 -37 -51 -50 -43 -17 11 0 37 19
31 13 -4 19 3 26 27 8 26 16 34 37 36 16 2 31 10 34 18 3 8 10 14 15 14 7 0 7
-4 0 -12 -7 -9 -5 -19 8 -35 23 -29 32 -29 30 0 -3 38 -1 47 15 47 8 0 15 9
15 19 0 11 6 22 13 25 9 5 9 7 -1 12 -6 3 -9 11 -5 17 4 6 1 8 -9 5 -8 -4 -19
2 -26 13 -10 15 -17 17 -38 9 -22 -9 -25 -8 -20 6 3 8 6 25 7 37 0 20 1 20 8
4 6 -17 8 -17 20 -4 14 18 45 11 34 -7 -4 -6 1 -5 10 3 22 18 22 32 0 24 -16
-6 -17 -5 -3 13 23 29 19 59 -8 58 -20 -1 -21 1 -8 20 8 12 21 20 29 20 9 -1
18 5 21 12 3 8 -1 14 -8 14 -21 0 -27 27 -10 41 12 10 15 10 12 -1 -2 -7 2
-14 9 -17 9 -3 9 3 0 26 -6 17 -17 31 -24 31 -6 0 -15 9 -18 20 -3 11 -10 20
-15 20 -12 0 -20 28 -14 45 4 8 12 15 20 15 19 0 18 45 -1 64 -10 10 -12 17
-4 21 6 4 8 14 5 22 -4 10 0 13 17 11 16 -2 22 2 23 18 1 12 4 26 8 32 3 6 0
12 -6 15 -10 4 -11 7 0 18 17 18 15 32 -3 25 -9 -3 -15 0 -15 9 0 7 -9 17 -21
20 -11 4 -18 12 -16 18 2 7 -5 20 -16 30 -20 17 -20 17 4 18 l24 0 -22 11
c-13 6 -23 20 -23 30 0 19 -1 19 -32 1 -18 -10 -40 -23 -48 -30 -12 -10 -24
-10 -53 -1 -31 10 -39 18 -48 51 -7 26 -7 42 -1 46 13 8 17 32 8 53 -11 24
-29 12 -21 -13 8 -26 1 -24 -30 7 -14 14 -30 22 -35 19 -5 -3 -22 6 -37 21
-22 20 -23 24 -7 15 17 -8 25 -7 38 7 24 27 2 42 -61 42 -53 0 -63 6 -41 28 9
9 5 18 -16 38 -20 21 -23 29 -14 35 7 5 20 6 30 3 9 -2 19 -1 22 4 8 13 -20
35 -33 28 -11 -7 -34 29 -36 57 -1 9 4 17 11 17 18 0 31 53 16 58 -7 2 -10 7
-7 12 3 4 -6 11 -20 14 -30 8 -33 31 -5 46 23 12 28 32 6 24 -8 -3 -17 -1 -20
4 -4 6 16 8 52 5 57 -4 58 -4 57 22 0 14 -7 30 -14 35 -15 9 -3 17 52 34 14 4
17 11 11 28 -6 20 -5 21 10 9 21 -18 53 4 36 24 -8 9 -8 15 0 20 13 8 84 15
76 8 -2 -3 -1 -16 4 -29 6 -16 6 -24 -1 -24 -6 0 -7 -5 -4 -10 4 -7 13 -6 26
1 12 6 18 13 15 16 -2 3 -1 16 4 29 8 20 6 24 -10 24 -27 0 -32 14 -16 45 10
18 16 22 20 13 5 -10 7 -11 12 0 5 10 9 10 20 1 8 -7 17 -9 20 -6 11 11 7 58
-6 70 -10 9 -11 9 -5 -3 5 -9 0 -8 -14 5 l-22 19 11 -28 c13 -36 7 -43 -30
-29 -18 7 -32 7 -36 2 -3 -5 -12 -5 -23 0 -23 13 -61 3 -61 -15 0 -8 -4 -14
-10 -14 -5 0 -10 4 -10 10 0 5 -7 7 -15 4 -8 -4 -15 -1 -15 5 0 13 -36 15 -44
3 -2 -4 -1 -14 5 -22 6 -10 9 -11 9 -2 0 6 5 12 11 12 8 0 7 -5 -1 -16 -20
-23 -42 4 -45 56 -2 33 1 40 14 38 9 -2 20 -13 26 -26 11 -26 50 -30 59 -6 3
8 10 12 16 9 5 -3 10 -3 11 2 0 4 2 18 3 30 1 12 -1 20 -6 17 -4 -3 -8 -12 -8
-20 0 -8 -4 -14 -10 -14 -5 0 -10 4 -10 10 0 5 -10 9 -22 7 -17 -1 -23 3 -21
16 0 12 -4 16 -13 13 -8 -3 -14 -1 -14 4 0 6 3 10 8 11 4 0 15 2 25 4 9 2 17
-1 17 -6 0 -18 25 -9 35 13 6 11 25 29 43 39 19 9 41 24 51 33 10 9 23 16 29
16 16 0 15 23 0 39 -11 10 -7 11 17 5 64 -17 116 -4 132 33 15 30 4 44 -28 36
-35 -9 -20 14 21 32 28 12 37 21 28 26 -9 6 -8 10 5 15 18 7 23 39 8 49 -5 3
-25 -4 -44 -15 l-34 -20 0 27 c0 16 -3 37 -8 47 -6 13 -5 17 3 12 12 -7 46 49
37 63 -2 5 2 11 10 15 17 6 20 48 5 76 -12 22 -3 50 15 50 13 0 29 29 21 38
-3 2 -21 1 -40 -2 -26 -5 -36 -13 -41 -33 -4 -19 -2 -31 9 -38 13 -10 12 -13
-5 -23 -10 -7 -19 -23 -19 -37 0 -13 -7 -39 -16 -58 -15 -31 -19 -33 -62 -32
-26 1 -45 3 -42 6 7 7 -33 49 -47 49 -7 0 -13 4 -13 9 0 12 25 21 56 21 15 0
23 4 19 10 -4 6 -11 8 -16 5 -5 -4 -9 -1 -9 4 0 6 7 11 16 11 11 0 14 6 9 20
-6 19 -3 20 40 17 56 -4 65 8 41 56 -9 19 -16 25 -16 15 0 -24 -16 -22 -34 4
-12 17 -13 24 -3 30 9 6 9 10 -3 17 -8 5 -18 7 -22 5 -16 -10 -7 12 15 38 16
18 36 29 61 31 43 5 61 19 53 41 -8 21 -47 20 -63 -1 -17 -24 -27 -11 -19 25
5 23 13 31 37 36 21 4 29 10 24 21 -3 10 5 20 25 31 25 12 28 18 18 30 -9 11
-8 14 9 14 12 0 24 5 27 11 4 6 14 8 22 5 8 -3 11 -1 8 4 -3 6 -1 10 5 10 6 0
8 5 5 10 -3 6 1 13 9 16 18 7 21 31 7 53 -8 12 -12 12 -25 2 -17 -14 -22 -2
-7 14 18 20 22 65 7 71 -12 5 -13 9 -3 20 35 39 37 43 25 50 -8 5 -5 10 8 14
12 5 19 17 19 34 1 14 -2 26 -5 26 -3 0 -10 8 -17 19 -10 15 -9 18 5 17 11 -1
18 8 20 22 2 12 8 22 15 22 8 0 8 3 0 11 -8 8 -9 19 -2 37 13 33 7 36 -24 11
-21 -16 -27 -17 -27 -6 0 8 6 20 14 26 8 7 15 20 15 29 0 9 2 34 4 55 4 26 1
37 -8 37 -7 0 -16 -6 -18 -12 -4 -10 -8 -10 -15 1 -6 8 -18 11 -30 7 -51 -16
-84 -15 -89 3 -3 13 -11 17 -24 14 -10 -3 -27 -2 -36 2 -16 6 -15 9 9 28 15
12 31 33 37 47 7 17 10 20 10 8 2 -44 61 0 61 44 0 17 -11 34 -34 51 -31 25
-35 25 -48 9 -29 -33 -30 -42 -8 -60 21 -17 21 -17 -12 -20 -18 -1 -57 -4 -86
-5 -40 -1 -58 -7 -70 -22 -16 -19 -19 -20 -45 -5 -15 8 -25 21 -22 28 2 6 1
12 -4 12 -15 0 -31 -26 -33 -54 -2 -21 -9 -29 -30 -33 -15 -3 -26 -9 -23 -13
10 -16 -27 -19 -53 -5 -15 8 -21 14 -13 15 7 0 11 6 7 15 -3 8 0 15 7 15 21 1
-37 29 -59 30 -12 0 -29 11 -38 25 -16 24 -16 25 5 25 20 0 19 3 -14 35 -20
19 -45 35 -55 35 -11 0 -23 7 -26 16 -7 17 -48 14 -112 -8 -30 -11 -85 -2 -56
9 19 7 4 23 -23 23 -13 0 -25 6 -28 13 -4 10 -7 10 -18 0 -13 -13 -38 -19 -26
-6 4 3 2 12 -4 19 -8 10 -16 10 -37 1 -15 -6 -30 -16 -34 -22 -5 -7 -14 -6
-28 3 -23 14 -70 6 -70 -12 0 -6 12 -19 27 -27 l26 -17 -21 -11 c-12 -7 -22
-8 -22 -3 0 4 -13 8 -30 7 -17 0 -30 -5 -30 -12 0 -7 -7 -10 -15 -7 -9 4 -15
1 -15 -7 0 -8 -6 -3 -13 10 -18 36 -42 41 -33 7 9 -36 -27 -73 -58 -58 -26 11
-41 10 -42 -3 0 -5 -6 -23 -13 -39 -6 -16 -10 -35 -7 -43 3 -7 1 -13 -4 -13
-4 0 -11 -13 -15 -30 -7 -34 -13 -36 -41 -15 -13 10 -15 14 -5 15 8 0 12 3 9
6 -4 3 -2 19 2 35 10 33 5 37 -50 47 l-41 7 20 21 c11 12 18 24 15 26 -2 3 0
16 5 29 7 17 10 19 10 7 1 -22 41 -25 41 -3 0 8 5 15 10 15 6 0 10 9 10 20 0
25 -35 27 -49 3 -10 -17 -10 -17 -11 -1 0 9 5 20 10 23 16 10 12 45 -6 52 -21
8 -47 -25 -40 -51 3 -11 -5 -28 -20 -43 -13 -13 -24 -29 -24 -34 0 -6 -9 -8
-20 -4 -16 5 -20 2 -20 -17 0 -18 -2 -20 -10 -8 -8 12 -10 12 -10 -5 0 -13 -3
-16 -8 -8 -5 8 -12 9 -22 2 -13 -8 -12 -12 7 -26 18 -12 20 -19 12 -34 -7 -14
-6 -19 2 -19 8 0 8 -4 -1 -15 -7 -8 -21 -15 -31 -15 -11 0 -19 -5 -19 -11 0
-5 -4 -7 -10 -4 -17 11 -11 25 15 35 18 7 25 17 25 35 0 22 -4 25 -34 25 -19
0 -42 -7 -51 -16 -22 -23 -32 -9 -11 15 18 19 17 20 -15 14 -19 -2 -43 -6 -54
-6 -30 -3 -35 -18 -14 -40 10 -12 19 -24 19 -28 0 -12 -30 -32 -37 -25 -4 4
-1 11 6 15 24 15 -6 21 -34 7 -25 -13 -26 -14 -6 -21 17 -5 19 -10 10 -33 -8
-21 -7 -29 5 -38 22 -15 20 -24 -5 -24 -11 0 -17 5 -14 10 8 12 -15 13 -34 1
-7 -5 -10 -14 -7 -20 4 -6 1 -11 -8 -11 -10 0 -14 9 -13 28 1 18 -3 27 -13 28
-8 1 -26 3 -40 4 -24 2 -24 2 8 16 17 8 32 16 32 19 0 3 -10 19 -21 34 -12 16
-19 33 -16 38 3 5 -8 10 -25 11 -25 2 -29 0 -20 -11 6 -7 9 -23 6 -35 -6 -19
-8 -20 -22 -6 -12 12 -17 13 -23 3 -4 -8 -12 -10 -16 -5 -4 4 1 14 11 22 19
13 18 14 -8 14 -25 0 -27 -2 -21 -30 4 -20 1 -37 -9 -52 -21 -30 -20 -41 4
-35 11 3 20 1 20 -3 0 -16 -62 -22 -86 -10 -18 10 -27 10 -38 1 -26 -22 -28 7
-1 31 35 31 32 38 -20 38 -26 0 -45 5 -45 11 0 6 23 33 52 61 47 45 50 52 39
70 -11 18 -11 20 4 14 15 -5 16 -4 5 9 -14 17 -30 20 -30 5 0 -19 -40 -50 -65
-50 -14 0 -34 9 -45 20 -11 11 -26 20 -34 20 -22 0 -48 -31 -43 -51 4 -15 2
-17 -13 -9 -13 7 -22 5 -34 -9 -9 -9 -16 -23 -16 -29 0 -6 -8 -25 -19 -42 -15
-25 -20 -28 -25 -15 -7 18 14 65 38 84 24 20 20 43 -6 40 -13 -1 -38 1 -56 5
-23 6 -40 3 -56 -8 -21 -13 -26 -13 -36 -1 -7 8 -18 15 -25 15 -19 0 -75 49
-75 66 0 8 -7 14 -15 14 -21 0 -19 -7 16 -61 17 -26 42 -52 57 -58 22 -7 23
-10 7 -10 -12 -1 -38 19 -65 48 -30 33 -56 51 -77 55 -23 4 -33 2 -33 -8 0 -7
-11 -19 -25 -26 -22 -12 -23 -15 -10 -30 13 -14 12 -18 -5 -33 -15 -12 -18
-24 -14 -47 7 -31 -9 -43 -19 -15 -11 26 -76 1 -103 -40 -16 -24 -53 -37 -38
-14 3 6 1 15 -6 19 -7 4 -13 16 -14 27 -2 27 -43 76 -57 68 -6 -4 -14 -3 -18
3 -4 7 -12 8 -21 1 -10 -6 -12 -11 -4 -16 6 -5 13 -16 17 -26 5 -13 2 -17 -10
-15 -10 2 -19 -5 -21 -16 -3 -15 1 -18 22 -14 15 3 29 1 32 -4 4 -6 -16 -8
-47 -7 -39 2 -58 9 -70 22 -14 18 -16 18 -32 2 -9 -9 -17 -23 -17 -31 0 -9
-12 -30 -26 -49 -14 -18 -24 -42 -22 -51 2 -14 -6 -20 -33 -24 -21 -4 -44 -14
-54 -23 -19 -19 -35 -22 -35 -6 0 7 -10 9 -24 5 -20 -5 -28 0 -43 24 -9 16
-24 31 -33 31 -8 1 -20 2 -26 3 -6 0 -23 16 -38 34 -23 26 -35 32 -66 32 -32
0 -43 -6 -64 -32 l-25 -33 27 -14 c25 -13 25 -15 7 -21 -14 -5 -22 -2 -26 8
-5 13 -7 14 -15 1 -5 -8 -9 -16 -9 -19 -5 -39 -35 -68 -35 -34 0 12 -7 14 -28
9 -20 -4 -33 -1 -41 9 -7 8 -19 12 -27 9 -10 -4 -14 3 -14 22 0 18 -6 29 -19
32 -10 2 -24 16 -30 29 -6 14 -25 30 -42 36 -16 6 -28 13 -25 16 3 3 24 -3 46
-13 51 -23 72 -10 50 30 -13 24 -18 25 -54 19 -41 -6 -41 -6 -22 14 13 15 16
29 12 46 -5 20 -3 24 9 20 10 -4 15 0 15 15 0 29 -9 26 -40 -11 -22 -26 -30
-30 -42 -21 -23 19 -57 12 -55 -11 1 -13 -5 -22 -16 -24 -27 -5 -69 7 -62 18
10 16 -21 11 -35 -5 -11 -13 -16 -13 -42 1 -24 12 -36 13 -54 5 -13 -6 -24
-16 -24 -23 0 -7 -11 0 -25 15 -30 31 -31 31 -65 14 -38 -20 -62 -28 -56 -19
2 4 0 14 -5 22 -8 12 -12 12 -16 2 -2 -6 -9 -10 -14 -6 -12 7 -11 -13 1 -37 9
-15 7 -19 -6 -19 -12 0 -15 -6 -10 -23 4 -17 1 -23 -12 -23 -9 -1 -24 -3 -32
-5 -11 -3 -16 6 -18 38 -2 24 1 50 6 59 12 21 4 54 -13 54 -7 0 -16 -8 -19
-17 -6 -13 -9 -14 -15 -5 -5 9 -34 14 -83 14 -65 1 -78 -2 -99 -21 -14 -13
-20 -25 -14 -29 6 -4 10 -13 11 -19 3 -43 4 -44 24 -38 14 5 20 2 20 -9 0 -9
5 -16 11 -16 5 0 7 -5 4 -11 -4 -6 0 -9 11 -7 15 2 19 -4 21 -30 2 -56 8 -62
60 -61 26 1 60 -1 76 -4 28 -5 56 13 58 36 0 7 4 3 8 -8 12 -29 2 -53 -19 -48
-22 6 -35 -13 -35 -51 0 -39 -17 -43 -51 -9 -18 18 -29 23 -32 15 -6 -18 -38
-33 -56 -26 -11 4 -13 11 -7 23 6 10 6 23 0 32 -8 12 -11 11 -23 -4 -10 -14
-15 -15 -19 -5 -3 8 -11 0 -18 -19 -17 -43 -29 -42 -29 3 0 31 -3 36 -20 31
-13 -3 -20 0 -20 9 0 10 -8 13 -23 10 -21 -4 -23 -1 -19 21 3 13 12 27 21 31
17 6 40 32 41 45 0 12 -27 8 -39 -7 -13 -16 -51 -28 -51 -17 0 4 16 16 35 27
19 10 35 22 35 26 0 16 -22 19 -38 5 -9 -7 -25 -17 -36 -21 -14 -5 -17 -2 -12
9 8 21 -17 29 -43 15 -25 -13 -27 -33 -6 -50 12 -10 18 -10 30 0 12 10 15 9
15 -8 0 -27 -27 -49 -42 -34 -7 7 -26 12 -44 12 -18 0 -34 5 -36 12 -3 7 -12
9 -22 5 -11 -4 -16 -13 -12 -22 8 -21 -11 -19 -35 4 -18 16 -19 23 -9 41 9 17
14 20 20 9 7 -10 14 -10 35 -1 36 17 66 16 59 -2 -3 -8 -1 -17 5 -20 5 -4 12
20 16 58 6 55 9 63 26 59 10 -3 26 2 35 12 15 14 15 18 3 26 -11 7 -11 11 -2
17 16 10 -11 52 -33 52 -8 0 -14 6 -14 13 0 6 -5 4 -11 -5 -7 -12 -6 -24 1
-37 14 -28 13 -36 -5 -21 -9 7 -19 10 -22 6 -4 -4 -2 -11 6 -15 10 -7 9 -9 -3
-14 -8 -3 -22 0 -30 8 -17 17 -46 20 -46 5 0 -6 -7 -22 -16 -36 -13 -19 -20
-22 -30 -13 -20 16 -36 2 -24 -21 8 -16 8 -18 -5 -14 -19 8 -19 -6 -1 -31 12
-17 11 -21 -10 -38 -21 -16 -29 -17 -56 -8 -21 8 -35 8 -43 1 -7 -6 -18 -9
-25 -8 -21 5 -36 -29 -23 -51 10 -15 10 -21 0 -25 -7 -4 7 -4 31 -2 28 3 40 1
35 -7 -4 -6 2 -8 18 -4 13 4 28 7 32 7 5 0 5 5 2 10 -3 6 2 10 12 10 10 0 29
7 42 17 23 15 25 15 37 -2 8 -10 14 -15 14 -9 0 11 20 -17 20 -29 0 -5 -4 -5
-10 -2 -5 3 -10 1 -10 -5 0 -7 -7 -5 -16 4 -19 20 -66 15 -90 -9 -17 -16 -17
-20 -2 -45 19 -34 12 -45 -27 -45 -23 0 -36 -9 -57 -37 -22 -29 -33 -36 -55
-33 -15 1 -36 -3 -46 -10 -16 -11 -25 -10 -55 8 -21 11 -44 26 -52 32 -8 6
-22 11 -30 10 -8 -1 -28 5 -43 12 -35 18 -102 19 -121 3 -12 -9 -17 -7 -28 9
-9 14 -19 19 -35 15 -26 -7 -29 3 -12 39 20 43 -24 88 -56 58 -6 -5 -20 -12
-32 -15 -18 -6 -20 -4 -16 14 3 11 9 20 14 20 5 0 9 5 9 10 0 6 -6 10 -12 9
-27 -3 -38 2 -38 16 0 8 -8 15 -19 15 -10 0 -24 -7 -31 -15 -7 -8 -17 -15 -23
-15 -5 0 -20 -11 -33 -25 -25 -27 -44 -25 -76 7 -22 22 -42 24 -34 3 4 -12 2
-13 -14 -2 -11 6 -20 20 -20 31 0 13 -5 17 -20 13 -20 -5 -45 15 -33 26 3 4 3
7 -1 7 -4 0 -18 -12 -31 -27 l-23 -28 -22 28 c-13 16 -34 33 -48 38 -13 5 -22
12 -19 16 17 16 -42 88 -78 95 -13 2 -20 11 -20 25 -1 53 -80 83 -109 42 -12
-18 -84 -55 -99 -51 -4 1 -33 -10 -64 -25 -38 -18 -58 -22 -61 -15 -2 7 -13
10 -29 6 l-26 -7 24 34 c13 19 27 36 32 37 11 5 9 40 -3 47 -8 5 -7 11 1 21 8
10 8 14 0 14 -6 0 -11 9 -11 20 0 24 -21 70 -32 70 -14 0 -9 -40 7 -46 8 -4
15 -11 15 -16 0 -6 -8 -7 -17 -3 -33 12 -38 10 -35 -12 2 -13 -2 -23 -7 -23
-6 0 -11 8 -11 18 0 42 -57 65 -92 38 -24 -18 -23 -25 4 -18 20 5 21 4 5 -18
-8 -12 -13 -29 -10 -36 7 -18 -21 -18 -39 -1 -7 7 -21 16 -32 20 -15 6 -16 10
-6 22 7 8 21 15 32 15 15 0 19 6 16 28 -4 37 -50 43 -83 12 l-24 -22 -24 24
c-13 13 -30 22 -38 19 -9 -3 -8 2 4 13 20 21 21 28 5 44 -14 14 -58 16 -58 2
0 -5 7 -7 16 -3 12 4 15 2 12 -8 -8 -26 -43 -21 -73 11 -34 35 -46 37 -63 10z
m-482 -186 c0 -8 6 -14 13 -15 10 0 -18 -16 -33 -18 -3 -1 -6 25 -7 57 l-3 57
15 -34 c8 -18 15 -40 15 -47z m-815 56 c-5 -9 16 -14 53 -13 17 1 15 -8 -11
-41 -17 -21 -29 -27 -42 -22 -17 6 -17 7 0 26 18 19 17 20 -3 20 -12 0 -22 2
-22 4 0 14 14 36 22 36 5 0 6 -4 3 -10z m8000 -60 c3 -5 1 -10 -4 -10 -6 0
-11 5 -11 10 0 6 2 10 4 10 3 0 8 -4 11 -10z m-7925 -31 c0 -5 -7 -9 -15 -9
-15 0 -20 12 -9 23 8 8 24 -1 24 -14z m1365 1 c3 -5 1 -10 -4 -10 -6 0 -11 5
-11 10 0 6 2 10 4 10 3 0 8 -4 11 -10z m4970 -40 c-3 -5 -11 -10 -16 -10 -6 0
-7 5 -4 10 3 6 11 10 16 10 6 0 7 -4 4 -10z m-6400 -10 c3 -5 1 -10 -4 -10 -6
0 -11 5 -11 10 0 6 2 10 4 10 3 0 8 -4 11 -10z m1695 6 c0 -3 -4 -8 -10 -11
-5 -3 -10 -1 -10 4 0 6 5 11 10 11 6 0 10 -2 10 -4z m-2910 -26 c-8 -5 -18 -6
-24 -3 -5 4 -1 10 10 13 24 9 34 2 14 -10z m8325 0 c-4 -13 1 -34 14 -55 20
-35 14 -46 -22 -37 -22 6 -33 50 -18 74 9 15 8 18 -6 19 -16 1 -11 3 35 18 2
1 0 -8 -3 -19z m885 10 c0 -5 -2 -10 -4 -10 -3 0 -8 5 -11 10 -3 6 -1 10 4 10
6 0 11 -4 11 -10z m-7947 -7 c-7 -2 -19 -2 -25 0 -7 3 -2 5 12 5 14 0 19 -2
13 -5z m6287 -3 c8 -5 12 -12 9 -15 -8 -8 -39 5 -39 16 0 11 11 11 30 -1z
m840 6 c0 -2 -7 -7 -16 -10 -8 -3 -12 -2 -9 4 6 10 25 14 25 6z m-8420 -41 c7
-9 8 -15 2 -15 -5 0 -12 7 -16 15 -3 8 -4 15 -2 15 2 0 9 -7 16 -15z m5630
-21 c0 -2 -9 -4 -21 -4 -11 0 -18 4 -14 10 5 8 35 3 35 -6z m1533 -16 c30 4
31 3 12 -11 -11 -8 -30 -17 -43 -21 -19 -6 -22 -4 -18 16 6 33 7 34 12 22 2
-6 19 -9 37 -6z m1027 2 c0 -5 -5 -10 -11 -10 -5 0 -7 5 -4 10 3 6 8 10 11 10
2 0 4 -4 4 -10z m-950 -20 c0 -5 -7 -10 -15 -10 -8 0 -15 5 -15 10 0 6 7 10
15 10 8 0 15 -4 15 -10z m-50 -45 c0 -29 -8 -32 -26 -7 -19 24 -17 32 6 32 15
0 20 -7 20 -25z m-970 5 c0 -5 -2 -10 -4 -10 -3 0 -8 5 -11 10 -3 6 -1 10 4
10 6 0 11 -4 11 -10z m690 -44 c0 -43 -34 -15 -37 29 l-1 30 19 -24 c10 -13
19 -29 19 -35z m-650 23 c0 -4 -7 -6 -15 -3 -8 4 -15 10 -15 15 0 4 7 6 15 3
8 -4 15 -10 15 -15z m1000 0 c0 -5 -4 -9 -10 -9 -5 0 -10 7 -10 16 0 8 5 12
10 9 6 -3 10 -10 10 -16z m-2595 -9 c3 -5 -1 -10 -10 -10 -9 0 -13 5 -10 10 3
6 8 10 10 10 2 0 7 -4 10 -10z m1535 -5 c-30 -17 -40 -18 -40 -6 0 10 22 18
50 19 8 1 4 -5 -10 -13z m2173 -10 c-3 -9 -8 -14 -10 -11 -3 3 -2 9 2 15 9 16
15 13 8 -4z m1548 -53 c22 -46 24 -58 12 -60 -23 -6 -52 27 -51 57 1 14 -2 34
-6 44 -6 11 -4 17 5 17 8 0 26 -26 40 -58z m-4451 14 c0 -7 7 -19 15 -26 8 -6
13 -24 12 -39 -2 -23 -5 -26 -23 -17 -17 8 -21 19 -20 53 1 24 4 43 9 43 4 0
7 -6 7 -14z m225 4 c3 -5 2 -10 -4 -10 -5 0 -13 5 -16 10 -3 6 -2 10 4 10 5 0
13 -4 16 -10z m-760 -20 c3 -5 2 -10 -4 -10 -5 0 -13 5 -16 10 -3 6 -2 10 4
10 5 0 13 -4 16 -10z m-4205 -37 c-1 -18 -18 -35 -24 -24 -4 6 -14 11 -22 11
-11 0 -13 -6 -9 -21 5 -15 3 -20 -6 -17 -22 7 -23 46 -2 51 30 8 63 7 63 0z
m9170 -23 c0 -5 -4 -10 -10 -10 -5 0 -10 5 -10 10 0 6 5 10 10 10 6 0 10 -4
10 -10z m-4805 -20 c3 -5 -1 -10 -10 -10 -9 0 -13 5 -10 10 3 6 8 10 10 10 2
0 7 -4 10 -10z m-6675 -10 c0 -5 -5 -10 -11 -10 -5 0 -7 5 -4 10 3 6 8 10 11
10 2 0 4 -4 4 -10z m2330 6 c0 -11 -19 -15 -25 -6 -3 5 1 10 9 10 9 0 16 -2
16 -4z m-2157 -49 c-3 -5 -10 -4 -15 1 -6 6 -7 16 -3 22 6 9 9 9 16 -1 4 -7 5
-17 2 -22z m5557 -7 c-8 -5 -19 -10 -25 -10 -5 0 -3 5 5 10 8 5 20 10 25 10 6
0 3 -5 -5 -10z m1173 -11 c4 -16 3 -18 -9 -8 -7 6 -11 15 -8 20 8 13 11 11 17
-12z m-767 -26 c-10 -10 -19 5 -10 18 6 11 8 11 12 0 2 -7 1 -15 -2 -18z m-75
-16 c-10 -9 -11 -8 -5 6 3 10 9 15 12 12 3 -3 0 -11 -7 -18z m5362 3 c7 0 4
-5 -6 -11 -9 -5 -22 -7 -27 -4 -6 4 -7 -1 -3 -12 4 -13 3 -15 -6 -7 -16 14 -3
47 16 40 8 -3 20 -6 26 -6z m-11873 -20 c13 -9 13 -11 0 -20 -10 -6 -11 -10
-2 -10 21 0 13 -14 -23 -38 -40 -25 -50 -9 -14 24 11 10 18 26 16 36 -6 20 1
22 23 8z m125 -269 c3 -6 2 -11 -3 -11 -12 0 -33 56 -24 65 4 3 10 -5 13 -19
4 -13 10 -29 14 -35z m11701 7 c-3 -13 -6 -30 -7 -38 0 -8 -5 -2 -9 14 -10 31
-6 46 12 46 6 0 8 -10 4 -22z m-11736 -50 c11 -7 7 -8 -12 -4 -15 4 -29 2 -32
-2 -7 -12 -49 -8 -53 5 -8 23 62 23 97 1z m-198 -140 c-7 -7 -12 -23 -12 -37
0 -26 -12 -21 -16 7 -3 17 25 56 34 47 3 -3 0 -11 -6 -17z m-32 8 c0 -3 -4 -8
-10 -11 -5 -3 -10 -1 -10 4 0 6 5 11 10 11 6 0 10 -2 10 -4z m320 -20 c0 -2
-3 -11 -6 -20 -9 -23 -24 -20 -24 4 0 11 7 20 15 20 8 0 15 -2 15 -4z m-12
-175 c3 -8 -1 -12 -9 -9 -7 2 -15 10 -17 17 -3 8 1 12 9 9 7 -2 15 -10 17 -17z
m-73 -77 c12 -5 14 -9 4 -14 -14 -9 -39 -2 -39 11 0 11 12 11 35 3z m11445
-300 c-15 -17 -30 -18 -30 -1 0 7 9 13 21 14 17 2 18 -1 9 -13z m-11500 -64
c-9 -5 -9 -9 -1 -14 6 -4 9 -11 6 -16 -3 -4 2 -11 11 -14 13 -5 14 -9 4 -21
-16 -19 -30 -19 -30 -1 0 7 -7 19 -15 26 -11 9 -12 16 -2 33 16 28 31 39 36
26 2 -6 -2 -15 -9 -19z m-35 -68 c-3 -3 -11 0 -18 7 -9 10 -8 11 6 5 10 -3 15
-9 12 -12z m11668 -203 c-3 -11 -9 -21 -13 -24 -5 -3 -6 4 -3 15 3 11 0 20 -6
20 -6 0 -11 -5 -11 -12 0 -6 -2 -9 -5 -6 -3 3 -3 12 0 20 9 24 44 11 38 -13z
m-195 -80 c7 -12 11 -23 9 -26 -3 -3 -10 4 -16 15 -8 14 -17 19 -32 15 -15 -4
-20 -3 -15 5 11 19 40 14 54 -9z m70 -7 c6 -18 -15 -14 -22 4 -4 10 -1 14 6
12 6 -2 14 -10 16 -16z m-11478 -242 c0 -12 -50 -59 -62 -60 -15 0 -8 17 17
44 25 27 45 34 45 16z m90 -160 c0 -5 -5 -10 -11 -10 -5 0 -7 5 -4 10 3 6 8
10 11 10 2 0 4 -4 4 -10z m11479 -282 c-9 -16 -14 -19 -17 -9 -2 7 2 17 9 22
20 13 21 11 8 -13z m151 -249 c0 -5 5 -7 11 -3 7 4 10 1 7 -7 -7 -20 -32 -17
-36 4 -2 9 1 17 7 17 6 0 11 -5 11 -11z m120 -14 c0 -8 -4 -15 -10 -15 -5 0
-7 7 -4 15 4 8 8 15 10 15 2 0 4 -7 4 -15z m-11850 -9 c0 -8 -4 -18 -10 -21
-5 -3 -10 -17 -10 -31 0 -14 -4 -22 -10 -19 -13 8 -13 41 0 66 12 22 30 25 30
5z m83 -264 c16 -24 27 -46 24 -49 -9 -9 -34 21 -29 35 2 7 -2 10 -11 6 -8 -3
-18 -1 -22 5 -10 17 -35 13 -35 -5 0 -13 -6 -11 -25 10 -13 14 -30 27 -37 27
-24 2 46 16 77 15 23 -1 35 -10 58 -44z m11582 -212 c-3 -5 -11 -10 -16 -10
-6 0 -7 5 -4 10 3 6 11 10 16 10 6 0 7 -4 4 -10z m50 -11 c4 -5 18 -14 31 -19
16 -6 24 -17 24 -33 0 -13 6 -29 13 -36 10 -11 8 -11 -12 -1 -12 6 -32 10 -42
7 -11 -3 -16 -1 -13 4 3 6 1 15 -4 22 -14 18 -24 67 -13 67 5 0 13 -5 16 -11z
m152 -125 c-3 -3 -12 -4 -19 -1 -8 3 -5 6 6 6 11 1 17 -2 13 -5z m-11752 -24
c-3 -5 -10 -10 -16 -10 -5 0 -9 5 -9 10 0 6 7 10 16 10 8 0 12 -4 9 -10z m-6
-66 c-6 -8 -18 -14 -25 -14 -11 0 -12 4 -2 19 6 10 18 17 25 14 10 -4 11 -9 2
-19z m-254 -44 c10 -11 24 -20 32 -20 7 0 13 -4 13 -10 0 -5 -5 -10 -12 -10
-6 0 -3 -9 7 -20 10 -11 15 -20 11 -20 -13 0 -61 41 -62 53 -4 41 -4 42 -13
29 -7 -11 -9 -11 -14 2 -9 23 16 20 38 -4z m11803 -2 c-6 -17 -68 -23 -82 -7
-8 9 -7 11 4 7 8 -3 24 -2 35 3 30 12 47 10 43 -3z m-11578 -8 c11 -7 7 -9
-15 -7 -24 2 -30 -2 -30 -18 0 -12 -11 -25 -29 -32 -36 -16 -43 -16 -28 -1 17
17 15 38 -3 38 -35 0 -11 19 28 23 23 2 47 4 52 5 6 1 17 -3 25 -8z m186 -96
c-3 -8 -18 -14 -35 -14 l-30 0 27 28 c21 21 29 24 35 14 5 -7 6 -20 3 -28z
m-231 -41 c-8 -17 -22 -36 -30 -43 -13 -10 -15 -8 -15 14 0 15 7 29 15 32 8 4
15 18 15 32 0 24 2 25 15 11 14 -14 14 -18 0 -46z m11575 47 c0 -5 -5 -10 -11
-10 -5 0 -7 5 -4 10 3 6 8 10 11 10 2 0 4 -4 4 -10z m120 -217 c-1 -18 -40
-54 -51 -47 -8 4 -3 12 15 21 14 7 26 18 26 23 0 6 2 10 5 10 3 0 5 -3 5 -7z
m-11790 -7 c0 -3 -4 -8 -10 -11 -5 -3 -10 -1 -10 4 0 6 5 11 10 11 6 0 10 -2
10 -4z m57 -238 c13 -17 23 -58 15 -58 -14 0 -72 40 -72 49 0 8 14 15 41 20 4
0 11 -5 16 -11z m213 -872 c-1 -21 -1 -21 -15 -2 -19 25 -19 37 0 30 8 -4 15
-16 15 -28z m-150 -401 c-7 -8 -20 -15 -28 -15 -13 0 -12 3 4 15 25 19 40 19
24 0z m-146 -287 c8 -12 13 -25 10 -30 -3 -5 0 -15 6 -23 9 -11 9 -15 1 -15
-17 0 -13 -47 6 -66 12 -11 14 -19 6 -21 -6 -2 -9 -12 -6 -22 3 -10 0 -22 -5
-25 -6 -3 -8 -16 -4 -28 3 -14 2 -19 -6 -14 -7 4 -12 14 -12 22 0 8 -9 14 -21
14 -11 0 -17 4 -14 10 4 6 2 16 -3 23 -20 26 -20 55 0 60 18 5 19 11 14 71 -7
70 1 83 28 44z m-57 -218 c-1 -22 -17 -28 -17 -7 0 12 9 27 16 27 2 0 2 -9 1
-20z m109 -7 c-7 -7 -26 7 -26 19 0 6 6 6 15 -2 9 -7 13 -15 11 -17z m-159
-55 c-3 -8 -6 -5 -6 6 -1 11 2 17 5 13 3 -3 4 -12 1 -19z m12077 -179 c-7 -11
-34 -12 -34 -1 0 14 11 21 26 15 8 -3 11 -9 8 -14z m-11974 -705 c-18 -21 -24
-10 -8 15 7 12 14 17 16 11 2 -6 -2 -17 -8 -26z m-132 -83 c-1 -17 -9 -33 -21
-41 -17 -10 -19 -10 -13 5 3 9 6 28 6 41 0 14 6 24 14 24 10 0 14 -10 14 -29z
m37 -106 c-3 -27 -12 -42 -20 -33 -6 6 11 58 19 58 2 0 3 -11 1 -25z m11935
-385 c0 -5 -2 -10 -4 -10 -3 0 -8 5 -11 10 -3 6 -1 10 4 10 6 0 11 -4 11 -10z
m148 -22 c14 -18 9 -53 -10 -72 -17 -16 -88 -23 -88 -8 0 9 31 41 40 41 3 0
13 3 23 6 25 10 21 28 -5 19 -20 -6 -21 -5 -9 10 16 19 35 21 49 4z m-3928
-18 c0 -5 -5 -10 -11 -10 -5 0 -7 5 -4 10 3 6 8 10 11 10 2 0 4 -4 4 -10z
m3776 -108 c-4 -3 -11 -1 -17 5 -8 8 -7 17 3 32 13 22 13 22 16 -5 2 -14 1
-28 -2 -32z m-42 -14 c23 -46 19 -57 -8 -23 -13 16 -21 35 -19 42 7 18 10 17
27 -19z m-1789 -56 c-3 -3 -11 0 -18 7 -9 10 -8 11 6 5 10 -3 15 -9 12 -12z
m-2635 -98 c0 -14 -3 -14 -15 -4 -8 7 -15 14 -15 16 0 2 7 4 15 4 8 0 15 -7
15 -16z m4420 -59 c-5 -21 -6 -43 -3 -48 3 -5 -4 -6 -16 -2 -29 9 -38 -18 -17
-50 20 -30 8 -33 -24 -5 -12 11 -30 22 -40 25 -10 3 -21 12 -24 20 -3 9 0 12
10 8 9 -3 28 4 44 16 16 11 33 21 39 21 5 0 14 14 20 32 15 42 22 32 11 -17z
m-11251 -8 c-9 -7 -14 -18 -11 -26 3 -9 -1 -11 -17 -6 -15 4 -21 2 -21 -8 0
-21 -27 -40 -46 -33 -13 5 -11 10 13 30 15 12 38 28 51 35 12 6 22 19 22 28 0
14 2 15 13 4 10 -10 9 -15 -4 -24z m8900 -17 c13 0 52 -42 46 -48 -3 -3 -14 3
-24 12 -28 25 -54 16 -65 -22 -7 -24 -14 -32 -32 -32 -30 0 -33 30 -4 37 23 6
27 23 6 23 -10 0 -12 7 -8 22 5 21 6 21 13 2 4 -10 8 -13 8 -6 1 6 8 12 16 12
9 0 15 9 16 23 l0 22 9 -22 c5 -13 14 -23 19 -23z m2221 36 c0 -2 -7 -7 -16
-10 -8 -3 -12 -2 -9 4 6 10 25 14 25 6z m-2055 -23 c-2 -10 -7 -35 -10 -55 -7
-42 -22 -51 -27 -16 -2 12 -13 27 -25 34 -17 8 -20 13 -11 22 7 7 22 12 34 12
13 0 26 5 29 10 9 15 14 12 10 -7z m-7468 -39 c0 -8 -8 -14 -18 -14 -20 0 -33
15 -25 29 9 14 43 2 43 -15z m7501 -51 c-13 -12 -14 -10 -10 18 4 27 6 29 14
14 7 -12 6 -21 -4 -32z m-9608 13 c0 -3 -4 -8 -10 -11 -5 -3 -10 -1 -10 4 0 6
5 11 10 11 6 0 10 -2 10 -4z m10584 -32 c13 -5 14 -9 5 -20 -10 -13 -39 -20
-39 -10 0 8 12 36 15 36 2 0 11 -3 19 -6z m-4612 -36 c-8 -8 -9 -4 -5 13 4 13
8 18 11 10 2 -7 -1 -18 -6 -23z m-372 12 c0 -5 -2 -10 -4 -10 -3 0 -8 5 -11
10 -3 6 -1 10 4 10 6 0 11 -4 11 -10z m4915 0 c-3 -5 -17 -10 -31 -10 -13 0
-24 5 -24 10 0 6 14 10 31 10 17 0 28 -4 24 -10z m-7605 -31 c0 -6 -4 -7 -10
-4 -5 3 -10 11 -10 16 0 6 5 7 10 4 6 -3 10 -11 10 -16z m-2501 -31 c-15 -21
-24 -27 -27 -18 -3 7 5 22 18 32 32 26 34 22 9 -14z m8762 19 c-7 -7 -18 -7
-33 0 -20 9 -20 10 10 10 22 0 29 -4 23 -10z m-6933 -22 c-3 -3 -9 2 -12 12
-6 14 -5 15 5 6 7 -7 10 -15 7 -18z m3217 5 c3 -5 1 -10 -4 -10 -6 0 -11 5
-11 10 0 6 2 10 4 10 3 0 8 -4 11 -10z m5515 0 c0 -5 -2 -10 -4 -10 -3 0 -8 5
-11 10 -3 6 -1 10 4 10 6 0 11 -4 11 -10z m-8850 -10 c0 -5 -5 -10 -11 -10 -5
0 -7 5 -4 10 3 6 8 10 11 10 2 0 4 -4 4 -10z m1584 -185 c3 -8 1 -15 -3 -15
-5 0 -11 7 -15 15 -3 8 -1 15 3 15 5 0 11 -7 15 -15z m-470 -56 c-9 -11 -23
-19 -31 -19 -9 0 -13 -12 -12 -37 0 -21 3 -32 6 -25 7 17 30 15 37 -4 11 -29
7 -36 -19 -30 -22 6 -27 2 -36 -24 -6 -16 -15 -30 -19 -30 -15 0 -17 70 -2 82
8 7 11 21 8 34 -4 15 0 28 10 36 8 7 23 20 31 30 9 9 22 14 30 11 11 -5 11 -9
-3 -24z m549 -5 c-7 -18 -43 -18 -43 -1 0 20 9 25 30 20 11 -3 16 -11 13 -19z
m-440 -4 c9 -11 17 -22 17 -25 0 -9 -40 19 -44 32 -8 20 7 15 27 -7z m327 -30
c10 -19 10 -20 -9 -8 -22 13 -28 28 -11 28 5 0 14 -9 20 -20z m656 -16 c-28
-20 -53 -19 -36 1 7 8 16 13 20 10 5 -3 12 0 15 6 4 5 10 7 13 4 4 -4 -2 -13
-12 -21z m77 -19 c7 -17 -9 -30 -18 -16 -3 6 -12 8 -20 4 -9 -3 -15 1 -15 11
0 21 46 22 53 1z m448 -61 c12 -14 11 -16 -5 -13 -11 2 -21 10 -24 17 -5 17
13 15 29 -4z m501 -18 c7 4 8 2 4 -4 -4 -6 -13 -9 -21 -6 -8 4 -12 11 -8 17 5
8 8 7 11 -1 2 -7 9 -9 14 -6z"/>
<path d="M4775 8890 c-3 -5 -1 -10 4 -10 6 0 11 5 11 10 0 6 -2 10 -4 10 -3 0
-8 -4 -11 -10z"/>
<path d="M10625 8890 c3 -5 8 -10 11 -10 2 0 4 5 4 10 0 6 -5 10 -11 10 -5 0
-7 -4 -4 -10z"/>
<path d="M11209 8873 c-7 -7 -9 -16 -6 -19 9 -9 62 11 60 22 -4 14 -42 13 -54
-3z"/>
<path d="M11347 8864 c-11 -11 3 -24 18 -18 8 4 12 10 9 15 -6 11 -18 12 -27
3z"/>
<path d="M4726 8845 c-19 -14 -19 -15 7 -15 17 0 27 5 27 15 0 19 -9 19 -34 0z"/>
<path d="M5481 8834 c6 -7 16 -11 21 -8 11 7 3 17 -18 20 -12 2 -13 -1 -3 -12z"/>
<path d="M11240 8842 c-15 -5 -30 -21 -30 -34 0 -4 11 -15 25 -24 24 -16 27
-16 46 2 38 35 11 73 -41 56z"/>
<path d="M11182 8789 c2 -7 10 -15 17 -17 8 -3 12 1 9 9 -2 7 -10 15 -17 17
-8 3 -12 -1 -9 -9z"/>
<path d="M9438 8772 c-25 -5 -10 -32 18 -32 13 0 24 5 24 11 0 5 -4 8 -9 4 -5
-3 -11 1 -13 8 -2 7 -11 11 -20 9z"/>
<path d="M9499 8769 c-12 -8 -11 -12 4 -23 9 -7 17 -18 17 -24 0 -15 28 -23
56 -16 29 7 31 24 4 31 -11 3 -20 9 -20 13 0 14 -46 28 -61 19z"/>
<path d="M10113 8758 c-4 -7 -21 -13 -38 -13 -21 0 -31 -5 -33 -18 -3 -17 1
-18 42 -12 31 5 51 3 61 -5 12 -10 18 -10 30 0 14 12 14 15 -1 31 -10 11 -19
17 -22 14 -3 -3 -11 0 -18 6 -9 7 -15 6 -21 -3z"/>
<path d="M11170 8741 c0 -20 13 -41 21 -35 15 9 10 44 -6 44 -8 0 -15 -4 -15
-9z"/>
<path d="M9080 8719 c-14 -10 -31 -16 -38 -14 -8 3 -12 0 -10 -7 8 -25 54 -21
71 6 21 32 9 40 -23 15z"/>
<path d="M9413 8718 c0 -13 -3 -40 -8 -60 -7 -35 -5 -38 16 -38 12 0 34 10 48
23 14 12 19 14 12 5 -11 -15 -11 -18 2 -18 43 0 22 69 -29 93 -43 21 -40 21
-41 -5z"/>
<path d="M8580 8719 c0 -5 5 -7 10 -4 6 3 10 8 10 11 0 2 -4 4 -10 4 -5 0 -10
-5 -10 -11z"/>
<path d="M2240 8711 c-8 -6 -18 -7 -22 -5 -4 3 -8 0 -8 -5 0 -16 23 -13 46 4
21 16 8 20 -16 6z"/>
<path d="M8605 8707 c-13 -10 -15 -16 -6 -21 17 -11 41 0 41 19 0 19 -11 19
-35 2z"/>
<path d="M5823 8693 c-7 -2 -13 -9 -13 -14 0 -14 26 -10 40 6 10 12 10 15 -1
14 -8 0 -20 -3 -26 -6z"/>
<path d="M10190 8690 c0 -5 4 -10 9 -10 6 0 13 5 16 10 3 6 -1 10 -9 10 -9 0
-16 -4 -16 -10z"/>
<path d="M7540 8660 c-1 -25 -1 -25 -17 -5 -14 18 -15 18 -9 2 3 -10 6 -21 6
-23 0 -12 29 0 59 25 l35 29 -37 -2 c-32 -1 -37 -4 -37 -26z"/>
<path d="M2232 8669 c2 -6 8 -10 13 -10 5 0 11 4 13 10 2 6 -4 11 -13 11 -9 0
-15 -5 -13 -11z"/>
<path d="M8358 8663 c7 -3 16 -2 19 1 4 3 -2 6 -13 5 -11 0 -14 -3 -6 -6z"/>
<path d="M9110 8654 c0 -9 -7 -14 -17 -12 -13 2 -18 -4 -18 -22 0 -20 6 -26
27 -28 22 -3 30 3 43 28 18 34 15 42 -15 47 -13 2 -20 -3 -20 -13z"/>
<path d="M5675 8640 c-3 -5 1 -10 9 -10 9 0 16 5 16 10 0 6 -4 10 -9 10 -6 0
-13 -4 -16 -10z"/>
<path d="M7295 8640 c-3 -5 -1 -10 4 -10 6 0 11 5 11 10 0 6 -2 10 -4 10 -3 0
-8 -4 -11 -10z"/>
<path d="M8840 8640 c-15 -9 -9 -66 8 -62 6 1 12 -5 12 -13 0 -8 5 -15 10 -15
6 0 10 -7 10 -16 0 -23 40 -8 67 25 15 19 18 30 11 39 -6 6 -7 12 -3 12 4 0 2
7 -5 15 -12 14 -15 14 -36 0 -29 -19 -38 -19 -31 -1 6 16 -24 28 -43 16z"/>
<path d="M7860 8610 c0 -13 5 -20 13 -17 6 2 12 10 12 17 0 7 -6 15 -12 18 -8
2 -13 -5 -13 -18z"/>
<path d="M8275 8620 c-3 -5 -1 -10 4 -10 6 0 11 5 11 10 0 6 -2 10 -4 10 -3 0
-8 -4 -11 -10z"/>
<path d="M590 8612 c0 -5 9 -17 20 -27 18 -16 20 -16 20 -2 0 9 -9 21 -20 27
-11 6 -20 7 -20 2z"/>
<path d="M10580 8610 c0 -5 5 -10 10 -10 6 0 10 5 10 10 0 6 -4 10 -10 10 -5
0 -10 -4 -10 -10z"/>
<path d="M11057 8603 c-4 -3 -7 -11 -7 -17 0 -6 5 -5 12 2 6 6 9 14 7 17 -3 3
-9 2 -12 -2z"/>
<path d="M1233 8580 c-10 -11 -27 -20 -40 -20 -12 0 -25 -4 -28 -10 -3 -5 -16
-10 -28 -10 -39 0 -49 -13 -34 -43 6 -15 19 -27 27 -27 9 0 44 29 78 65 34 36
57 65 52 65 -6 0 -18 -9 -27 -20z"/>
<path d="M6197 8554 c-8 -8 1 -24 14 -24 5 0 9 7 9 15 0 15 -12 20 -23 9z"/>
<path d="M6990 8539 c0 -5 5 -7 10 -4 6 3 10 8 10 11 0 2 -4 4 -10 4 -5 0 -10
-5 -10 -11z"/>
<path d="M8955 8518 c-12 -34 -9 -62 7 -66 20 -4 53 42 44 63 -7 18 -45 20
-51 3z"/>
<path d="M3246 8494 c-4 -9 -4 -19 -1 -22 2 -3 7 3 11 12 4 9 4 19 1 22 -2 3
-7 -3 -11 -12z"/>
<path d="M8903 8493 c-20 -7 -15 -22 7 -20 20 1 27 12 13 20 -5 2 -14 2 -20 0z"/>
<path d="M6280 8459 c0 -5 5 -7 10 -4 6 3 10 8 10 11 0 2 -4 4 -10 4 -5 0 -10
-5 -10 -11z"/>
<path d="M7042 8433 c-18 -7 -4 -23 19 -23 12 0 19 5 17 12 -5 14 -18 18 -36
11z"/>
<path d="M8965 8420 c-3 -5 -1 -10 4 -10 6 0 11 5 11 10 0 6 -2 10 -4 10 -3 0
-8 -4 -11 -10z"/>
<path d="M495 8360 c3 -5 8 -10 11 -10 2 0 4 5 4 10 0 6 -5 10 -11 10 -5 0 -7
-4 -4 -10z"/>
<path d="M390 8268 c0 -9 11 -23 24 -31 22 -15 25 -15 38 0 11 15 11 16 -4 10
-12 -4 -25 1 -38 15 -16 17 -20 18 -20 6z"/>
<path d="M450 8270 c0 -5 5 -10 11 -10 5 0 7 5 4 10 -3 6 -8 10 -11 10 -2 0
-4 -4 -4 -10z"/>
<path d="M320 8230 c0 -5 5 -10 10 -10 6 0 10 5 10 10 0 6 -4 10 -10 10 -5 0
-10 -4 -10 -10z"/>
<path d="M270 8140 c0 -5 4 -10 9 -10 6 0 13 5 16 10 3 6 -1 10 -9 10 -9 0
-16 -4 -16 -10z"/>
<path d="M240 8090 c0 -5 6 -10 13 -10 8 0 7 -3 -3 -10 -8 -5 -16 -18 -16 -30
-1 -24 21 -46 31 -30 3 5 1 10 -4 10 -6 0 -11 5 -11 11 0 5 5 7 10 4 11 -7 13
24 4 49 -7 18 -24 22 -24 6z"/>
<path d="M12536 8067 c3 -10 9 -15 12 -12 3 3 0 11 -7 18 -10 9 -11 8 -5 -6z"/>
<path d="M12380 7820 c0 -5 5 -10 10 -10 6 0 10 5 10 10 0 6 -4 10 -10 10 -5
0 -10 -4 -10 -10z"/>
<path d="M12498 7593 c-26 -6 -34 -44 -12 -60 15 -11 20 -10 36 4 10 9 18 19
18 23 0 15 -26 36 -42 33z"/>
<path d="M340 7579 c0 -6 -7 -9 -15 -5 -19 7 -19 2 -1 -13 12 -10 17 -8 26 8
7 14 7 21 0 21 -5 0 -10 -5 -10 -11z"/>
<path d="M12441 7419 c-42 -46 -34 -84 12 -54 13 8 30 26 37 40 7 13 17 22 22
19 4 -3 8 0 8 5 0 6 -3 11 -7 12 -5 0 -17 2 -28 3 -11 1 -31 -10 -44 -25z"/>
<path d="M566 7291 c-9 -14 4 -41 19 -41 12 0 25 21 25 41 0 12 -37 12 -44 0z"/>
<path d="M12410 7109 c0 -5 5 -7 10 -4 6 3 10 8 10 11 0 2 -4 4 -10 4 -5 0
-10 -5 -10 -11z"/>
<path d="M380 7100 c0 -5 5 -10 10 -10 6 0 10 5 10 10 0 6 -4 10 -10 10 -5 0
-10 -4 -10 -10z"/>
<path d="M12364 7078 c-5 -8 -2 -9 10 -5 11 4 28 -1 43 -13 30 -24 39 -20 23
9 -12 23 -64 29 -76 9z"/>
<path d="M12170 6999 c0 -5 5 -7 10 -4 6 3 10 8 10 11 0 2 -4 4 -10 4 -5 0
-10 -5 -10 -11z"/>
<path d="M12380 7006 c0 -2 7 -7 16 -10 8 -3 12 -2 9 4 -6 10 -25 14 -25 6z"/>
<path d="M12340 6965 c-24 -29 3 -37 49 -17 l42 19 -32 7 c-43 8 -45 8 -59 -9z"/>
<path d="M12379 6930 l-24 -19 33 -1 c21 0 32 5 32 14 0 25 -17 27 -41 6z"/>
<path d="M12190 6899 c0 -5 5 -7 10 -4 6 3 10 8 10 11 0 2 -4 4 -10 4 -5 0
-10 -5 -10 -11z"/>
<path d="M12215 6890 c-3 -5 -1 -10 4 -10 6 0 11 5 11 10 0 6 -2 10 -4 10 -3
0 -8 -4 -11 -10z"/>
<path d="M12372 6873 c2 -13 12 -18 33 -18 43 0 40 29 -3 33 -28 3 -33 0 -30
-15z"/>
<path d="M550 6770 c0 -5 5 -10 10 -10 6 0 10 5 10 10 0 6 -4 10 -10 10 -5 0
-10 -4 -10 -10z"/>
<path d="M12215 6736 c-16 -11 -16 -14 -2 -19 8 -3 21 0 27 8 15 19 -3 27 -25
11z"/>
<path d="M521 6676 l-21 -22 23 -22 c26 -25 47 -28 65 -10 20 20 14 43 -17 61
-27 16 -29 16 -50 -7z"/>
<path d="M12163 6684 c-7 -18 11 -39 26 -30 17 11 13 46 -4 46 -9 0 -18 -7
-22 -16z"/>
<path d="M421 6626 c-15 -16 -19 -26 -11 -31 6 -4 8 -16 4 -27 -6 -20 -4 -21
45 -15 61 7 71 12 71 36 0 19 -50 61 -73 61 -7 0 -24 -11 -36 -24z"/>
<path d="M626 6641 c-4 -7 -5 -15 -2 -18 9 -9 19 4 14 18 -4 11 -6 11 -12 0z"/>
<path d="M12096 6623 c-6 -14 -5 -15 5 -6 7 7 10 15 7 18 -3 3 -9 -2 -12 -12z"/>
<path d="M12190 6620 c0 -11 3 -20 8 -20 4 0 13 9 20 20 11 18 10 20 -8 20
-13 0 -20 -7 -20 -20z"/>
<path d="M320 6610 c0 -5 4 -10 9 -10 6 0 13 5 16 10 3 6 -1 10 -9 10 -9 0
-16 -4 -16 -10z"/>
<path d="M12255 6600 c3 -5 8 -10 11 -10 2 0 4 5 4 10 0 6 -5 10 -11 10 -5 0
-7 -4 -4 -10z"/>
<path d="M12150 6572 c0 -10 -4 -22 -10 -28 -6 -6 -6 -22 1 -47 5 -20 11 -53
12 -74 1 -27 7 -39 20 -41 24 -5 33 25 13 47 -9 10 -16 27 -16 39 0 22 2 23
69 26 16 0 32 3 34 6 14 14 10 44 -6 54 -15 9 -21 7 -33 -9 -12 -16 -16 -17
-23 -6 -6 9 -11 10 -15 2 -11 -17 -26 -3 -26 25 0 13 -4 24 -10 24 -5 0 -10
-8 -10 -18z"/>
<path d="M12063 6565 c-3 -9 -3 -18 0 -21 9 -9 27 6 27 22 0 19 -19 18 -27 -1z"/>
<path d="M324 6552 c-6 -4 -11 -22 -11 -39 0 -30 6 -36 33 -32 4 0 11 -5 15
-13 7 -10 9 -9 9 4 0 10 -9 22 -21 28 -16 9 -19 18 -15 36 7 26 6 27 -10 16z"/>
<path d="M387 6508 c-2 -7 0 -24 5 -37 5 -15 5 -28 -1 -34 -5 -5 -7 -16 -4
-23 3 -8 -1 -14 -8 -15 -38 -2 -56 -6 -74 -17 -17 -10 -18 -11 -3 -12 14 0 16
-5 9 -22 -9 -24 13 -51 50 -63 10 -3 16 -12 13 -19 -3 -8 4 -16 18 -19 17 -5
29 0 44 18 12 14 31 25 43 25 21 0 28 14 12 24 -5 3 -7 23 -5 43 2 21 5 48 7
61 1 12 5 22 10 22 16 0 6 32 -12 37 -13 3 -17 10 -14 20 5 12 1 14 -15 8 -13
-4 -22 -2 -22 4 0 15 -47 14 -53 -1z"/>
<path d="M12070 6486 c-7 -9 -16 -13 -21 -10 -14 8 -11 -30 3 -44 7 -7 19 -12
28 -12 23 0 52 35 48 57 -4 23 -41 29 -58 9z"/>
<path d="M262 6434 c-7 -8 -8 -14 -3 -14 10 0 25 19 20 25 -2 1 -10 -3 -17
-11z"/>
<path d="M12227 6438 c-14 -7 -15 -13 -6 -29 10 -20 30 -22 31 -4 0 6 4 15 9
21 13 16 -12 25 -34 12z"/>
<path d="M12262 6348 c2 -8 -9 -14 -27 -16 -30 -3 -61 -22 -37 -22 7 0 12 -4
12 -10 0 -6 -9 -6 -25 0 -34 13 -44 -7 -14 -28 26 -19 67 -24 75 -11 3 5 0 9
-6 9 -6 0 -9 4 -6 9 3 5 19 8 36 7 34 -2 40 9 9 17 -17 5 -19 9 -10 26 8 13 8
22 1 26 -6 4 -9 1 -8 -7z"/>
<path d="M500 6320 c0 -5 5 -10 10 -10 6 0 10 5 10 10 0 6 -4 10 -10 10 -5 0
-10 -4 -10 -10z"/>
<path d="M525 6250 c-3 -5 -2 -10 4 -10 5 0 13 5 16 10 3 6 2 10 -4 10 -5 0
-13 -4 -16 -10z"/>
<path d="M401 6211 c-21 -14 -23 -58 -3 -66 19 -7 66 39 59 59 -5 14 -38 19
-56 7z"/>
<path d="M12246 6211 c-3 -5 -3 -22 0 -39 5 -26 8 -28 29 -18 24 11 23 36 -1
36 -8 0 -11 6 -8 15 7 16 -11 21 -20 6z"/>
<path d="M446 6154 c-9 -23 19 -53 35 -37 15 15 7 47 -12 51 -9 2 -19 -5 -23
-14z"/>
<path d="M12287 6143 c-4 -3 -7 -24 -7 -45 0 -29 4 -38 17 -38 15 0 14 -2 -2
-20 -20 -22 -14 -50 10 -50 22 0 75 28 75 40 0 14 -18 21 -25 10 -14 -22 -25
-8 -25 33 0 43 -27 87 -43 70z"/>
<path d="M394 5169 c-3 -6 5 -23 19 -37 23 -23 29 -24 53 -14 l26 13 -26 24
c-28 26 -60 32 -72 14z"/>
<path d="M12466 4862 c-3 -5 0 -17 7 -26 12 -16 13 -16 14 3 2 22 -12 37 -21
23z"/>
<path d="M12440 4830 c0 -5 5 -10 11 -10 5 0 7 5 4 10 -3 6 -8 10 -11 10 -2 0
-4 -4 -4 -10z"/>
<path d="M12501 4771 c-1 -7 -7 -11 -15 -8 -22 9 -27 -20 -8 -44 16 -19 19
-19 31 -5 10 11 10 23 3 43 -6 15 -11 22 -11 14z"/>
<path d="M12383 4703 c-30 -12 -6 -63 30 -63 15 0 17 6 14 32 -3 32 -18 42
-44 31z"/>
<path d="M12427 4599 c-3 -13 -1 -19 6 -16 15 5 22 37 9 37 -5 0 -12 -9 -15
-21z"/>
<path d="M12412 4517 c-25 -11 -29 -25 -8 -33 22 -9 96 15 90 29 -5 15 -52 17
-82 4z"/>
<path d="M656 4143 c-6 -14 -5 -15 5 -6 7 7 10 15 7 18 -3 3 -9 -2 -12 -12z"/>
<path d="M420 3991 c0 -5 11 -11 25 -13 20 -4 23 -3 14 8 -13 16 -39 19 -39 5z"/>
<path d="M535 3959 c-19 -17 -35 -35 -35 -40 0 -5 19 -8 43 -8 104 3 137 31
72 62 -20 9 -38 17 -40 17 -2 0 -20 -14 -40 -31z"/>
<path d="M12405 3896 c-18 -13 -17 -15 20 -30 46 -20 67 -4 33 26 -25 22 -29
22 -53 4z"/>
<path d="M604 3868 c-6 -19 -7 -19 -16 -5 -5 10 -15 17 -22 17 -17 0 -48 -35
-39 -44 4 -4 1 -11 -6 -16 -17 -10 -6 -44 12 -37 6 2 11 9 10 15 -1 5 6 12 16
15 13 3 21 -2 24 -14 9 -34 67 -2 67 36 0 53 -32 76 -46 33z"/>
<path d="M12308 3835 c-15 -33 -3 -43 22 -20 21 19 28 7 8 -13 -15 -15 -3 -28
35 -37 34 -9 35 6 2 39 -14 14 -25 32 -25 41 0 24 -29 17 -42 -10z"/>
<path d="M12374 3845 c-13 -33 26 -47 62 -21 18 14 18 15 -9 25 -37 14 -47 14
-53 -4z"/>
<path d="M12475 3831 c-3 -10 -3 -26 1 -35 3 -9 2 -16 -4 -16 -5 0 -10 -6 -9
-12 1 -38 -5 -58 -17 -58 -14 0 -26 -21 -26 -47 0 -11 7 -14 28 -9 26 6 26 6
8 -9 -15 -11 -16 -15 -5 -15 21 0 51 37 36 44 -7 2 -5 5 4 5 26 1 31 29 9 51
-12 12 -15 22 -9 26 6 4 15 0 20 -7 12 -17 0 38 -13 64 -5 9 -6 22 -3 27 3 6
2 10 -4 10 -5 0 -12 -8 -16 -19z"/>
<path d="M560 3710 c0 -5 -6 -7 -14 -4 -17 6 -31 -12 -16 -21 12 -7 50 12 50
25 0 6 -4 10 -10 10 -5 0 -10 -4 -10 -10z"/>
<path d="M364 3643 c-2 -28 7 -30 23 -4 10 16 9 20 -5 23 -12 4 -17 -2 -18
-19z"/>
<path d="M641 3610 c-16 -9 -24 -40 -11 -40 12 0 32 28 28 39 -2 6 -9 7 -17 1z"/>
<path d="M610 3425 c0 -9 5 -15 11 -13 6 2 11 8 11 13 0 5 -5 11 -11 13 -6 2
-11 -4 -11 -13z"/>
<path d="M12505 2880 c3 -5 8 -10 11 -10 2 0 4 5 4 10 0 6 -5 10 -11 10 -5 0
-7 -4 -4 -10z"/>
<path d="M12521 2849 c-16 -29 -19 -45 -12 -52 23 -23 60 52 42 81 -6 10 -14
1 -30 -29z"/>
<path d="M12554 2804 c-12 -45 23 -60 50 -22 24 34 20 47 -14 46 -23 -1 -32
-7 -36 -24z"/>
<path d="M286 2735 c-3 -8 -1 -15 4 -15 5 0 11 -8 13 -17 3 -10 5 -3 6 15 1
33 -12 44 -23 17z"/>
<path d="M12501 2281 c-20 -13 -4 -51 22 -51 36 0 54 16 41 37 -13 21 -43 27
-63 14z"/>
<path d="M12572 2279 c2 -7 10 -15 17 -17 8 -3 12 1 9 9 -2 7 -10 15 -17 17
-8 3 -12 -1 -9 -9z"/>
<path d="M12513 2205 c-3 -9 -3 -18 -1 -21 9 -9 38 8 38 22 0 19 -29 18 -37
-1z"/>
<path d="M12610 2061 c0 -6 5 -13 10 -16 6 -3 10 1 10 9 0 9 -4 16 -10 16 -5
0 -10 -4 -10 -9z"/>
<path d="M12506 2011 c-4 -5 -2 -12 3 -15 5 -4 12 -2 15 3 4 5 2 12 -3 15 -5
4 -12 2 -15 -3z"/>
<path d="M386 1994 c-19 -18 -19 -20 -6 -45 16 -29 58 -25 72 7 11 22 10 28
-7 40 -24 18 -40 18 -59 -2z"/>
<path d="M340 1932 c0 -24 16 -38 56 -46 24 -5 33 -3 38 9 3 10 -1 18 -12 21
-15 5 -48 19 -74 32 -5 2 -8 -5 -8 -16z"/>
<path d="M12573 1923 c-16 -6 -17 -33 -3 -33 11 0 26 28 19 34 -2 2 -10 1 -16
-1z"/>
<path d="M12527 1904 c-3 -5 -2 -16 3 -24 4 -7 6 -20 3 -29 -5 -12 -3 -13 7
-4 9 8 10 19 3 39 -5 15 -12 24 -16 18z"/>
<path d="M305 1848 c-2 -7 -5 -25 -8 -39 -4 -26 -2 -26 47 -25 62 1 67 19 17
53 -39 26 -50 28 -56 11z"/>
<path d="M12500 1810 c0 -5 5 -10 10 -10 6 0 10 5 10 10 0 6 -4 10 -10 10 -5
0 -10 -4 -10 -10z"/>
<path d="M12576 1796 c-3 -13 -1 -38 5 -56 9 -24 9 -45 -1 -87 -13 -51 -12
-55 9 -76 22 -21 22 -22 36 -3 8 10 13 28 11 40 -2 12 1 27 7 34 7 9 7 16 -1
24 -7 7 -12 22 -12 35 0 13 -9 32 -20 43 -11 11 -20 23 -20 27 0 4 5 2 12 -5
7 -7 18 -12 26 -12 9 0 6 9 -10 29 -28 37 -34 38 -42 7z"/>
<path d="M390 1210 c0 -5 5 -10 10 -10 6 0 10 5 10 10 0 6 -4 10 -10 10 -5 0
-10 -4 -10 -10z"/>
<path d="M8565 950 c-3 -5 -1 -10 4 -10 6 0 11 5 11 10 0 6 -2 10 -4 10 -3 0
-8 -4 -11 -10z"/>
<path d="M603 939 c-6 -6 -9 -18 -6 -25 3 -8 1 -14 -5 -14 -5 0 -12 7 -16 15
-6 16 -36 21 -36 6 0 -5 7 -14 15 -21 22 -18 18 -30 -9 -30 -29 0 -43 -17 -27
-33 8 -8 19 -3 40 17 21 20 35 26 50 21 11 -3 29 -1 41 5 17 9 18 14 7 33 -20
37 -36 44 -54 26z"/>
<path d="M10364 924 c3 -8 0 -11 -10 -7 -18 7 -18 -16 1 -41 15 -20 15 -20 32
0 10 10 19 29 20 40 2 17 -3 22 -23 22 -17 0 -23 -5 -20 -14z"/>
<path d="M8390 900 c0 -5 7 -10 15 -10 8 0 15 5 15 10 0 6 -7 10 -15 10 -8 0
-15 -4 -15 -10z"/>
<path d="M12595 870 c-3 -5 -1 -10 4 -10 6 0 11 5 11 10 0 6 -2 10 -4 10 -3 0
-8 -4 -11 -10z"/>
<path d="M10478 847 c-22 -17 -28 -43 -15 -57 9 -10 9 -11 -3 -8 -9 3 -14 15
-12 32 2 20 -2 26 -18 26 -15 0 -20 -7 -20 -24 0 -33 52 -70 87 -63 14 3 41
-2 59 -9 40 -17 44 -23 9 -16 -30 5 -32 -7 -5 -36 24 -26 47 -28 78 -6 26 18
29 39 6 48 -9 3 -14 13 -10 21 6 16 -21 48 -35 40 -4 -3 -11 6 -15 20 -4 15
-13 25 -23 25 -10 0 -21 3 -25 7 -12 12 -43 13 -58 0z"/>
<path d="M460 825 c-13 -14 -21 -28 -17 -31 4 -4 9 1 13 10 6 14 8 15 18 2 9
-13 14 -13 28 -2 17 12 17 14 0 30 -17 15 -20 14 -42 -9z"/>
<path d="M7414 816 c-7 -18 4 -39 16 -31 5 3 11 1 15 -5 3 -5 11 -10 16 -10 6
0 7 5 4 10 -3 6 1 10 9 10 9 0 16 5 16 11 0 5 -4 8 -9 5 -5 -4 -11 -2 -13 3
-6 17 -48 23 -54 7z"/>
<path d="M8730 802 c0 -12 19 -26 26 -19 2 2 -2 10 -11 17 -9 8 -15 8 -15 2z"/>
<path d="M10775 730 c3 -5 8 -10 11 -10 2 0 4 5 4 10 0 6 -5 10 -11 10 -5 0
-7 -4 -4 -10z"/>
<path d="M7656 701 c-4 -5 -2 -12 3 -15 5 -4 12 -2 15 3 4 5 2 12 -3 15 -5 4
-12 2 -15 -3z"/>
<path d="M10820 695 c0 -16 27 -32 37 -21 7 7 -16 36 -28 36 -5 0 -9 -7 -9
-15z"/>
<path d="M10295 690 c3 -5 8 -10 11 -10 2 0 4 5 4 10 0 6 -5 10 -11 10 -5 0
-7 -4 -4 -10z"/>
<path d="M10244 679 c-4 -7 1 -16 10 -21 9 -5 16 -20 16 -33 0 -25 20 -36 20
-12 0 6 5 4 11 -5 10 -18 40 -24 52 -11 7 6 -21 34 -71 70 -21 16 -33 19 -38
12z"/>
<path d="M1128 663 c-35 -40 -25 -124 18 -159 19 -15 19 -15 -1 -6 -23 11 -54
10 -74 -2 -8 -6 -11 -19 -7 -41 4 -19 2 -36 -4 -40 -18 -11 -11 -28 10 -22 15
4 20 0 20 -14 0 -10 2 -19 4 -19 2 0 20 -7 39 -15 32 -13 37 -13 51 1 14 14
14 18 0 40 -16 24 -16 24 15 24 24 0 31 4 31 19 0 11 -4 22 -9 25 -11 7 -3 46
9 46 5 0 11 -6 13 -12 4 -10 8 -9 16 2 16 22 14 29 -13 41 -19 9 -29 7 -50 -6
-24 -16 -26 -16 -32 -1 -3 9 -1 23 5 30 7 8 11 20 10 28 -2 7 2 22 8 34 10 17
9 25 -3 42 -18 27 -36 28 -56 5z m-13 -243 c-3 -5 -12 -10 -18 -10 -7 0 -6 4
3 10 19 12 23 12 15 0z"/>
<path d="M7290 651 c0 -11 4 -22 9 -25 11 -7 23 22 15 35 -9 16 -24 10 -24
-10z"/>
<path d="M8844 656 c-4 -10 -2 -22 4 -28 8 -8 13 -7 18 6 4 10 2 22 -4 28 -8
8 -13 7 -18 -6z"/>
<path d="M10454 656 c-3 -9 -3 -27 0 -41 5 -18 2 -25 -8 -25 -19 0 -32 -40
-16 -50 6 -4 11 -10 11 -14 -3 -21 2 -26 23 -26 17 0 27 7 32 23 3 12 13 30
22 40 14 16 13 17 -9 17 -21 1 -19 3 14 21 43 23 44 45 1 42 -15 -1 -36 5 -46
14 -16 14 -18 14 -24 -1z"/>
<path d="M10822 643 c2 -10 10 -18 18 -18 22 0 18 29 -3 33 -14 3 -18 -1 -15
-15z"/>
<path d="M10345 640 c-3 -6 1 -13 10 -16 19 -8 30 0 20 15 -8 14 -22 14 -30 1z"/>
<path d="M8721 622 c-7 -13 -10 -31 -8 -40 3 -13 7 -10 16 12 15 37 9 59 -8
28z"/>
<path d="M390 607 c0 -8 9 -22 20 -32 18 -16 20 -16 20 -2 0 10 -4 17 -10 17
-5 0 -10 7 -10 15 0 8 -4 15 -10 15 -5 0 -10 -6 -10 -13z"/>
<path d="M6750 606 c0 -8 7 -17 16 -20 23 -9 34 -7 34 4 0 6 -7 10 -15 10 -8
0 -15 5 -15 10 0 6 -4 10 -10 10 -5 0 -10 -6 -10 -14z"/>
<path d="M9220 611 c0 -5 6 -14 14 -20 11 -9 16 -9 21 0 4 6 1 15 -6 20 -18
11 -29 11 -29 0z"/>
<path d="M7838 593 c7 -3 16 -2 19 1 4 3 -2 6 -13 5 -11 0 -14 -3 -6 -6z"/>
<path d="M8780 571 c-13 -25 4 -38 26 -20 12 10 20 7 44 -16 17 -16 33 -25 37
-21 11 10 -11 40 -33 45 -10 2 -23 9 -27 17 -11 20 -35 17 -47 -5z"/>
<path d="M460 570 c0 -17 41 -33 53 -21 8 8 6 11 -6 11 -9 0 -17 5 -17 10 0 6
-7 10 -15 10 -8 0 -15 -4 -15 -10z"/>
<path d="M1498 563 c-27 -32 -29 -42 -11 -63 12 -14 30 -20 56 -20 23 0 36 4
32 10 -3 6 0 10 8 10 8 0 20 7 27 15 10 13 9 15 -12 15 -13 0 -35 11 -48 25
-28 30 -32 30 -52 8z"/>
<path d="M1570 565 c7 -8 17 -15 22 -15 6 0 5 7 -2 15 -7 8 -17 15 -22 15 -6
0 -5 -7 2 -15z"/>
<path d="M9830 566 c0 -7 6 -19 14 -25 21 -17 30 4 10 23 -19 20 -24 20 -24 2z"/>
<path d="M3500 555 c0 -8 2 -15 4 -15 2 0 6 7 10 15 3 8 1 15 -4 15 -6 0 -10
-7 -10 -15z"/>
<path d="M6955 560 c-3 -5 1 -10 9 -10 9 0 16 5 16 10 0 6 -4 10 -9 10 -6 0
-13 -4 -16 -10z"/>
<path d="M9637 563 c-4 -3 -7 -11 -7 -17 0 -6 5 -5 12 2 6 6 9 14 7 17 -3 3
-9 2 -12 -2z"/>
<path d="M12093 563 c-7 -2 -13 -12 -13 -20 0 -10 5 -13 18 -8 9 4 25 10 35
12 9 3 17 9 17 14 0 10 -36 11 -57 2z"/>
<path d="M386 552 c-3 -6 -1 -14 5 -17 15 -10 25 3 12 16 -7 7 -13 7 -17 1z"/>
<path d="M10531 546 c-8 -10 -9 -16 -1 -21 5 -3 13 1 16 10 9 22 -1 29 -15 11z"/>
<path d="M7155 540 c-3 -5 1 -10 9 -10 9 0 16 5 16 10 0 6 -4 10 -9 10 -6 0
-13 -4 -16 -10z"/>
<path d="M7187 530 c-10 -10 -26 -16 -35 -14 -11 3 -21 -5 -29 -22 -11 -23
-10 -29 5 -40 9 -8 23 -11 30 -9 8 3 18 5 22 5 10 0 33 76 28 89 -2 5 -11 0
-21 -9z"/>
<path d="M2246 524 c-4 -11 -1 -14 11 -12 9 2 18 9 21 16 6 18 -25 15 -32 -4z"/>
<path d="M8812 528 c3 -7 12 -14 21 -16 12 -2 15 1 11 12 -7 19 -38 22 -32 4z"/>
<path d="M11200 529 c0 -5 5 -7 10 -4 6 3 10 8 10 11 0 2 -4 4 -10 4 -5 0 -10
-5 -10 -11z"/>
<path d="M10877 511 c4 -15 -3 -20 -32 -25 -27 -5 -35 -12 -33 -24 5 -28 69
-23 84 7 14 26 9 47 -11 54 -8 4 -11 -1 -8 -12z"/>
<path d="M11436 514 c-8 -21 -1 -28 19 -20 9 3 15 11 13 18 -7 19 -25 20 -32
2z"/>
<path d="M6870 504 c0 -8 5 -12 10 -9 6 4 8 11 5 16 -9 14 -15 11 -15 -7z"/>
<path d="M8970 510 c20 -13 33 -13 25 0 -3 6 -14 10 -23 10 -15 0 -15 -2 -2
-10z"/>
<path d="M10820 510 c0 -5 4 -10 9 -10 6 0 13 5 16 10 3 6 -1 10 -9 10 -9 0
-16 -4 -16 -10z"/>
<path d="M3060 499 c0 -5 -5 -8 -12 -6 -7 1 -12 -2 -13 -8 0 -5 -3 -14 -6 -20
-11 -17 10 -57 31 -62 11 -3 20 -8 20 -12 0 -3 16 -7 36 -9 21 -1 33 2 29 8
-3 5 3 10 13 10 24 0 35 35 20 60 -9 14 -22 17 -67 14 -48 -3 -52 -2 -28 7 34
13 35 27 2 27 -14 0 -25 -4 -25 -9z"/>
<path d="M9880 500 c0 -5 5 -10 10 -10 6 0 10 5 10 10 0 6 -4 10 -10 10 -5 0
-10 -4 -10 -10z"/>
<path d="M12270 496 c0 -9 5 -16 10 -16 6 0 10 4 10 9 0 6 -4 13 -10 16 -5 3
-10 -1 -10 -9z"/>
<path d="M3670 485 c-9 -10 -9 -15 -1 -15 6 0 11 6 11 13 0 8 4 7 10 -3 6 -9
10 -10 10 -3 0 19 -17 24 -30 8z"/>
<path d="M1710 475 c0 -10 7 -15 18 -13 21 4 19 22 -2 26 -10 2 -16 -3 -16
-13z"/>
<path d="M6052 474 c2 -11 11 -20 22 -22 13 -3 17 1 14 14 -2 11 -11 20 -22
22 -13 3 -17 -1 -14 -14z"/>
<path d="M6900 470 c0 -19 11 -26 23 -14 8 8 -3 34 -14 34 -5 0 -9 -9 -9 -20z"/>
<path d="M6980 471 c0 -9 30 -24 36 -18 2 1 -6 8 -16 15 -11 7 -20 8 -20 3z"/>
<path d="M8970 470 c0 -5 5 -10 11 -10 5 0 7 5 4 10 -3 6 -8 10 -11 10 -2 0
-4 -4 -4 -10z"/>
<path d="M11576 471 c-4 -7 -5 -15 -2 -18 9 -9 19 4 14 18 -4 11 -6 11 -12 0z"/>
<path d="M1525 460 c3 -5 15 -10 26 -10 11 0 17 5 14 10 -3 6 -15 10 -26 10
-11 0 -17 -4 -14 -10z"/>
<path d="M8940 450 c0 -5 7 -10 16 -10 8 0 12 5 9 10 -3 6 -10 10 -16 10 -5 0
-9 -4 -9 -10z"/>
<path d="M1780 439 c0 -5 5 -7 10 -4 6 3 10 8 10 11 0 2 -4 4 -10 4 -5 0 -10
-5 -10 -11z"/>
<path d="M7091 438 c-1 -20 14 -24 25 -6 4 6 3 8 -4 4 -5 -3 -13 0 -15 6 -3 8
-6 6 -6 -4z"/>
<path d="M8920 430 c0 -19 3 -21 12 -12 9 9 9 15 0 24 -9 9 -12 7 -12 -12z"/>
<path d="M8997 436 c-11 -8 -26 -12 -35 -9 -15 4 -15 3 -2 -6 8 -5 15 -18 15
-28 0 -14 7 -17 30 -15 33 3 57 28 53 52 -4 20 -38 23 -61 6z"/>
<path d="M650 395 c7 -8 10 -21 7 -28 -7 -18 46 -38 64 -25 10 7 11 11 2 14
-6 3 -24 16 -40 30 -31 26 -53 33 -33 9z"/>
<path d="M2720 390 c0 -23 26 -38 41 -23 14 14 0 43 -22 43 -12 0 -19 -7 -19
-20z"/>
<path d="M9280 400 c-13 -9 -13 -11 0 -20 9 -6 18 -6 24 0 15 15 -6 31 -24 20z"/>
<path d="M755 389 c-4 -6 -5 -13 -2 -16 7 -7 27 6 27 18 0 12 -17 12 -25 -2z"/>
<path d="M2686 393 c-14 -14 -5 -44 19 -59 31 -20 45 -11 22 14 -10 10 -17 24
-17 30 0 14 -15 24 -24 15z"/>
<path d="M3359 382 c-12 -20 -56 -20 -96 0 -18 9 -27 8 -43 -7 -11 -10 -20
-23 -20 -30 0 -18 34 -45 58 -45 12 0 23 -8 27 -20 3 -11 11 -20 16 -20 12 0
12 17 -1 25 -16 10 -12 19 15 31 22 11 24 10 22 -8 -3 -33 17 -31 51 4 34 34
40 56 20 76 -17 17 -36 15 -49 -6z"/>
<path d="M9133 385 c0 -8 4 -12 9 -9 5 3 6 10 3 15 -9 13 -12 11 -12 -6z"/>
<path d="M10790 391 c0 -6 5 -13 10 -16 6 -3 10 1 10 9 0 9 -4 16 -10 16 -5 0
-10 -4 -10 -9z"/>
<path d="M10752 378 c5 -15 28 -18 29 -3 0 6 -7 12 -17 13 -10 3 -15 -1 -12
-10z"/>
<path d="M2080 350 c0 -13 7 -20 18 -20 26 0 34 11 21 27 -17 20 -39 16 -39
-7z"/>
<path d="M989 349 c-11 -6 -11 -11 -1 -21 10 -10 15 -9 28 4 13 13 13 16 1 21
-7 3 -20 1 -28 -4z"/>
<path d="M956 321 c-4 -7 -5 -15 -2 -18 9 -9 19 4 14 18 -4 11 -6 11 -12 0z"/>
<path d="M3497 316 c-7 -18 1 -26 24 -26 13 0 17 -5 12 -17 -6 -16 -5 -16 10
-4 22 18 21 38 -2 51 -26 14 -38 13 -44 -4z"/>
<path d="M3407 313 c-4 -3 -7 -11 -7 -17 0 -6 5 -5 12 2 6 6 9 14 7 17 -3 3
-9 2 -12 -2z"/>
<path d="M1327 284 c-3 -3 1 -13 9 -21 8 -9 18 -12 21 -9 4 4 0 13 -8 21 -8 9
-18 13 -22 9z"/>
<path d="M5953 274 c-4 -10 0 -22 9 -28 8 -6 19 -20 25 -30 7 -13 22 -19 47
-20 20 -1 36 1 37 4 0 3 2 13 4 22 2 13 -6 19 -31 24 -20 4 -36 13 -39 25 -8
23 -43 25 -52 3z m77 -46 c0 -4 -4 -8 -9 -8 -6 0 -12 4 -15 8 -3 5 1 9 9 9 8
0 15 -4 15 -9z"/>
<path d="M3392 257 c-27 -29 -28 -37 -1 -37 14 0 19 5 16 14 -3 8 1 17 9 20
15 6 20 26 6 26 -5 0 -18 -10 -30 -23z"/>
<path d="M3555 261 c-6 -11 9 -23 19 -14 9 9 7 23 -3 23 -6 0 -12 -4 -16 -9z"/>
<path d="M2699 232 c13 -25 41 -29 41 -7 0 8 -4 15 -9 15 -5 0 -17 3 -26 7
-15 5 -16 3 -6 -15z"/>
<path d="M2668 223 c6 -2 12 -11 12 -19 0 -8 4 -14 9 -14 5 0 7 9 4 20 -3 11
-13 20 -22 19 -10 0 -11 -2 -3 -6z"/>
<path d="M3880 220 c0 -6 7 -10 15 -10 8 0 15 2 15 4 0 2 -7 6 -15 10 -8 3
-15 1 -15 -4z"/>
<path d="M3342 209 c2 -7 10 -15 17 -17 8 -3 12 1 9 9 -2 7 -10 15 -17 17 -8
3 -12 -1 -9 -9z"/>
<path d="M4010 204 c0 -17 22 -14 28 4 2 7 -3 12 -12 12 -9 0 -16 -7 -16 -16z"/>
<path d="M5149 193 c-1 -4 -1 -11 0 -15 0 -5 -4 -8 -10 -8 -5 0 -7 -4 -4 -10
3 -5 15 -10 26 -10 15 0 20 6 17 22 -3 21 -27 38 -29 21z"/>
<path d="M3286 151 c-4 -7 -5 -15 -2 -18 9 -9 19 4 14 18 -4 11 -6 11 -12 0z"/>
<path d="M3953 133 c-7 -3 -13 -13 -13 -23 0 -10 6 -22 13 -26 6 -4 9 -4 5 1
-4 4 -3 16 3 27 12 22 10 27 -8 21z"/>
</g>
</svg>
