<svg xmlns="http://www.w3.org/2000/svg" xmlns:xlink="http://www.w3.org/1999/xlink" fill-rule="evenodd" clip-rule="evenodd" image-rendering="optimizeQuality" shape-rendering="geometricPrecision" text-rendering="geometricPrecision" viewBox="0 0 16666.66 16666.66" id="TaxiInformationCenter"><defs><linearGradient id="r" x1="1842.64" x2="3236.6" y1="5221.1" y2="4259.06" gradientUnits="userSpaceOnUse"><stop offset="0" stop-color="#a9d692" class="stopColord6a092 svgShape"></stop><stop offset=".522" stop-color="#6aa670" class="stopColora6786a svgShape"></stop><stop offset="1" stop-color="#6aa670" class="stopColora6786a svgShape"></stop></linearGradient><linearGradient id="a" x1="2719.73" x2="2908.55" y1="4561.76" y2="4483.48" gradientUnits="userSpaceOnUse"><stop offset="0" stop-color="#b6c7ad" class="stopColorc7b1ad svgShape"></stop><stop offset=".537" stop-color="#99a394" class="stopColora39497 svgShape"></stop><stop offset=".788" stop-color="#768177" class="stopColor7e7681 svgShape"></stop><stop offset="1" stop-color="#768177" class="stopColor7e7681 svgShape"></stop></linearGradient><linearGradient id="i" x1="9230.6" x2="8692.4" y1="6911.86" y2="6253.86" gradientUnits="userSpaceOnUse"><stop offset="0" stop-color="#dae2ac" class="stopColore2b7ac svgShape"></stop><stop offset=".71" stop-color="#6d9f72" class="stopColor9f776d svgShape"></stop><stop offset="1" stop-color="#6d9f72" class="stopColor9f776d svgShape"></stop></linearGradient><linearGradient id="w" x1="2719.73" x2="2908.55" y1="4576.96" y2="4470.61" gradientUnits="userSpaceOnUse" xlink:href="#a"></linearGradient><linearGradient id="k" x1="9646.55" x2="9027.95" y1="8010.84" y2="7524.49" gradientUnits="userSpaceOnUse"><stop offset="0" stop-color="#2b2b2b" class="stopColor2b2b2b svgShape"></stop><stop offset=".639" stop-color="#1f211f" class="stopColor21201f svgShape"></stop><stop offset="1" stop-color="#1f211f" class="stopColor21201f svgShape"></stop></linearGradient><linearGradient id="x" x1="2458.4" x2="2601.56" y1="7512.68" y2="6362.42" gradientUnits="userSpaceOnUse"><stop offset="0" stop-color="#46d355" class="stopColor4686d3 svgShape"></stop><stop offset=".639" stop-color="#369940" class="stopColor366599 svgShape"></stop><stop offset="1" stop-color="#369940" class="stopColor366599 svgShape"></stop></linearGradient><linearGradient id="j" x1="9624.49" x2="9115.28" y1="8010.81" y2="7524.42" gradientUnits="userSpaceOnUse"><stop offset="0" stop-color="#1a3d10" class="stopColor11103d svgShape"></stop><stop offset=".639" stop-color="#132c0c" class="stopColor0d0c2c svgShape"></stop><stop offset="1" stop-color="#132c0c" class="stopColor0d0c2c svgShape"></stop></linearGradient><linearGradient id="b" x1="4162.79" x2="4330.6" y1="8895.56" y2="7546.87" gradientUnits="userSpaceOnUse"><stop offset="0" stop-color="#eef4cb" class="stopColorcbe4f4 svgShape"></stop><stop offset=".639" stop-color="#a4b19e" class="stopColor9eacb1 svgShape"></stop><stop offset="1" stop-color="#a4b19e" class="stopColor9eacb1 svgShape"></stop></linearGradient><linearGradient id="t" x1="2719.73" x2="2908.55" y1="4576.96" y2="4470.61" gradientUnits="userSpaceOnUse"><stop offset="0" stop-color="#f5f8e4" class="stopColorf8eae4 svgShape"></stop><stop offset=".537" stop-color="#d3d4cd" class="stopColord4cdcf svgShape"></stop><stop offset=".788" stop-color="#b2b9af" class="stopColorafafb9 svgShape"></stop><stop offset="1" stop-color="#b2b9af" class="stopColorafafb9 svgShape"></stop></linearGradient><linearGradient id="d" x1="11259.15" x2="11762.3" y1="10989.4" y2="7075.84" gradientUnits="userSpaceOnUse"><stop offset="0" stop-color="#95b783" class="stopColor8397b7 svgShape"></stop><stop offset=".102" stop-color="#95b783" class="stopColor8397b7 svgShape"></stop><stop offset=".91" stop-color="#436f36" class="stopColor36496f svgShape"></stop><stop offset="1" stop-color="#436f36" class="stopColor36496f svgShape"></stop></linearGradient><linearGradient id="y" x1="2458.4" x2="2601.56" y1="7512.86" y2="6362.29" gradientUnits="userSpaceOnUse" xlink:href="#b"></linearGradient><linearGradient id="c" x1="4162.85" x2="4330.63" y1="8895.4" y2="7546.96" gradientUnits="userSpaceOnUse"><stop offset="0" stop-color="#9ebc8f" class="stopColor8fa4bc svgShape"></stop><stop offset=".639" stop-color="#609966" class="stopColor6f7b88 svgShape"></stop><stop offset="1" stop-color="#609966" class="stopColor6f7b88 svgShape"></stop></linearGradient><linearGradient id="h" x1="9230.6" x2="8692.4" y1="6911.86" y2="6253.86" gradientUnits="userSpaceOnUse"><stop offset="0" stop-color="#ffffff" class="stopColorffffff svgShape"></stop><stop offset=".71" stop-color="#9dc08b" class="stopColorb3a6a1 svgShape"></stop><stop offset="1" stop-color="#9dc08b" class="stopColorb3a6a1 svgShape"></stop></linearGradient><linearGradient id="q" x1="1842.61" x2="3236.76" y1="5221.13" y2="4259.06" gradientUnits="userSpaceOnUse"><stop offset="0" stop-color="#ffffff" class="stopColorffffff svgShape"></stop><stop offset=".522" stop-color="#bdc6b9" class="stopColorc6c0b9 svgShape"></stop><stop offset="1" stop-color="#bdc6b9" class="stopColorc6c0b9 svgShape"></stop></linearGradient><linearGradient id="n" x1="4162.76" x2="4330.57" y1="8895.56" y2="7546.84" gradientUnits="userSpaceOnUse" xlink:href="#c"></linearGradient><linearGradient id="l" x1="9639.47" x2="9058.54" y1="8010.81" y2="7524.42" gradientUnits="userSpaceOnUse"><stop offset="0" stop-color="#51a03a" class="stopColora0593a svgShape"></stop><stop offset=".639" stop-color="#3d7c2a" class="stopColor7c432a svgShape"></stop><stop offset="1" stop-color="#3d7c2a" class="stopColor7c432a svgShape"></stop></linearGradient><linearGradient id="s" x1="2723.02" x2="2904.97" y1="4576.96" y2="4470.61" gradientUnits="userSpaceOnUse"><stop offset="0" stop-color="#ffffff" class="stopColorffffff svgShape"></stop><stop offset=".537" stop-color="#e7e9db" class="stopColordbe2e9 svgShape"></stop><stop offset=".788" stop-color="#cfd3b6" class="stopColorb6c4d3 svgShape"></stop><stop offset="1" stop-color="#cfd3b6" class="stopColorb6c4d3 svgShape"></stop></linearGradient><linearGradient id="u" x1="2719.73" x2="2908.55" y1="4576.96" y2="4470.61" gradientUnits="userSpaceOnUse"><stop offset="0" stop-color="#e6e8d8" class="stopColord8dfe8 svgShape"></stop><stop offset=".537" stop-color="#ced2b4" class="stopColorb4c2d2 svgShape"></stop><stop offset=".788" stop-color="#9ebc8f" class="stopColor8fa4bc svgShape"></stop><stop offset="1" stop-color="#9ebc8f" class="stopColor8fa4bc svgShape"></stop></linearGradient><linearGradient id="o" x1="4162.79" x2="4330.66" y1="8895.56" y2="7546.84" gradientUnits="userSpaceOnUse"><stop offset="0"></stop><stop offset=".639"></stop><stop offset="1"></stop></linearGradient><linearGradient id="e" x1="2458.4" x2="2601.56" y1="7512.86" y2="6362.29" gradientUnits="userSpaceOnUse"><stop offset="0" stop-color="#ffffff" class="stopColorffffff svgShape"></stop><stop offset=".639" stop-color="#bdc6b9" class="stopColorc6c0b9 svgShape"></stop><stop offset="1" stop-color="#bdc6b9" class="stopColorc6c0b9 svgShape"></stop></linearGradient><linearGradient id="g" x1="11259.15" x2="11762.3" y1="10989.4" y2="7075.84" gradientUnits="userSpaceOnUse" xlink:href="#d"></linearGradient><linearGradient id="v" x1="2719.73" x2="2908.52" y1="4576.96" y2="4470.61" gradientUnits="userSpaceOnUse" xlink:href="#a"></linearGradient><linearGradient id="m" x1="9608.21" x2="9020.04" y1="8010.81" y2="7524.42" gradientUnits="userSpaceOnUse"><stop offset="0" stop-color="#17dd2c" class="stopColor177fdd svgShape"></stop><stop offset=".639" stop-color="#32a012" class="stopColor1260a0 svgShape"></stop><stop offset="1" stop-color="#32a012" class="stopColor1260a0 svgShape"></stop></linearGradient><linearGradient id="p" x1="4162.79" x2="4330.6" y1="8895.56" y2="7546.87" gradientUnits="userSpaceOnUse" xlink:href="#e"></linearGradient><linearGradient id="f" x1="11259.15" x2="11762.3" y1="10989.4" y2="7075.84" gradientUnits="userSpaceOnUse"><stop offset="0" stop-color="#ffffff" class="stopColorffffff svgShape"></stop><stop offset=".102" stop-color="#ffffff" class="stopColorffffff svgShape"></stop><stop offset=".91" stop-color="#6a9b6f" class="stopColor6a7b9b svgShape"></stop><stop offset="1" stop-color="#6a9b6f" class="stopColor6a7b9b svgShape"></stop></linearGradient></defs><rect width="16666.66" height="16666.66" fill="none"></rect><polygon fill="#95b783" fill-rule="nonzero" points="7885.65 11155.97 15341.32 11155.97 15341.32 8047.05 7885.65 8047.05" class="color8397b7 svgShape"></polygon><polygon fill="url(#f)" points="7885.65 10823.47 7425.76 10823.47 7885.65 10177.86"></polygon><path fill="url(#d)" d="M12263.28 10823.47l-4377.63 0 0 -645.61 166.6 -233.8c246.1,-50.13 547.27,-120.43 806.01,-207.5 338.69,-37.39 632.78,-101.24 730.09,-209.38 46.84,-52.01 83.01,-139.3 102.84,-245.3l132.44 5.97c4.06,0.19 8.11,0.35 12.17,0.35 173.02,0 316.94,-164.91 323.94,-375.41l94.6 -510.14 5086.42 0 -2.91 845.67 -3074.57 1575.15z"></path><polygon fill="url(#g)" points="15793.32 8185.39 15793.32 8402.66 7623.46 8402.66 7623.46 7950.53 15199.76 7950.53"></polygon><polygon fill="#d6dbb9" fill-rule="nonzero" points="15793.32 8185.39 7623.46 8185.39 8003.14 7733.71 14876.14 7733.71" class="colorb9c9db svgShape"></polygon><polygon fill-rule="nonzero" points="10929.34 7295.6 10838.7 7917.74 11202.61 7917.74 11111.49 7308.66" fill="#000000" class="color000000 svgShape"></polygon><path fill-rule="nonzero" d="M12000.16 7315.42c0,29.28 -23.53,52.81 -52.84,52.81l-1853.81 0c-29.05,0 -52.93,-23.53 -52.93,-52.81l0 -1297.67c0,-29.6 23.88,-53.13 52.93,-53.13l1853.81 0c29.31,0 52.84,23.53 52.84,53.13l0 1297.67z" fill="#000000" class="color000000 svgShape"></path><path fill="#7df440" fill-rule="nonzero" d="M11833.78 7205.12c0,24.14 -19.57,43.96 -43.58,43.96l-1539.01 0c-24.68,0 -43.93,-19.83 -43.93,-43.96l0 -1077.3c0,-24.33 19.25,-43.9 43.93,-43.9l1539.01 0c24.01,0 43.58,19.57 43.58,43.9l0 1077.3z" class="color409af4 svgShape"></path><path fill="#20261e" fill-rule="nonzero" d="M11427.64 7907.84c0,27.39 -22.41,49.59 -49.78,49.59l-715.11 0c-27.27,0 -49.46,-22.19 -49.46,-49.59 0,-27.23 22.19,-49.45 49.46,-49.45l715.11 0c27.36,0 49.78,22.22 49.78,49.45z" class="color1e2326 svgShape"></path><path fill="#a9f980" fill-rule="nonzero" d="M11667.09 6335.38l-1265.2 0c-39.88,0 -72.54,-25.89 -72.54,-58.46 0,-32.5 32.66,-58.65 72.54,-58.65l1265.2 0c39.88,0 72.44,26.15 72.44,58.65 0,32.57 -32.57,58.46 -72.44,58.46z" class="color80c6f9 svgShape"></path><polygon fill="#9af76a" fill-rule="nonzero" points="10370.48 6727.67 11739.51 6727.67 11739.51 6438.34 10370.48 6438.34" class="color6ab7f7 svgShape"></polygon><path fill="#9af76a" fill-rule="nonzero" d="M11739.54 7101.06l-1262.87 0c-12.39,-90.67 -50.89,-171.32 -106.19,-229.53l0 -59.48 1369.06 0 0 289.01z" class="color6ab7f7 svgShape"></path><polygon fill-rule="nonzero" points="13559.35 7295.6 13468.45 7917.74 13832.71 7917.74 13741.37 7308.66" fill="#000000" class="color000000 svgShape"></polygon><path fill-rule="nonzero" d="M14630.26 7315.42c0,29.28 -23.44,52.81 -53.16,52.81l-1853.27 0c-29.5,0 -53.29,-23.53 -53.29,-52.81l0 -1297.67c0,-29.6 23.79,-53.13 53.29,-53.13l1853.27 0c29.72,0 53.16,23.53 53.16,53.13l0 1297.67z" fill="#000000" class="color000000 svgShape"></path><path fill="#7df440" fill-rule="nonzero" d="M14463.7 7205.12c0,24.14 -19.38,43.96 -43.71,43.96l-1539.04 0c-24.33,0 -43.93,-19.83 -43.93,-43.96l0 -1077.3c0,-24.33 19.6,-43.9 43.93,-43.9l1539.04 0c24.33,0 43.71,19.57 43.71,43.9l0 1077.3z" class="color409af4 svgShape"></path><path fill="#20261e" fill-rule="nonzero" d="M14057.51 7907.84c0,27.39 -22.19,49.59 -49.55,49.59l-714.89 0c-27.46,0 -50.13,-22.19 -50.13,-49.59 0,-27.23 22.67,-49.45 50.13,-49.45l714.89 0c27.36,0 49.55,22.22 49.55,49.45z" class="color1e2326 svgShape"></path><polygon fill="#97f766" fill-rule="nonzero" points="12977.37 7107.07 13555.93 7107.07 13555.93 6208.81 12977.37 6208.81" class="color66b4f7 svgShape"></polygon><polygon fill="#97f766" fill-rule="nonzero" points="13700.6 6597.28 14369.22 6597.28 14369.22 6208.81 13700.6 6208.81" class="color66b4f7 svgShape"></polygon><polygon fill="#97f766" fill-rule="nonzero" points="13700.6 7101.06 14369.22 7101.06 14369.22 6812.05 13700.6 6812.05" class="color66b4f7 svgShape"></polygon><polygon fill="#a6d190" fill-rule="nonzero" points="8300.13 7772.12 8559.77 7351.92 8687.25 7843 8427.53 8036.61 8323.79 7965.89" class="colord19d90 svgShape"></polygon><path fill="#1a3d10" fill-rule="nonzero" d="M10028.18 8768.39c-113.44,245.65 -226.17,698.86 -170.08,868.75 56.64,170.17 -453.24,37.83 -453.24,37.83l189.11 -925.26 434.22 18.68z" class="color11103d svgShape"></path><path fill="#266314" fill-rule="nonzero" d="M10053.41 9652.88c-6.19,-53.7 12.96,-100.67 -63.19,-110.25 -75.48,-9.32 -736.41,-122.76 -736.41,-122.76l-1520.33 141.79 264.23 236.2 2055.69 -144.98z" class="color142163 svgShape"></path><path fill="#40513b" fill-rule="nonzero" d="M9091.08 10744.32c0,20.82 -16.48,37.39 -37.29,37.39l-73.88 0c-20.4,0 -36.62,-16.57 -36.62,-37.39l0 -814.12c0,-20.5 16.22,-37.2 36.62,-37.2l73.88 0c20.81,0 37.29,16.7 37.29,37.2l0 814.12z" class="color2b2b2b svgShape"></path><path fill="#1a3d10" fill-rule="nonzero" d="M10053.41 9948.56c0,20.63 -18.36,37.39 -41.12,37.39l-2176.06 0c-22.19,0 -40.45,-16.76 -40.45,-37.39l0 -295.68c0,-20.94 18.26,-37.26 40.45,-37.26l2176.06 0c22.76,0 41.12,16.31 41.12,37.26l0 295.68z" class="color11103d svgShape"></path><polygon fill="#1a3d10" fill-rule="nonzero" points="8912.89 11355.45 9134.97 11355.45 9134.97 10546.08 8912.89 10546.08" class="color11103d svgShape"></polygon><path fill="#1a3d10" fill-rule="nonzero" d="M8906.69 11192.36c-76.28,62.52 -726.61,567.71 -726.61,603.5 0,35.92 0,295.24 0,295.24l124.45 0 0 -250.54 702.15 -415.73 0 -205.2 -100 -27.27z" class="color11103d svgShape"></path><path fill="#1a3d10" fill-rule="nonzero" d="M9079.58 11207.6c76.47,62.96 726.48,567.77 726.48,603.81 0,35.79 0,295.07 0,295.07l-124.14 0 0 -250.6 -702.5 -415.51 0 -205.81 100.16 -26.98z" class="color11103d svgShape"></path><polygon fill="#1a3d10" fill-rule="nonzero" points="9066.05 11200.28 10030.99 11468.22 10030.99 11736.51 9944.47 11736.51 9944.47 11584.25 9141.75 11405.58" class="color11103d svgShape"></polygon><polygon fill="#1a3d10" fill-rule="nonzero" points="8941.94 11174.45 7975.75 11442.74 7975.75 11710.97 8062.27 11710.97 8062.27 11558.89 8865.12 11379.91" class="color11103d svgShape"></polygon><path fill="#1a3d10" fill-rule="nonzero" d="M10159.73 8912.8c-7.09,215.32 -157.69,383.07 -336.1,375.05l-237.54 -10.57c-178.51,-8.46 -317.84,-188.88 -310.88,-404.39l63.76 -1738.17c7.22,-215.32 157.91,-383.04 336.45,-375.28l494.46 16.57c178.95,7.98 317.71,188.76 310.97,404.05l-321.13 1732.74z" class="color11103d svgShape"></path><path fill-rule="nonzero" d="M9433.92 8454.25c288.78,338.34 76.24,666.55 -1.47,926.06 -117.59,392.2 -1863.62,650.59 -1863.62,650.59l-661.73 -817.06 1712.47 -352.77 55.07 -493.09 759.27 86.27z" fill="#000000" class="color000000 svgShape"></path><path fill="#40513b" fill-rule="nonzero" d="M9588.35 9527.18c-273.94,304.33 -2107.03,257.98 -2107.03,257.98l-163.34 31.54c155.55,-130.01 1819.14,-460.72 1964.22,-670.67 77.84,-112.42 18.13,-519.69 -103.29,-683.76l314.14 -7.34c288.91,338.56 250.73,899.5 95.3,1072.26z" class="color2b2b2b svgShape"></path><path fill="#51a03a" fill-rule="nonzero" d="M9113.23 6086.59c155.1,93.36 518.47,650.11 496.28,1040.04 -22.41,390.16 -78.29,617.04 -12.74,660.26 -97.86,20.02 -207.02,42.69 -264.58,-240.57 -57.76,-282.72 -251.05,-507.2 -241.47,-736.06 10.25,-228.98 -49.46,-619.14 -49.46,-619.14l71.96 -104.53z" class="colora0593a svgShape"></path><path fill="#17dd2c" fill-rule="nonzero" d="M8714.07 6729.62c-68.04,53.93 -176.94,187.64 -176.94,187.64l93.48 249.17 148.56 -342.23 -65.1 -94.57z" class="color177fdd svgShape"></path><path fill="#dae2ac" fill-rule="nonzero" d="M9261.12 6824.76c-63.5,-118.83 -297.12,-368.64 -377.1,-964.47 -32.76,-246.13 -484.98,549.31 -484.98,549.31 145.62,59.93 301.97,217.27 277.07,418.32 -92.14,373.58 -190.89,694.87 -170.97,681.78 -53.06,219.95 803.3,-654.39 755.98,-684.94z" class="colore2b7ac svgShape"></path><path fill="url(#h)" d="M8608.07 6574.73l-15.29 -11.05c1.56,-1.02 3.13,-2.01 4.72,-3.03 3.61,4.63 7.09,9.23 10.57,14.08zm420.71 -161.74c-28.96,-69.03 -56.99,-147.79 -81.67,-237.76 9.58,-14.85 14.75,-23.44 14.75,-23.44 0,0 21.3,128.41 66.92,261.2z"></path><path fill="url(#i)" d="M8914.8 6796.83l-306.73 -222.09c-3.48,-4.85 -6.96,-9.45 -10.57,-14.08 159.48,-103.41 304.21,-315.16 349.61,-385.43 24.68,89.97 52.71,168.74 81.67,237.76 21.74,63.19 48.98,127.52 82.09,179.31 13.41,20.72 26.94,42.5 40,63.95 -116.25,56.8 -125.92,47.8 -215.7,121.87 -5.17,4.41 -12.16,10.76 -20.37,18.71z"></path><polygon fill-rule="nonzero" points="8365.27 6174.75 8365.01 6174.75" fill="#000000" class="color000000 svgShape"></polygon><path fill="#17dd2c" fill-rule="nonzero" d="M8935.17 6778.12c-60.47,50.25 -349.73,373.07 -349.73,373.07 -45.59,149.45 -129.76,299.7 -186.39,474.41 -33.33,102.84 -10.03,251.97 42.78,325.95 47.22,65.9 83.23,358.2 87.51,426.11 31.77,487.15 106,359.76 106,359.76 0,0 760.96,34.32 977.56,-91.67 254.88,-148.69 -127.52,-339.93 -99.23,-1133.33 7.09,-199.29 -1.47,-356.15 -106.1,-545.65 -52.39,-61.59 -157.91,-212.64 -254.46,-311.61 -118.36,57.98 -127.61,48.44 -217.94,122.96z" class="color177fdd svgShape"></path><path fill="#dae2ac" fill-rule="nonzero" d="M8128.94 6257.7c-2.01,-24.55 26.37,-39.33 45.75,-158.62 -4.05,-33.36 -5.97,-57.69 -6.89,-67.69 -28.26,-344.66 105.33,-573.61 379.36,-595.7 274.13,-22.67 492.42,90.67 520.93,435.75 27.71,344.53 -166.37,543.95 -319.53,640.56 -51.37,32.63 -311.9,114.78 -371.61,84.7 -80.07,-40.74 -130.07,-160.76 -161.27,-280.36 -28.16,-5.36 -82.79,-12.52 -86.75,-58.65z" class="colore2b7ac svgShape"></path><path fill="#51a03a" fill-rule="nonzero" d="M9113.71 5703.49c-126.4,-312.22 -540.66,-324.48 -832.83,-168.83 -65.9,35.47 -96.2,85.63 -110.37,126.72 -141.12,114.65 -26.82,157.82 51.47,179.44 79.76,21.87 224.13,69.6 209.06,196.9 28.03,-7.44 55.07,-49.56 57.76,-105.78 43.83,47.51 133.26,164.56 147.67,191.02 13.54,26.6 17.15,-70.4 67.59,-17.91 68.71,71.2 41.22,137.86 41.22,137.86l138.22 175.8c0,0 407.27,-278.06 230.23,-715.21z" class="colora0593a svgShape"></path><path fill="#7df440" fill-rule="nonzero" d="M8536.24 7264.4c155.78,-290.19 180.2,-267.39 227.74,-374.16 29.28,-65.58 34.13,40.52 34.13,40.52l-261.87 333.64z" class="color409af4 svgShape"></path><path fill="#17dd2c" fill-rule="nonzero" d="M8605.93 6989.79c8.24,41.09 -181,570.39 -181,570.39l164.11 -243.87 42.15 -300.15 -25.26 -26.37z" class="color177fdd svgShape"></path><polygon fill="#9ebc8f" fill-rule="nonzero" points="8844.85 8928.34 1781.69 8950.73 3026.07 7961.58 7996.02 7961.58" class="color8fa4bc svgShape"></polygon><polygon fill="#9ebc8f" fill-rule="nonzero" points="2370.89 12467.39 8143.66 12467.39 8143.66 9100.69 2370.89 9100.69" class="color8fa4bc svgShape"></polygon><polygon fill="#6a9b6f" fill-rule="nonzero" points="8848.01 9261.92 1813.46 9261.92 1803.66 8931.16 8848.01 8931.16" class="color6a7b9b svgShape"></polygon><path fill-rule="nonzero" d="M7145.31 8116.36l-0.09 0.57 0.09 -0.26 0 -0.32zm-956.26 387.44l0 0zm0 0l-0.54 0 0 -1.82 0.54 1.82zm661.28 178.09l0.45 0 -0.45 0.09 0 -0.09zm282.02 -536.93l0.26 0 -0.26 0zm61.62 28.51l2.36 -6.67 -2.36 6.67zm4.5 24.2l-0.77 -0.8 0.77 0.8zm13.31 13.98l-0.13 -0.7 0.13 0.7zm-14.78 11.46l0 0zm9.58 0l5.2 -8.65 -5.2 8.65zm3.06 7.19l0 -0.29 0 0.29zm-51.15 11.27l0 -0.09 0 0.09zm19.83 24.91l-0.13 -0.1 0.13 0.1zm89.07 22.44l2.36 -4.76 -0.32 0 -2.04 4.76zm-6.74 4.24l-1.24 0 1.24 0zm3.26 0.45l7.54 -0.45 -6.86 0 -0.67 0.45zm28.48 16.89l2.49 -5.49 -2.49 5.49zm52.71 86.07l0 0zm-495.13 306.57c-24.87,-3.13 -39.4,-29.24 -48.66,-31.42l0 0.35 -1.69 0c-9.9,0.67 -35.57,22.32 -57.66,23.76l-4.28 -0.13c-28.83,-11.72 -21.3,-43.9 -26.12,-37.48l-0.67 -0.13c-11.27,-0.67 -43.93,14.56 -64.88,15.23l-7.89 -1.02 -13.31 -19.51 2.81 -19.83 -1.12 0c-12.71,-0.54 -44.48,9.93 -63.98,10.15l-10.69 -1.95 -11.02 -16.09 6.86 -23.31 -0.13 0c-13.41,-0.32 -44.25,8.02 -62.74,8.37l-11.59 -2.04 -10.38 -15.65 7.57 -23.98c-13.63,0.22 -44.06,8.87 -62.42,9.1l-10.7 -1.66 -11.49 -17.46 4.98 -21.96c-13.63,0 -44.83,12.26 -63.54,12.7l-7.31 -0.7c-16.57,-6.07 -16.35,-21.39 -17.46,-28.67l-2.36 -9.48c-9.48,-1.56 -37.16,21.3 -59.93,22.54l-1.25 0c-25,-3.96 -42.78,-30.91 -49.9,-29.08l-2.81 -21.17 2.27 -0.35c26.47,3.03 44.03,31.99 51.12,29.53l0.57 0c8.68,1.56 36.72,-21.3 59.93,-22.76l5.4 0.35c28.38,14.53 16.12,45.94 20.05,38.38l1.69 0c11.59,0.48 44.38,-12.29 64.75,-12.58l9.58 1.44 11.14 16.92 -5.4 22.63 0.67 0c12.83,0.22 44.06,-8.91 63.19,-9.22l11.72 2.23 10.02 15.33 -7.89 24.17c13.41,0 43.93,-8.17 62.52,-8.43l11.62 2.01 10.57 15.8 -6.86 23.63c13.28,-0.09 44.73,-10.12 63.63,-10.34l10.02 1.59 12.3 19.48 -2.81 19.51c12.04,0.51 44.7,-14.65 64.88,-15.1l6.51 1.02c26.91,13.95 20.28,43.68 23.08,36.81l1.47 0c8.69,1.47 35.7,-22.22 59.35,-24.11l1.92 0.67c25.57,4.95 40.45,34 46.74,30.65l0.35 0.09c4.85,3.61 12.74,-25.8 38.86,-33.43l4.41 -0.35c23.08,0.64 54.15,20.94 66.79,19.93l1.66 0c5.75,5.84 -2.68,-24.56 25.7,-38.73l8.2 -1.06c21.3,0.48 54.09,13.22 67.81,12.77l3.39 -0.13 -1.12 -1.25 -1.69 -18.71c-0.67,-5.72 2.14,-17.69 12.61,-20.94l13.41 -2.14c19.12,0.13 48.08,6.99 62.74,6.86l2.14 0c-2.49,-5.14 -8.91,-15.55 -9.8,-26.43l8.78 -15.01 22.51 -3.83c15.1,0 34.13,2.01 47.44,2.01l6.29 0c-6.07,-5.72 -16.76,-16.19 -19.16,-29.25l5.3 -10.82c16.44,-10.34 50.93,-7.09 70.3,-8.91l-5.97 -4.25c-8.69,-7.79 -19.28,-9.16 -22.41,-25.7l2.81 -7.66c13.28,-12.71 42.33,-13.28 61.27,-16.22l-8.56 -3.39c-12.84,-8.46 -26.37,-5.17 -32.12,-25.35l1.92 -6.74 2.59 -2.24c7.57,-10.19 17.24,-8.24 28.96,-13.76l14.53 -4.5 -11.05 -2.46c-17.21,-5.33 -31.42,-2.97 -42.56,-17.81l-1.34 -5.52c4.6,-16.44 20.5,-23.43 31.42,-28.93l-19.16 -1.37c-18.68,-1.21 -34.67,0.57 -47.63,-7.66l-4.28 -9 7.09 -12.17 -19.26 1.47 -2.94 0 -7.09 -2.59 -5.52 -9.13 7.89 -12.52 -16.57 1.15 -3.48 -0.48 -9.58 -3.57 -3.38 -8.24 8.24 -12.52 -12.39 0.38 -4.85 -0.29 -10.12 -3.93 -3.61 -7.98 8.56 -12.93 -4.95 0 -6.77 -0.16 -14.08 -5.84 -1.92 -5.84 9.8 -13.28 -3.83 -0.22 -6.19 -0.48 -11.27 -4.63 0 -0.09 -3.26 -7.44 11.15 -13.82 -0.45 -0.09 -5.84 -1.15 -7.66 -2.81 0 0.32 -5.65 -6.99 -0.22 -0.64 -0.45 -1.95c5.4,-13.85 8.78,-11.84 12.39,-12.48l-6.77 -5.07 -3.8 -3.04 -0.13 0 -0.8 -1.05 -0.89 -1.66 -1.47 -4.98 3.16 -7.66 2.14 -1.54 7.54 -3.06 5.43 -1.02 8.11 -1.08c-4.85,-1.25 -9.57,-4.63 -14.3,-14.88l8.43 -10.92 3.07 10.92 10.12 0 -7.67 0 3.96 -7.09 0.09 -0.57 3.96 1.89 16.89 4.41c13.28,6.77 25.35,-0.57 33.68,21.3l-0.7 4.28 -9 7.76 6.77 10.5 0.1 15.42 4.18 4.5 7.31 20.15 2.36 1.92 11.27 19.28 3.61 2.81 13.28 16.89 -17.34 0 -0.44 0.77 6.99 -0.22 4.37 0.22 11.85 4.18 2.81 2.94 0 4.72 -6.32 11.27 12.16 -0.89 2.81 0 10.25 3.48 22.89 19.25 -4.19 0 5.75 2.4 14.08 10.25 -12.96 6.07 -17.78 12.7 -0.8 0.45 14.53 0.48c19.03,2.24 33.46,-1.72 47.99,11.5l1.82 6.64c-5.2,18.13 -24.01,24.9 -34.7,30.74l20.72 4.92c15.9,6.35 29.41,1.37 38.98,17.27l0.54 -0.22 0.22 0.22 1.02 2.81 0 0.64 0.45 0.39 1.47 12.16 -6.87 0c-6.99,7.98 -16.35,6.29 -26.59,11.59l-21.04 6.77 10.92 4.5c12.61,8.56 26.02,5.3 32.09,25.67l-1.12 5.43c-14.88,17.69 -49.68,14.72 -67.69,18.9l7.31 5.52c8.46,7.44 18.81,9.13 22.19,25.54l-3.7 9.61c-13.41,10.25 -28.16,6.77 -46.74,8.78 -11.27,-0.13 -22.54,0.32 -29.41,1.47 5.75,5.49 17.02,16.31 19.25,29.37l-7.09 12.87 -23.53 4.25c-15.1,0 -34.04,-1.88 -47.44,-1.88l-9.23 0.44c2.59,5.04 9.23,15.2 10.15,26.69l-10.25 15.9 -14.3 2.24c-19.06,-0.35 -48.21,-6.87 -62.74,-6.64l-5.65 0.45 0.89 0.99 1.82 18.71c0.32,6.29 -2.71,18.26 -14.52,21.74l-9.13 1.02c-21.39,-0.57 -53.96,-13.5 -67.81,-12.93l-2.68 0.42c-5.97,-5.85 2.46,26.15 -28.51,39.3l-4.37 0.13c-23.66,-0.8 -55.2,-20.85 -66.79,-20.28l-1.02 0.42c-6.64,-3.32 -13.19,27.3 -42.59,33.14l0 0.45z" fill="#000000" class="color000000 svgShape"></path><path fill="url(#j)" d="M9615.04 8648.12c-0.45,-1.06 -0.89,-1.95 -1.37,-2.81 6.54,-3.89 12.74,-7.79 18.36,-11.62 -5.62,5.39 -11.37,10.25 -16.98,14.43zm76.15 -80.78c52.94,-125.06 -125.7,-316.41 -169.54,-769.74 2.81,0 5.65,-0.13 8.46,-0.35 6.42,54.72 14.98,111.39 26.12,168.39 53.86,274.93 193.16,559.82 141.6,595.07 -1.37,0.86 -3.61,3.26 -6.64,6.64z"></path><path fill="url(#k)" d="M9586.21 8660.69c-1.02,0 -1.92,0 -2.94,-0.09 10.82,-4.76 20.59,-9.67 29.63,-14.85 0.22,-0.16 0.54,-0.35 0.77,-0.45 0.48,0.86 0.93,1.76 1.37,2.81 -10.38,7.73 -20.4,12.58 -28.83,12.58z"></path><path fill="url(#l)" d="M9521.65 7797.6c-7.22,-73.88 -10.7,-154.53 -9.13,-243.16 2.14,70.37 7.12,153.86 17.59,242.81 -2.81,0.22 -5.65,0.35 -8.46,0.35zm-7.66 -449.73c-0.1,-0.45 -0.1,-0.8 -0.1,-1.24l0.1 0.32c0,0 0,0.22 0,0.93z"></path><path fill="url(#m)" d="M9583.27 8660.6c-1.12,-0.19 -2.36,-0.48 -3.48,-0.93 -207.59,-74.87 -712.75,-552.25 -712.75,-552.25l151.14 -1068.52 386.68 39.08 109.03 268.64c0,0.44 0,0.8 0.1,1.24 -0.54,9.1 -4.95,89.75 -1.47,206.57 -1.57,88.63 1.91,169.28 9.13,243.16 43.84,453.34 222.47,644.68 169.54,769.74 -11.85,13.5 -35.28,43.8 -59.16,66.35 -5.62,3.83 -11.81,7.72 -18.36,11.62 -0.22,0.1 -0.54,0.29 -0.77,0.45 -9.04,5.17 -18.8,10.09 -29.63,14.85z"></path><path fill="#40513b" fill-rule="nonzero" d="M6904.96 8440.75c-16.22,-5.11 -61.27,-4.89 -53.16,-65.55l113.76 -468.12c3.93,-34.8 30.62,-44.7 42.46,-44.13l546.38 41.63c12.07,0.57 29.41,8.81 54.41,42.02l238.21 352.64c64.11,85.63 98.43,149.61 94.63,158.04l-1036.69 -16.54z" class="color2b2b2b svgShape"></path><path fill-rule="nonzero" d="M6984.46 8320.12c-3.57-.8-5.4-13.89-3.35-27.52l52.94-367.07 5.52-8.2 3.13 10.7-48.76 370.46c-1.59 12.83-5.52 21.84-8.68 22l-.8-.35zM7054.09 8322.58c-3.83-1.91-5.87-14.08-4.5-27.81l28.48-366.85 4.63-7.89 3.26 10.7-23.98 370.23c-.48 12.71-3.39 22.03-6.67 22.03l-1.21-.42zM7123.47 8324.59c-3.74-1.59-6.64-13.73-6.32-27.01l3.96-367.2 4.37-7.73 3.83 11.11.57 370.01c.45 12.07-2.14 21.52-5.52 21.39l-.89-.57zM7192.27 8327.75c-4.05-2.01-7.44-15.2-8.33-27.78l-20.05-367.01 4.06-7.79 4.85 10.63 24.42 369.88c.93 12.26-.89 21.71-4.5 21.71l-.45.35zM7260.54 8330.15c-4.28-1.82-8.78-14.56-10.03-28.16l-43.48-366.18 3.29-8.11 5.84 11.37 47.76 368.63c1.57 12.87.22 22.44-2.58 22.32l-.8.13zM7327.78 8331.94c-4.15-1.91-9.58-14.62-11.5-25.89l-66.57-367.78 2.26-8.11 6.55 11.5 71.61 369.21c2.14 12.52 1.69 21.17-1.57 21.3l-.8-.22zM7394.57 8333.98c-3.83-1.37-10.25-14.66-13.28-26.28l-89.43-366.85 2.14-7.95 6.86 10.89 94.73 368.96c3.16 12.42 3.03 21.8 0 21.8l-1.02-.57zM7460.79 8335.86c-4.15-1.6-10.92-13.5-14.85-26.12l-111.74-365.95 1.02-8.2 7.76 10.6 117.14 369.53c4.18 12.04 4.63 20.94 1.6 20.72l-.93-.57zM7526.14 8338.39c-3.83-1.37-11.4-14.46-15.9-26.5l-134.35-365.83.77-8.33 8.24 11.49 139.56 368.38c4.5 11.4 5.84 21.07 2.46 21.07l-.76-.29zM7591.02 8340.4c-3.73-1.72-12.51-13.98-17.69-26.63l-155.91-365.48.57-7.98 8.69 10.92 161.39 368.32c5.62 12.48 7.22 21.17 3.7 20.85l-.77 0zM7655.42 8342.51c-4.28-1.44-12.71-13.51-19.03-26.56l-177.52-365.06.13-7.89 8.69 10.63 183.23 367.71c6.32 12.42 8.91 21.52 5.3 21.39l-.8-.22zM7719.53 8344.55c-4.06-.89-13.63-12.74-20.4-26.6l-199.36-364.32-.44-8.24 10.37 11.5 204.53 367.13c7.09 12.65 9.45 21.46 6.19 21.46l-.89-.93zM7783.03 8347.49c-4.28-2.01-14.62-13.73-22.41-27.3l-219.73-364.23-1.15-8.33 10.83 11.37 225.5 367.07c7.31 11.94 10.57 21.49 7.76 21.49l-.8-.06z" fill="#000000" class="color000000 svgShape"></path><path fill-rule="nonzero" d="M6988.77 8329.45c-2.72-.45-6.1-10.92-6.9-22.76-.67-11.33 1.02-20.94 4.18-21.26l768.94 33.2c2.72.13 10.47 10.25 17.24 21.78 6.74 11.69 19.83 22.03 17.11 22.16l-9.57-.57-791.01-32.54zM7007 8234.05c-8.33-.13-6.06-8.2-6.99-18.83l3.51-17.75 712.4 33.11 12.74 21.62 3.35.22c6.1 10.7 8.68 15.58 5.65 15.2l-730.67-33.56z" fill="#000000" class="color000000 svgShape"></path><polygon fill-rule="nonzero" points="7010.48 8143.15 7009.04 8126.83 7014.53 8128.27 7017.7 8113.77 7659.95 8145.38 7673.78 8160.71 7677.96 8176.16 7021.3 8144.07" fill="#000000" class="color000000 svgShape"></polygon><polygon fill-rule="nonzero" points="7018.94 8067.35 7013.99 8057.1 7016.68 8047.21 7620.07 8079.04 7629.65 8089.51 7632.56 8099.34" fill="#000000" class="color000000 svgShape"></polygon><polygon fill-rule="nonzero" points="7030.98 8010.94 7026.38 8004.3 7028.39 7998.1 7587.51 8032.2 7595.75 8038.75 7597.76 8045.03" fill="#000000" class="color000000 svgShape"></polygon><polygon fill-rule="nonzero" points="7036.85 7963.59 7032.8 7957.43 7034.58 7951.68 7560.59 7984.02 7568.61 7990.44 7570.4 7996.28" fill="#000000" class="color000000 svgShape"></polygon><polygon fill-rule="nonzero" points="7038.32 7927.48 7033.82 7921.16 7035.83 7915.51 7540.89 7946.82 7548.43 7953.24 7549.68 7958.99" fill="#000000" class="color000000 svgShape"></polygon><path fill-rule="nonzero" d="M7955.38 8474.4c3.04,17.78 -7.53,27.17 -23.31,25.93l-1043.91 -4.25c-15.77,-1.5 -28.03,-21.1 -28.03,-38.79l-8.69 -56.67c0,-17.46 12.96,-30.52 28.16,-29.24l1039.05 62.04c15.78,1.59 31.1,16.8 34.13,34.51l2.58 6.48z" fill="#000000" class="color000000 svgShape"></path><polygon fill="#7df440" fill-rule="nonzero" points="8734.47 7048.45 8673.88 6864.54 9095.8 6532.72 9180.6 6665.86" class="color409af4 svgShape"></polygon><path fill="#a6d190" fill-rule="nonzero" d="M8437.01 8003.37c-148.78,-155.87 -51.94,-354.24 -51.94,-354.24 -66,85.06 -94.38,141.7 -151.02,151.15 -50.93,8.46 -400.44,66.35 -581.21,85.76 -82.57,-17.82 -183.01,-53.86 -222.67,-48.56 -54.53,6.99 -118.48,3.96 -152.52,26.79 -34,23.02 -134.93,91.6 -109.58,116.95 10.79,10.35 22.96,-1.59 63.5,-30.97 25.03,-17.5 45.08,-30.68 78.64,-29.41 37.29,1.31 121.3,14.08 121.3,14.08 0,0 -135.72,30.72 -122.89,59 5.75,13.19 17.02,16.22 77.61,8.56 60.73,-8.11 102.04,46.3 168.83,37.65 43.48,-5.84 59.04,-7.92 104.98,-16.03 150.16,14.43 873.7,80.87 776.96,-20.72z" class="colord19d90 svgShape"></path><path fill="#40513b" fill-rule="nonzero" d="M6461.39 8480.5l0.26 -28.61c751.48,13.86 1262.7,328.09 1496.54,326.78 12.52,0 24.01,-1.15 35.38,-2.97 432.39,-71.55 661.6,-625.91 679.52,-961.98 19.38,-343.41 161.52,-590.21 198.56,-860.45 5.65,-41.31 7.89,-72.99 7.89,-100.44 0.7,-135.63 -64.97,-157.66 -92.81,-614.41l27.84 -1.79c28.16,454.78 92.37,467.42 93.36,616.2 0,28.96 -2.36,62.2 -8.11,104.28 -38.85,277.68 -179.98,522.08 -198.78,858.28 -19.73,344.08 -247.25,908.98 -703.08,988.35 -12.48,2.17 -25.67,3.16 -39.75,3.16 -251.49,-1.66 -751.16,-312.98 -1496.8,-326.39z" class="color2b2b2b svgShape"></path><path fill="#dae2ac" fill-rule="nonzero" d="M9078.56 7250.1c-41.8,32.76 -208.36,449.03 -416.4,682.23 -27.71,30.75 -669.84,191.7 -681.78,184.93 -52.14,-28.26 -82.56,-49.2 -114.87,-57.12 -43.84,-10.79 -168.61,-18.01 -178.19,-10.79 -37.74,26.79 66.22,29.28 66.22,29.28 0,0 -148.69,4.06 -185.85,7.06 -45.05,3.42 -83.78,37.99 -102.58,49.9 -25.7,17.15 -28.06,45.98 10.47,34.13 38.41,-11.46 64.88,-43.23 97.31,-38.06 26.56,4.18 75.57,-2.36 75.57,-2.36 0,0 -61.17,-2.11 -99.23,9.04 -38.41,11.59 -100.48,54.28 -100.48,54.28 0,0 -21.07,39.78 5.3,34.58 61.37,-12.26 126.15,-41.57 126.15,-41.57l87.17 -16.09c0,0 -206.32,38.41 -199.68,74.78 3.61,17.69 0.89,13.85 72.06,-9 89.91,-29.06 74.81,-1.82 74.81,-1.82 0,0 -64.2,13.22 -97.98,22.44 -26.02,6.87 -43.26,21.62 8.87,27.46 52.39,6.32 74.58,-7.22 130.78,8.14 174.93,46.87 345.56,12.58 345.56,12.58 522.62,41.92 820.54,-41.31 917.09,-117.78 96.3,-77.04 633.32,-786.41 495.36,-1035.8 -43.83,-78.38 -294.88,66.67 -335.65,99.58z" class="colore2b7ac svgShape"></path><path fill="#7df440" fill-rule="nonzero" d="M9343.59 6966.77c158.23,99.58 118.04,602.38 14.3,942.31 -267.84,-124.68 -563.84,-249.13 -563.84,-249.13 0,0 147.98,-408.07 188.21,-526.55 61.59,-181.48 227.17,-250.95 361.33,-166.63z" class="color409af4 svgShape"></path><path fill="#9ebc8f" fill-rule="nonzero" d="M8719.6 6073.86c0,-0.48 35.7,-139.56 51.37,-336.01 1.34,-18.33 2.01,-35.25 2.01,-51.47 -0.45,-220.75 -87.39,-291.91 -130.56,-296.44l47.22 -2.33c78.93,13.06 127.94,91.63 128.38,298.78 0,17.24 -0.44,35.82 -1.79,54.98 -16.12,200.25 -52.49,342.84 -52.71,343.64l-43.93 -11.14z" class="color8fa4bc svgShape"></path><path fill-rule="nonzero" d="M8720.27 6017.85l38.06 -266.5c0,0 63.54,2.17 68.04,14.08 5.07,11.52 -39.88,283.17 -39.88,283.17l-66.22 -30.75z" fill="#000000" class="color000000 svgShape"></path><path fill-rule="nonzero" d="M8901.93 6152.49c0,88.54 -71.74,160.5 -160.37,160.5 -88.89,0 -160.72,-71.96 -160.72,-160.5 0,-88.67 71.84,-160.5 160.72,-160.5 88.63,0 160.37,71.83 160.37,160.5z" fill="#000000" class="color000000 svgShape"></path><path fill="#40513b" fill-rule="nonzero" d="M8845.3 6152.49c0,57.41 -46.17,103.92 -103.73,103.92 -57.44,0 -103.86,-46.52 -103.86,-103.92 0,-57.34 46.43,-103.89 103.86,-103.89 57.56,0 103.73,46.55 103.73,103.89z" class="color2b2b2b svgShape"></path><path fill="#40513b" fill-rule="nonzero" d="M8186.85 6471.2c0.32,0 134.13,-20.78 239.11,-49.17 100.13,-25.93 142.14,-101.88 272.57,-189.17l15.33 23.56c-125.03,82.79 -167.94,162.29 -280.36,193.07 -107.21,28.64 -241.82,49.87 -242.04,49.87l-4.6 -28.16z" class="color2b2b2b svgShape"></path><path fill="#40513b" fill-rule="nonzero" d="M8245.76 6488.88c0,35.37 -31.77,63.66 -70.85,63.66 -39.11,0 -70.97,-28.29 -70.97,-63.66 0,-35.22 31.86,-63.76 70.97,-63.76 39.08,0 70.85,28.54 70.85,63.76z" class="color2b2b2b svgShape"></path><path fill="#114900" fill-rule="nonzero" d="M13322.12 6795.16c252.55,22.96 219.22,65.2 261.68,312.64 73.21,432.2 176.24,1198.78 110.24,1278.09 -65.9,79.18 -482.39,57.76 -574.89,64.3 -25.99,-105.46 106,-850.36 106,-963 0,-65.55 96.96,-692.03 96.96,-692.03z" class="color001c49 svgShape"></path><path fill-rule="nonzero" d="M4227.44 8415.94c-50.48,52.97 -97.09,58.68 -223.37,48.08l-350.18 -9.55c-86.72,-20.37 -75.8,-76.24 10.7,-119.85l248.59 -137.04c46.07,-23.34 98.11,-36.3 158.36,-26.72l267.62 -5.39c64.78,10.12 93.61,13.86 61.49,66.92l-173.21 183.55z" fill="#000000" class="color000000 svgShape"></path><path fill="#40513b" fill-rule="nonzero" d="M4048.68 6498.56c-78.38,0 -137.51,11.17 -171.87,119.85 -124.71,392.68 -290.73,1003.46 -264.71,1065.97 47.09,112.77 309.54,630.99 309.54,630.99 0,0 71.61,14.2 165.45,-7.67l-313.34 -633.57 352.87 -727.69 -77.94 -447.88z" class="color2b2b2b svgShape"></path><path fill="#7df440" fill-rule="nonzero" d="M3958.9 5667.45c45.98,3.04 427.35,75.26 427.35,75.26l262.41 1929.87 -358.48 109.35 -331.28 -2114.47z" class="color409af4 svgShape"></path><path fill="#40513b" fill-rule="nonzero" d="M4382.87 5702.19l-492.55 -57.92c-12.83,-1.72 -19.61,13.63 -14.66,34.57l20.94 88.54c-4.37,-18.71 1.6,-32.92 12.96,-31.89l442.77 43.93c9.58,1.02 20.05,15.45 23.88,31.86l231.44 1768.82c3.51,15.2 -0.32,29.98 -8.43,33.02l-362.57 106.41c-10.03,3.48 -21.07,-7.57 -25.13,-24.33l26.82 112.74c4.28,18.49 16.67,29.95 27.58,25.83l398.94 -131.76c9.04,-3.19 13.09,-19.41 9.48,-36.08l-265.03 -1928.65c-4.19,-18.1 -15.9,-33.87 -26.47,-35.09z" class="color2b2b2b svgShape"></path><path fill-rule="nonzero" d="M4286.67 7773.49c5.97,27.71 -3.16,55.3 -29.85,61.94l-94.95 13.5c-26.69,6.58 -53.7,-11.05 -60.25,-38.41l-319.98 -2065.33c-5.87,-27.49 10.57,-55.65 37.39,-61.94l71.3 -38.98c26.69,-6.55 68.48,14.08 74.1,41.67l322.24 2087.55z" fill="#000000" class="color000000 svgShape"></path><path fill="#ffffff" fill-rule="nonzero" d="M4512.94 8015.44l-496.92 0 85.37 724.24 -1.24 1.31c0,12.04 75.13,22 167.72,22 89.2,0 161.62,-9.39 166.02,-20.5l1.56 0 77.49 -727.05z" class="colorffffff svgShape"></path><path fill="#eef4cb" fill-rule="nonzero" d="M4267.87 8762.99c-92.59,0 -167.72,-9.96 -167.72,-22l-84.13 -725.55 248.68 0 3.16 747.55z" class="colorcbe4f4 svgShape"></path><path fill="#dae2aa" fill-rule="nonzero" d="M4512.94 8018.69c0,17.91 -111.62,32.57 -249,32.57 -137.54,0 -248.94,-14.65 -248.94,-32.57 0,-18.01 111.39,-32.66 248.94,-32.66 137.39,0 249,14.65 249,32.66z" class="coloraac9e2 svgShape"></path><path fill="url(#n)" d="M4078.63 8596.87c-9.32,0 -13.28,-70.75 -14.85,-128.89 1.69,0 3.26,0.13 4.72,0.13l14.63 125.7c-2.24,1.91 -3.8,3.06 -4.5,3.06z"></path><path fill="url(#o)" d="M4068.51 8468.11c-1.47,0 -3.03,-0.13 -4.72,-0.13 -0.44,-18.49 -0.8,-35.6 -0.93,-48.88l5.65 49.01z"></path><path fill="url(#c)" d="M4504.16 8097.08l0.57 -4.6 3.16 0.19c0,0 -1.37,1.47 -3.74,4.41z"></path><path fill="url(#p)" d="M4266.3 8383.72l-1.24 -306.7 239.68 15.45 -0.57 4.6c-21.39,26.15 -133.91,162.89 -237.86,286.65z"></path><path fill="url(#b)" d="M4083.13 8593.81l-14.63 -125.7 -5.65 -49.01c-0.22,-16.09 -0.22,-26.47 -0.22,-26.47l-41.22 -331.28 243.64 15.68 1.24 306.7c-84.38,100.51 -163.12,192.4 -183.17,210.09z"></path><path fill="#ffffff" fill-rule="nonzero" d="M4003.63 7973.32l-23.79 111.37c7.66,15.23 130.01,29.66 287.44,29.66 158.94,0 282.4,-14.88 287.67,-30.46l0.8 -3.04 -13.06 -107.53 -539.06 0z" class="colorffffff svgShape"></path><path fill="#eef4cb" fill-rule="nonzero" d="M4542.7 7973.32c0,15.61 -120.52,28.48 -269.21,28.48 -148.43,0 -269.18,-12.87 -269.18,-28.48 0,-15.8 120.75,-28.51 269.18,-28.51 148.69,0 269.21,12.71 269.21,28.51z" class="colorcbe4f4 svgShape"></path><path fill="#e2eab2" fill-rule="nonzero" d="M3381.2 8234.62c19.73,149.45 84.83,429.11 54.76,479.14 -30.2,49.81 -88.76,137.74 -118.61,157.56 -29.72,20.4 -164.11,109.61 -184.03,79.85 -20.5,-30.05 134.13,-139.88 134.13,-139.88 0,0 23.88,-137.83 23.88,-167.72 0,-29.53 -64.97,-154.43 -64.97,-84.7 0,70.27 4.72,214.91 -19.73,214.91 -53.96,0 -65.1,-130.2 -75.22,-190.13 -9.8,-59.7 -69.83,-149.68 0,-329.11l10.12 -99.9 199.48 -69.7 40.2 149.68z" class="coloreac4b2 svgShape"></path><path fill="#212121" fill-rule="nonzero" d="M3127 5422.18c105.65,18.55 181.57,398.04 206.35,832.32 24.91,434.31 96.87,762.65 122,911.79 25,148.56 130.3,1023.5 130.3,1098.09 -223.46,99.33 -424.96,99.2 -512.15,74.3 -86.72,-24.62 -176.72,-1792.96 -102.04,-2078.52 74.23,-285.43 155.55,-837.97 155.55,-837.97z" class="color212121 svgShape"></path><path fill-rule="nonzero" d="M2320.09 12444.76c-14.17-201.62 57.79-453.94 93.71-770.67 6.87-59.67 433.77-72.95 433.77-72.95-19.83 243.96-6.19 588.39 308.04 865.11 180.01 158.49 146.42 260.75-64.75 295.33-259.64 42.37-417.65-28.83-554.61-180.1-8.24-8.88-204.66 25.7-216.15-136.72zM1285.44 12514.9c2.71-85.82 82.57-193.61 90.1-583.32 1.12-53.61 435.78-63.31 435.78-63.31-17.46 216.69 77.71 393.31 287.8 653.65 107.79 134.22 285.75 327.52 100.92 374.57-266.85 68.26-585.36-17.75-648.1-172.98l-57.44-14.2c0 0-216.15 28.86-209.06-194.41z" fill="#000000" class="color000000 svgShape"></path><path fill="#a9d692" fill-rule="nonzero" d="M2642.68 4869c-34.93,118.52 -63.31,289.36 -23.21,395.49 39.88,106.19 -131,251.84 -195.2,247.09 -64.43,-4.72 -430.48,-342.84 -430.48,-342.84 0,0 64.33,-403.95 79.09,-498.07 14.97,-94.06 569.81,198.33 569.81,198.33z" class="colord6a092 svgShape"></path><path fill="url(#q)" d="M2053.37 4793.97c1.47,-9.67 2.84,-19 4.18,-28.03 0.09,0.16 0.09,0.35 0.22,0.57 -1.47,8.91 -2.94,18.01 -4.41,27.46z"></path><path fill="url(#r)" d="M2316.93 5301.18c-95.05,-55.97 -271.77,-180.2 -304.88,-237.54 13.73,-87.16 29.15,-188.53 41.31,-269.66 1.47,-9.45 2.94,-18.55 4.41,-27.46 48.75,160.85 167.49,297.34 377.1,327.1 20.85,3.04 44.7,5.62 68.13,5.62 18.26,0 36.27,-1.59 52.17,-5.84 -61.62,58.69 -150.48,137.61 -238.24,207.79z"></path><path fill-rule="nonzero" d="M2930.67 7352.84c104.53,274.13 157.02,336.96 157.02,793.56 0,456.89 -123.78,1462.45 -155.2,1804.87 -9.26,101.94 -104.66,2131.59 -104.66,2268.87 0,136.65 -517.55,148.91 -601.23,80.65 -83.46,-68.83 -10.92,-1986.5 -10.92,-2214.37 0,-228.85 -16.89,-1226.47 -16.89,-1409.06 0,-182.78 62.74,-1278.83 62.74,-1278.83l669.14 -45.69z" fill="#000000" class="color000000 svgShape"></path><path fill="#212121" fill-rule="nonzero" d="M2831.35 7331.96c31.54,150.83 81.99,1692.33 32.66,2635.44l-108.14 2344c0,0 345.01,-32.56 324.29,-75.6 -21.3,-43.33 0.67,-1933.89 32.22,-2138.45 31.29,-204.98 79.4,-2066.16 56.06,-2245.09 -44.25,-341.76 -120.27,-594.62 -120.27,-594.62l-216.82 74.33z" class="color212121 svgShape"></path><path fill-rule="nonzero" d="M1524 7251.67c-156.67,258.58 -158.04,2668.64 -189.24,2894.68 -31.64,226.59 -122.98,2071.11 -122.98,2168.2 188.44,226.27 663.74,110.12 757.68,45.28 -48.76,33.56 21.17,-589.96 101.37,-1213.63 81.99,-638.39 174.8,-1276.82 162.09,-1210.03l197 -1752.95 102.84 -902.08 -1008.76 -29.47z" fill="#000000" class="color000000 svgShape"></path><path fill="#46d355" fill-rule="nonzero" d="M2667.46 5143.13c-29.06,36.3 -227.74,186.78 -315.03,177.68 -86.97,-9.16 33.78,151.78 33.78,151.78l67.46 1964.13 618.37 23.4 39.53 -2007.54 -444.11 -309.44z" class="color4686d3 svgShape"></path><path fill="#2bb239" fill-rule="nonzero" d="M2009.56 5058.94c29.06,62.67 264.68,222.76 342.87,261.87 133.36,66 135.02,2109.36 135.02,2109.36l-870.86 23.47 -244.76 -2162.94c0,0 613.97,-205.9 637.72,-231.76z" class="color2b55b2 svgShape"></path><polygon fill="#114900" fill-rule="nonzero" points="2396.68 5416.62 2490.61 5414.61 2455.94 5248.05 2329.66 5251.72 2273.03 5321.32" class="color001c49 svgShape"></polygon><polygon fill="#114900" fill-rule="nonzero" points="2398.95 5368.99 2392.05 6979.55 2627.71 7125.27 2496.36 5365.61" class="color001c49 svgShape"></polygon><polygon fill="#277f0d" fill-rule="nonzero" points="2531.16 5408.39 2478.13 5409.89 2451.31 5248.33 2568.1 5212 2625.09 5280.68" class="color0d3b7f svgShape"></polygon><polygon fill="#277f0d" fill-rule="nonzero" points="2545.15 5356.03 2788.76 6960.61 2624.33 7118.4 2482.95 5357.85" class="color0d3b7f svgShape"></polygon><polygon fill="#2bb239" fill-rule="nonzero" points="2548.98 5231.12 2730.07 5435.24 2712.51 5146.87 2602.36 5074.33" class="color2b55b2 svgShape"></polygon><polygon fill="#46d355" fill-rule="nonzero" points="2350.29 5253.89 2205.31 5490.41 1956.05 5207.82 1872.94 5085.82 2033.54 4906.39" class="color4686d3 svgShape"></polygon><path fill="#6a9b6f" fill-rule="nonzero" d="M1875.98 4246.48c-9.13,86.52 49.33,405.03 45.72,421.7 -3.83,16.89 61.62,64.33 45.08,56.99 -16.57,-7.09 30.84,87.07 61.5,61.14 30.74,-25.54 100.8,-414.45 88.41,-437.89 -12.83,-23.76 -240.7,-101.94 -240.7,-101.94z" class="color6a7b9b svgShape"></path><path fill="#e2eab2" fill-rule="nonzero" d="M2014.96 4300.56c11.84,-239.58 23.88,-430.29 393,-417.33 58.91,2.14 225.7,13.19 268.42,16 83.78,17.24 103.16,93.26 143.48,204.66 60.15,174.48 -14.43,577.16 -18.04,587.98 -18.36,70.24 -51.69,229.53 -84.45,284.6 -33.46,63.19 -84.26,86.94 -141.92,109.35 -36.94,18.81 -95.97,14.34 -140.57,7.79 -259.06,-36.75 -379.37,-236.55 -400.18,-443.89 -47.99,-25.8 -82.79,-109.48 -84.93,-182.46 -3.16,-95.53 -16.67,-218.96 65.2,-166.7z" class="coloreac4b2 svgShape"></path><path fill="#9ebc8f" fill-rule="nonzero" d="M2537.71 3901.37l-7.67 -21.61c0,0 -92.69,-62.17 -74.55,-61.18 2.81,0.13 7.54,-1.91 13.38,-3.83 15.77,-5.39 39.33,-10.79 52.94,25.93l12.96 -6.77 115.8 9.67c0,0 91.57,-1.34 125.57,28.74 34.26,29.41 41.8,93.39 41.8,93.39 0,0 -9.35,34.89 -12.52,-15.01 48.88,18.36 100.16,89.11 93.39,173.68 2.72,25.45 4.37,53.74 4.5,84.48 1.91,126.82 -36.94,261.65 -36.94,261.65l-40.32 20.85c0,0 59,-299.51 -49.91,-393.54 -108.68,-93.96 -358.29,-40.1 -358.29,-40.1l119.86 -156.35z" class="color8fa4bc svgShape"></path><path fill="#6a9b6f" fill-rule="nonzero" d="M1917.99 4027.64c42.91,-71.96 62.39,-150.25 120.75,-172.34 32.54,-56.99 233.04,-121.96 227.39,-76.02l28.74 4.63c5.84,-85.15 267.97,-6.1 283.17,50.67l-27.04 -30.3c38.63,-20.37 89.33,-28.16 140.23,56.77 65.45,72.99 53.06,91.12 23.78,178.76 -43.17,130.43 -269.66,40.65 -379.94,38.19 -99.9,-2.94 -96.52,82.34 -154.53,217.49 -22.63,52.94 -57.21,194.72 -57.21,194.72l-89.08 -69.03 -50.93 -34.48 -95.5 9.93c0,0 -56.09,-225.38 30.17,-368.99z" class="color6a7b9b svgShape"></path><path fill="#255e14" fill-rule="nonzero" d="M2703.83 4471.85c-12.61,-23.88 -73.66,-50.67 -111.4,-16.76 -4.15,38.41 2.27,31.19 2.27,31.19 0,0 53.39,-42.02 104.76,4.95 4.37,-19.38 4.37,-19.38 4.37,-19.38z" class="color5e2014 svgShape"></path><path fill="#edf1d6" fill-rule="nonzero" d="M2448.6 4637.3c-63.06,0 -131.67,-25.99 -143.26,-126.91 -8.69,-84.48 7.22,-71.07 91.25,-80.78 12.17,-1.34 25.09,-1.91 38.28,-1.91 77.49,0 163.98,20.27 163.98,20.27 0,0.7 -0.1,1.47 -0.22,2.14 -2.14,1.47 -4.15,3.16 -6.2,4.98 -3.03,27.94 -0.44,31.77 1.25,31.77 0.44,0 0.89,-0.35 1.02,-0.48 -6.42,59.83 -16.44,124.36 -71.42,140.13 -20.37,5.84 -46.96,10.79 -74.68,10.79z" class="colorf6e4dc svgShape"></path><path fill="#a0b695" fill-rule="nonzero" d="M2593.68 4486.86c-1.69,0 -4.28,-3.83 -1.25,-31.77 2.04,-1.82 4.06,-3.51 6.2,-4.98 -1.47,11.62 -2.59,23.78 -3.93,36.27 -0.13,0.13 -0.57,0.48 -1.02,0.48z" class="colorb69a95 svgShape"></path><path fill="#255e14" fill-rule="nonzero" d="M2598.85 4447.97c-21.71,-15.74 -190.8,-70.27 -302.2,0l8.69 62.42 25 -4.63c0,0 -8.33,-41 27.36,-56.77 15.55,-6.64 225.41,-7.31 237,37.29l4.15 -38.31z" class="color5e2014 svgShape"></path><path fill="url(#s)" d="M2811.39 4646.09c-0.32,0 -0.67,0 -0.99,0 6.29,-37.13 14.75,-93.58 21.49,-157.66l34.48 -17.91c0,0 3.26,-11.14 7.76,-29.85 56.54,5.87 67.24,1.82 60.82,78.74 -10.02,100.7 -69.03,126.69 -123.56,126.69z"></path><path fill="url(#t)" d="M2810.4 4646.09c-23.44,-0.07 -45.98,-5.05 -63.31,-10.83 -51.24,-17.08 -56.99,-91.63 -62.74,-155.39 4.95,3.03 10.02,6.74 15.1,11.37 4.37,-19.38 4.37,-19.38 4.37,-19.38 -2.91,-5.62 -8.65,-11.46 -16.09,-16.54 18.45,-4.63 79.63,-18.81 135.28,-18.81 3.83,0 7.66,0.09 11.37,0.22 -4.06,33.2 -8.33,54.63 -8.33,54.63l5.84 -2.94c-6.74,64.08 -15.2,120.53 -21.49,157.66z"></path><path fill="url(#u)" d="M2826.05 4491.36c0,0 4.28,-21.42 8.33,-54.63 7.44,0.22 14.75,0.76 21.74,1.79 6.42,0.8 12.39,1.47 18.01,2.14 -4.5,18.71 -7.76,29.85 -7.76,29.85l-34.48 17.91 -5.84 2.94z"></path><path fill="url(#v)" d="M2699.45 4491.24c-5.08,-4.63 -10.15,-8.33 -15.1,-11.37 -0.8,-7.89 -1.47,-15.68 -2.27,-23.08 0,0 1.92,-0.57 5.65,-1.47 7.44,5.07 13.19,10.92 16.09,16.54 0,0 0,0 -4.37,19.38z"></path><path fill="url(#a)" d="M2682.08 4456.79c19.06,-16 164.46,-70.08 259.86,0l-6.99 62.61 -21.74 -4.73c0,0 7.34,-41.22 -23.76,-56.99 -13.41,-6.64 -193.74,-6.99 -203.76,37.74l-3.61 -38.63z"></path><polygon fill="url(#w)" points="2315.14 4461.74 2014.41 4407.2 2050.46 4455.54 2317.37 4513.33"></polygon><path fill="#212121" fill-rule="nonzero" d="M1834.53 5129.63c-74.45,18.93 -556.08,136.39 -618.24,272.92 0,0 171.32,844.1 96.87,955.72 37.17,372.12 -130.43,1786.89 -167.49,1935.93 -37.29,148.88 1070.69,267.94 1200.89,193.64 130.2,-74.36 130.2,-1457.81 74.36,-2015.94 0,0 -313.37,-672.33 -425.09,-895.41 -111.62,-223.4 -161.3,-446.86 -161.3,-446.86z" class="color212121 svgShape"></path><path fill-rule="nonzero" d="M1960.9 4971.3c-37.52 28.03-83.24 110.25-194.63 156.54-18.58 46.26-32.89 229.56-4.95 248.24 27.94 18.58 167.37 18.58 149.01 55.87-18.81 37.29-121.07 46.61-167.72 83.81-46.52 37.26 624.22 860.7 670.51 981.8-92.81-251.37-314.01-914.37-381.95-1111.91-111.62-325.85-70.27-414.36-70.27-414.36zM2787.06 5334.41l-38.63-161.17c291.18 199.26 341.05 128.6 463.85 346.35 0 0 36.94 664.96-.22 875.93 0 422.02 89.52 1524.74 89.52 1996.08 0 134.07-271.54 145.75-420.45 96.23 0 0-108.01-2296.62-70.63-2594.41l-23.43-559.02z" fill="#000000" class="color000000 svgShape"></path><path fill="#212121" fill-rule="nonzero" d="M2804.43 6492.08c9-49.91 2.14-759.27-22.63-982.38 0 0-34.83-252.2-69.28-362.83 0 0 120.97 75.89 176.85 94.28 55.74 18.93 97.76 223.56 97.76 223.56 0 0-107.12 46.65-107.12 83.46 0 37.42 158.36 121.32 149.13 167.75-11.4 56.06-254.11 932.38-224.71 776.16zM2373.92 8771.74c-37.16 372.41-133.91 1721.06-223.33 2861.16-16.12 203.98-33.56 737.4-33.56 737.4 0 0-252.87 29.59-327.32 11.27-74.33-18.83 584.21-3609.83 584.21-3609.83z" class="color212121 svgShape"></path><path fill="#ffffff" fill-rule="nonzero" d="M2799.58 6754.52l-509.44 0 87.39 742 -1.22 1.15c0,12.26 76.92,22.38 171.87,22.38 91.34,0 165.57,-9.23 170.17,-21.17l1.69 0 79.53 -744.36z" class="colorffffff svgShape"></path><path fill="#eef4cb" fill-rule="nonzero" d="M2548.18 7520.05c-94.95,0 -171.87,-10.12 -171.87,-22.38l-86.17 -743.15 254.56 0 3.48 765.53z" class="colorcbe4f4 svgShape"></path><path fill="#dae2aa" fill-rule="nonzero" d="M2799.58 6757.11c0,18.58 -114.33,33.56 -255.23,33.56 -141.12,0 -255.67,-14.98 -255.67,-33.56 0,-18.61 114.56,-33.14 255.67,-33.14 140.9,0 255.23,14.53 255.23,33.14z" class="coloraac9e2 svgShape"></path><path fill="url(#x)" d="M2790.67 6837.28l0.45 -4.28 3.06 0.13c0,0 -1.24,1.47 -3.51,4.15z"></path><path fill="url(#e)" d="M2546.36 7127.79l-1.34 -310.53 246.1 15.74 -0.45 4.28c-22.06,26.69 -146.2,176.3 -244.31,290.51z"></path><path fill="url(#y)" d="M2422.93 7262.58c-16,0 -84.8,-122 -84.8,-122l-42.37 -339.36 249.26 16.03 1.34 310.53c-64.3,75 -117.59,134.8 -123.43,134.8z"></path><path fill="#ffffff" fill-rule="nonzero" d="M2277.31 6711.03l-24.33 113.89c7.63,15.65 133.23,30.59 294.53,30.59 163.19,0 289.46,-15.2 294.85,-31.16l0.93 -3.19 -13.54 -110.12 -552.44 0z" class="colorffffff svgShape"></path><path fill="#eef4cb" fill-rule="nonzero" d="M2829.75 6711.03c0,15.96 -123.33,29.19 -275.95,29.19 -152.26,0 -275.82,-13.22 -275.82,-29.19 0,-16.09 123.56,-29.18 275.82,-29.18 152.61,0 275.95,13.09 275.95,29.18z" class="colorcbe4f4 svgShape"></path><path fill="#e2eab2" fill-rule="nonzero" d="M2066.68 7019.2c65.1,-21.87 173.21,-111.56 239.01,-115 20.28,-1.25 4.28,84.03 51.56,91.47 47.76,7.41 138.66,35.66 176.5,33.78 37.52,-1.95 171.23,-51.69 194.41,-41.22 57.22,26.91 -56.32,77.81 -112.29,89.75 -55.87,12.07 -149.13,35.5 -149.13,35.5 0,0 289.93,-106.35 318.41,-92.62 61.97,29.53 -109.93,150.7 -175.35,154.08 -66.12,3.04 -147.57,42.24 -147.57,42.24 0,0 296.35,-138.21 326.3,-102.23 15.55,19.13 -11.81,47.93 -48.44,75 -33.33,25.44 -57.21,31.54 -79.18,45.62 -45.5,30.72 -167.49,36.62 -167.49,36.62 0,0 294.43,-134.64 270.11,-57.92 -24.91,76.56 -211.07,120.85 -304.11,144.19 -92.81,23.18 -416.18,-73.56 -464.04,-90.26 -48.12,-16.54 71.29,-249 71.29,-249z" class="coloreac4b2 svgShape"></path><path fill-rule="nonzero" d="M1322.06 5318.99c-93.26,-65.26 -306.6,226.37 -362.48,580.28 -55.65,353.44 -136.39,1087.94 -44.7,1363.09 82.44,247.09 826.38,418 1168.01,320.81 43.8,-12.52 -17.02,-475.47 5.97,-607.23 -279.46,-87.07 -570.04,-89.88 -584.02,-189.11 -11.59,-80.11 -67.46,-503.28 -67.46,-782.26 0,-279.56 -115.32,-685.58 -115.32,-685.58z" fill="#000000" class="color000000 svgShape"></path><polygon fill="#f2f4e6" fill-rule="nonzero" points="4521.31 8378.9 6128 8371.81 6342.23 8038.87 5010.79 8034.56" class="colore6eef4 svgShape"></polygon><polygon fill="#f8f9f2" fill-rule="nonzero" points="4840.84 8503.23 6353.15 8514.63 6500.05 8233.25 5147.41 8229.77" class="colorf2f5f9 svgShape"></polygon><polygon fill="#e4f296" fill-rule="nonzero" points="6190.86 8436.34 6297.98 8282.7 6305.29 8284.97 6197.96 8438.45" class="color96c3f2 svgShape"></polygon><polygon fill="#e4f296" fill-rule="nonzero" points="6110.79 8435.86 6219.47 8282.8 6226.79 8284.97 6118.1 8438.26" class="color96c3f2 svgShape"></polygon><polygon fill="#e4f296" fill-rule="nonzero" points="6030.81 8435.45 6141.54 8282.7 6148.62 8284.97 6038.03 8438.16" class="color96c3f2 svgShape"></polygon><polygon fill="#e4f296" fill-rule="nonzero" points="5951.06 8435.35 6063.57 8282.7 6070.79 8284.97 5958.37 8437.68" class="color96c3f2 svgShape"></polygon><polygon fill="#e4f296" fill-rule="nonzero" points="5871.88 8435 5985.99 8282.7 5993.07 8284.97 5878.96 8437.58" class="color96c3f2 svgShape"></polygon><polygon fill="#e4f296" fill-rule="nonzero" points="5793.05 8435 5908.94 8282.8 5915.46 8285.1 5799.91 8437.23" class="color96c3f2 svgShape"></polygon><polygon fill="#e4f296" fill-rule="nonzero" points="5714.19 8434.65 5831.55 8282.7 5838.32 8285.1 5720.96 8436.92" class="color96c3f2 svgShape"></polygon><polygon fill="#e4f296" fill-rule="nonzero" points="5635.45 8434.42 5754.64 8282.7 5761.38 8284.97 5642.89 8436.92" class="color96c3f2 svgShape"></polygon><polygon fill="#e4f296" fill-rule="nonzero" points="5557.64 8433.98 5677.69 8282.7 5684.56 8284.97 5564.38 8436.79" class="color96c3f2 svgShape"></polygon><polygon fill="#e4f296" fill-rule="nonzero" points="5479.68 8433.85 5601.67 8282.8 5608.44 8284.97 5486.45 8436.44" class="color96c3f2 svgShape"></polygon><polygon fill="#e4f296" fill-rule="nonzero" points="5401.97 8433.4 5525.43 8282.7 5531.72 8284.97 5408.61 8436.34" class="color96c3f2 svgShape"></polygon><polygon fill="#e4f296" fill-rule="nonzero" points="5324.38 8433.18 5449.38 8282.8 5456.05 8284.97 5331.12 8435.86" class="color96c3f2 svgShape"></polygon><polygon fill="#e4f296" fill-rule="nonzero" points="5246.99 8433.18 5373.93 8282.7 5380.22 8284.97 5253.41 8435.45" class="color96c3f2 svgShape"></polygon><polygon fill="#e4f296" fill-rule="nonzero" points="5170.07 8432.83 5298.36 8282.7 5304.65 8284.97 5176.49 8435.35" class="color96c3f2 svgShape"></polygon><path fill-rule="nonzero" d="M7114.34 8824.36c0,20.88 -26.92,37.77 -60.25,37.77l-900.74 0c-33.24,0 -60.15,-16.89 -60.15,-37.77l0 -25.32c0,-20.94 26.91,-37.99 60.15,-37.99l900.74 0c33.33,0 60.25,17.05 60.25,37.99l0 25.32z" fill="#000000" class="color000000 svgShape"></path><path fill-rule="nonzero" d="M7165.14 8811.97c-5.07,16.09 -21.84,25.25 -38.28,20.05l-1109.33 -329.81c-16.35,-4.92 -25.7,-21.81 -21.2,-37.93l6.55 -21.71c4.85,-15.9 21.84,-24.9 38.28,-20.08l1109.01 330.13c16.54,4.76 26.12,21.74 21.07,37.74l-6.1 21.62z" fill="#000000" class="color000000 svgShape"></path><polygon fill-rule="nonzero" points="6122.03 8524.21 6122.03 8804.88 7074.14 8804.88 7074.14 8717.37" fill="#000000" class="color000000 svgShape"></polygon><polygon fill="#40513b" fill-rule="nonzero" points="7165.49 8767.46 7129.09 8630.21 6618.98 8475.07 6195.24 8229.29 6030.24 8287.21 6524.38 8590.01" class="color2b2b2b svgShape"></polygon><path fill-rule="nonzero" d="M6036.56 8286.18c-22.63,14.78 -34.26,105.56 -19.03,143.52 15.2,38.22 608.99,181.67 608.99,181.67l-589.96 -325.18z" fill="#000000" class="color000000 svgShape"></path><polygon fill="#9ebc8f" fill-rule="nonzero" points="6128.57 8294.77 6199.07 8269.74 6582.49 8481.26 6547.11 8531.87" class="color8fa4bc svgShape"></polygon><path fill-rule="nonzero" d="M6265.77 7594.63c2.01,15.45 -4.5,28.83 -14.3,29.98l-1391.82 90.1c-15.65,1.66 -30.87,-12.87 -33.69,-32.34l-268.86 -1774.18c-3.61,-20.5 7.66,-34.96 24.33,-32.44l1477.2 230.9c10.47,2.01 20.94,16.31 22.86,32.57l184.28 1455.42z" fill="#000000" class="color000000 svgShape"></path><path fill="#7df440" fill-rule="nonzero" d="M6156.51 7490.68c1.92,13.19 -3.83,24.43 -12.52,25l-1166.67 41.22c-12.61,1.02 -24.78,-11.04 -27.36,-27.14l-217.27 -1453.85c-2.59,-16.89 6.19,-28.86 19.48,-27.3l1226.02 166.06c9.26,1.21 18.04,13.06 19.73,26.79l158.58 1249.23z" class="color409af4 svgShape"></path><path fill="#a9f980" fill-rule="nonzero" d="M5163.85 7382.66c-13.6,0 -26.34,-13.85 -28.93,-31.42l-108.01 -735.96c-2.59,-18.01 5.97,-31.67 19.25,-31.67 0.45,0 0.89,0 1.47,0l370.55 25.93c12.39,0.44 24.24,15.45 26.92,32.41l97.22 690.47c2.58,16.6 -5.52,30.74 -17.24,31.54l-360.43 18.71c-0.32,0 -0.54,0 -0.8,0z" class="color80c6f9 svgShape"></path><polygon fill="#a9f980" fill-rule="nonzero" points="5690.31 6887.63 5571.15 6884.12 5561.57 6872.78 5526.9 6624.25 5532.96 6613.78 5653.59 6622.72 5662.59 6633.99 5696.4 6877.06" class="color80c6f9 svgShape"></polygon><path fill="#a9f980" fill-rule="nonzero" d="M5649.53 7362.01c-11.27 0-21.26-6.26-22.51-14.59l-49.45-353.57c-1.34-8.43 7.31-15.42 19.38-15.42.09 0 .22 0 .32 0l321.35 4.5c10.82.32 20.5 7.31 21.74 15.42l36.05 341.94c1.24 8.14-6.55 15.07-17.24 15.55l-308.26 6.16c-.48 0-.93 0-1.37 0zM5914.24 6473.72c-.57 0-1.02-.13-1.59-.13l-919.87-90.9c-14.08-1.24-28.07-17.21-30.43-35.82l-5.17-33.43c-2.37-17.33 5.84-30.43 18.48-30.43.77 0 1.66 0 2.46.22l923.25 104.21c10.38 1.44 20.63 15.07 22.89 31.16l3.57 28.26c2.04 15.23-3.83 26.85-13.6 26.85z" class="color80c6f9 svgShape"></path><polygon fill-rule="nonzero" points="5230.32 7604.31 5436.54 8030.73 5647.3 8030.73 5445.9 7571.42" fill="#000000" class="color000000 svgShape"></polygon><path fill-rule="nonzero" d="M5914.34 8029.87c0,38.83 -31.32,70.24 -70.27,70.24l-604.3 0c-38.86,0 -70.05,-31.42 -70.05,-70.24 0,-38.76 31.19,-70.3 70.05,-70.3l604.3 0c38.95,0 70.27,31.54 70.27,70.3z" fill="#000000" class="color000000 svgShape"></path><path fill="#9ebc8f" fill-rule="nonzero" d="M13146.87 5860.64c-2.68,-306.7 -165.22,-540.31 -480.03,-541.65 -337.67,2.33 -476.46,233.01 -480.16,541.65l0.35 0 -68.26 0c0,-164.46 40.2,-316.15 130.3,-428.5 90.13,-112.48 230.81,-181.63 417.78,-181.22 356.02,0.48 547.49,280.01 548.2,609.72l-68.17 0z" class="color8fa4bc svgShape"></path><path fill-rule="nonzero" d="M13256.13 6137.39c-6.87 40.64-45.15 68.1-85.69 61.4-40.77-6.9-68.26-45.21-61.3-85.85l41.48-249.83c6.86-40.55 45.05-68 85.69-61.37 40.55 6.87 67.94 45.05 61.27 85.95l-41.44 249.71zM12249.07 6118.43c7.67 40.58-18.9 79.63-59.35 87.07-40.42 7.21-79.41-19.22-87.17-59.64l-46.3-248.94c-7.66-40.58 19.03-79.5 59.58-87.07 40.42-7.44 79.4 19.25 87.07 59.77l46.17 248.81z" fill="#000000" class="color000000 svgShape"></path><path fill="#1a3d10" fill-rule="nonzero" d="M11594.11 7132.83c-163.98 163.76-506.5 625.68-462.03 834.3 44.73 208.68 819.65 134.35 968.78 59.77 149.13-74.55-506.75-894.07-506.75-894.07zM13593.93 7058.25c163.88 163.69 506.5 625.94 461.9 834.43-44.61 208.58-819.52 134.22-968.62 59.67-149.04-74.55 506.72-894.1 506.72-894.1z" class="color11103d svgShape"></path><path fill="#a9d692" fill-rule="nonzero" d="M12626.39 8941.63c59.48,73.21 21.96,-95.98 69.86,374.86 25.32,249.1 -62.42,1107.7 -55.56,1263.6 7.44,176.72 25.13,280.8 115.45,444.81 42.69,76.69 -495.8,455.22 -495.8,455.22 0,0 219.54,-503.59 133.71,-878.61 -33.01,-145.11 -388.5,-1244.6 -378.57,-1329.21 9.68,-84.35 610.91,-330.67 610.91,-330.67z" class="colord6a092 svgShape"></path><path fill-rule="nonzero" d="M12683.63 10826.67c-37.29,-41.03 -176.97,-37.64 -246.89,112.26 -30.75,66.57 -75.61,401.24 -123.11,407.3 -46.96,5.84 -177.17,118.74 -171.2,165.8 5.97,47.67 250.82,57.34 321.32,37.64 160.95,-45.05 115.9,-335.08 182.02,-407.07 49.33,-53.64 60.15,-24.33 96.65,-85.47 72.76,-123.02 -58.78,-230.45 -58.78,-230.45z" fill="#000000" class="color000000 svgShape"></path><path fill="#e2eab2" fill-rule="nonzero" d="M13226.41 10906.97c10.57,-128.41 -107.92,-173.81 -80.43,-476.68 94.15,-1032.06 75.7,-1328.83 68.58,-1476.97 -7.31,-148.21 -620.04,-115 -620.04,-115 0,0 225.15,1306.26 261.07,1457.81 85.85,362.22 54.85,867.76 -92.33,1125.04 -91.35,158.78 463.14,-514.19 463.14,-514.19z" class="coloreac4b2 svgShape"></path><path fill-rule="nonzero" d="M13162.33 10773.15c-64.88,-47.86 -170.43,19.7 -225.06,106.99 -50.67,81 -75.35,257.18 -109.7,380.17 -34.7,123.3 -195.43,232.46 -150.03,284.03 37.29,42.72 109.26,43.17 176.63,40.42 67.46,-3.61 180.77,24.13 181.99,-131.42 2.62,-310.75 205.45,-317.84 206.35,-468.79 0.22,-64.85 21.3,-136.52 -80.17,-211.39z" fill="#000000" class="color000000 svgShape"></path><path fill="#40513b" fill-rule="nonzero" d="M12866.1 10425.34c0,20.37 -16.22,36.62 -36.49,36.62l-73.12 0c-19.92,0 -36.04,-16.25 -36.04,-36.62l0 -802.28c0,-20.08 16.12,-36.52 36.04,-36.52l73.12 0c20.27,0 36.49,16.44 36.49,36.52l0 802.28z" class="color2b2b2b svgShape"></path><path fill-rule="nonzero" d="M13814.45 9641.19c0,20.27 -18.01,36.46 -40.77,36.46l-2144.07 0c-21.96,0 -39.78,-16.19 -39.78,-36.46l0 -291.63c0,-20.37 17.81,-36.4 39.78,-36.4l2144.07 0c22.76,0 40.77,16.03 40.77,36.4l0 291.63z" fill="#000000" class="color000000 svgShape"></path><polygon fill="#1a3d10" fill-rule="nonzero" points="12690.73 11027.14 12909.24 11027.14 12909.24 10229.68 12690.73 10229.68" class="color11103d svgShape"></polygon><path fill="#1a3d10" fill-rule="nonzero" d="M12684.53 10866.73c-75.13,61.72 -715.78,559.69 -715.78,594.5 0,35.37 0,290.83 0,290.83l121.96 0 0 -246.67 692.25 -409.57 0 -202.58 -98.43 -26.5z" class="color11103d svgShape"></path><path fill="#1a3d10" fill-rule="nonzero" d="M12854.83 10881.74c75.44,61.94 716.11,559.21 716.11,594.94 0,35.15 0,290.57 0,290.57l-122.54 0 0 -246.67 -692.26 -409.66 0 -202.39 98.69 -26.79z" class="color11103d svgShape"></path><polygon fill="#1a3d10" fill-rule="nonzero" points="12841.3 10874.4 13792.61 11138.54 13792.61 11402.67 13707.11 11402.67 13707.11 11253 12916.2 11076.91" class="color11103d svgShape"></polygon><polygon fill="#1a3d10" fill-rule="nonzero" points="12718.88 10849.05 11767.34 11113.44 11767.34 11377.77 11852.4 11377.77 11852.4 11227.74 12643.54 11051.56" class="color11103d svgShape"></polygon><path fill="#114900" fill-rule="nonzero" d="M12032.15 6756.53c-303.31,61.59 -287.09,93.48 -289.94,332.94 -2.14,251.05 -227.29,979.22 -89.52,1314.91 52.58,127.49 553.81,66.86 646.28,73.43 25.93,-105.43 -135.95,-877.98 -135.95,-990.62 0,-65.55 -130.87,-730.66 -130.87,-730.66z" class="color001c49 svgShape"></path><path fill="#e2eab2" fill-rule="nonzero" d="M12646.79 6943.25c0,0 -115.23,-679.48 -115.23,-726.26l155.65 -10.47 0 -0.22 1.15 0.22 0.99 -0.22 0 0.22 185.31 -4.28c0,46.74 51.69,455.29 51.69,455.29l-79.31 189.46 -200.25 96.26z" class="coloreac4b2 svgShape"></path><path fill="#a9d692" fill-rule="nonzero" d="M12121.58 6763.17c75.7,-32.34 364.04,-124.33 387.57,-409.31 0,0 221.9,-144.98 213.79,-93.26 -7.89,51.11 -71.65,1330.65 -126.85,1342.55 -55.52,11.97 -554.71,-826.03 -474.51,-839.98z" class="colord6a092 svgShape"></path><path fill="#a9d692" fill-rule="nonzero" d="M12733.19 5367.74c-32.21,-4.18 -165.35,10.19 -241.5,27.49 -272.34,86.14 -277.87,249.04 -254.88,509.98 30.3,347.63 279.56,553.62 406.82,553.62l3.16 -0.7 27.14 3.16c142.05,0 363.02,-159.7 418,-507.71 44.38,-285.43 34.45,-537.85 -358.74,-585.84z" class="colord6a092 svgShape"></path><path fill="#114900" fill-rule="nonzero" d="M12420.39 6620.46c-169.73,78.03 -425.63,134.93 -466.3,167.85 0,0 82.21,702.15 98.65,767.92 16.57,65.65 72,540.63 39.33,664.19 -33.01,123.81 -86.62,532.61 -78.41,582.01 8.11,49.17 299.74,49.17 430.04,52.33 123.02,2.97 252.87,27.3 252.87,-55.14 0,-82.24 -31.99,-2128.49 -31.99,-2128.49l-244.18 -50.67z" class="color001c49 svgShape"></path><path fill="#277f0d" fill-rule="nonzero" d="M12903.36 6620.46c148.24,49.59 419.69,164.24 460.68,197.09 0,0 -122.44,672.91 -138.88,738.68 -16.44,65.65 -53.39,462.82 -20.85,586.26 33.24,123.91 114.01,566.78 105.55,616.78 -8.01,49.1 -337.44,104.88 -501.45,92.33 -129.98,-10.12 -162.64,21.3 -162.64,-61.14 0,-82.12 -4.72,-2096.43 -4.72,-2096.43l262.32 -73.56z" class="color0d3b7f svgShape"></path><path fill="#114900" fill-rule="nonzero" d="M12296.39 6673.3l110.37 -121.9c0,0 194.31,18.49 259.73,17.5 0,105.43 -29.72,194.28 -29.72,194.28l-340.38 -89.87z" class="color001c49 svgShape"></path><path fill="#114900" fill-rule="nonzero" d="M12648.13 6567.74c113.98,3.51 255.23,-21.04 282.72,-21.04 50.67,60.02 96.52,129.05 96.52,129.05 0,0 -361.55,81.64 -384.98,89.3l5.74 -197.31z" class="color001c49 svgShape"></path><path fill="#1e1e1e" fill-rule="nonzero" d="M13674.8 9143.44c-54.4,124.26 -260.98,224.48 -381.95,224.48l-1197.64 0.7c-120.72,0 -381.82,-100.38 -381.82,-224.26l-208.71 -1996.79c0,-312.86 201.85,-469.91 322.82,-469.91l1680.03 0c120.88,0 336.55,52.71 351.43,440.15l-184.16 2025.62z" class="color1e1e1e svgShape"></path><path fill="#ff9b50" fill-rule="nonzero" d="M13135.86 5732.81c-4.54,-53.06 -24.23,-154.53 -44.28,-199.36 -65.68,-148.69 -256.03,-163.88 -290.48,-143.51 0,0 -166.7,899.4 -176.63,969.54 -8.33,56.42 139.24,101.82 310.78,5.43 160.5,-80.43 241.15,-424.54 200.6,-632.1z" class="colorba784a svgShape"></path><path fill="#51a03a" fill-rule="nonzero" d="M12860 5379.24c-65.68-37.71-107.21-53.51-223.24-50.7-66.34 1.59-179.21 27.97-272.12 94.28l-2.94-.64-5.39 6.29c-49.33 37.26-92.72 87.86-118.71 156.89-42.94 75.35-57.69 131.48-52.27 302.65 10.7 337.7 235.63 426.07 307.94 508.96 133.91 53.64 195.52 10.98 399.03-21.36 0 0 91.25-123.11 144.63-342.74 37.52-321.45-.09-552.13-176.94-653.62zM12560.52 6449.26c-70.75 176.27-7.22 327.64 192.27 516.2l53.38-161.43c0 0 29.95-123.18-101.5-246.32-81.32-76.56-144.15-108.46-144.15-108.46z" class="colora0593a svgShape"></path><path fill="#ff9b50" fill-rule="nonzero" d="M12881.62 6332.79c-12.26,112.42 24.01,106.93 -174.13,249.04l16.13 -24.11c0,0 -70.53,-69.12 -6.99,-168.83 64.2,-99.55 165,-56.09 165,-56.09z" class="colorba784a svgShape"></path><path fill="#ff9b50" fill-rule="nonzero" d="M12822.62 6436.87c70.72 176.5-10.82 201.4-159.51 402.99l-5.17-55.07c0 0-6.74-102.14 53.74-196.07 60.37-94.41 110.94-151.85 110.94-151.85zM12799.85 6734.44c62.29 141.37 62.87 214.36-100.57 380.13l-37.29-85.34c0 0-31.19-73.43 23.79-159.48 54.94-85.76 114.07-135.31 114.07-135.31z" class="colorba784a svgShape"></path><path fill="#51a03a" fill-rule="nonzero" d="M12581.56 6722.31c-61.94,141.66 -58.78,285.5 125.92,397.91l45.53 -99.23c0,0 -2.04,-77.39 -57.22,-163.09 -54.88,-85.95 -114.24,-135.6 -114.24,-135.6z" class="colora0593a svgShape"></path><path fill="#ff9b50" fill-rule="nonzero" d="M12753.02 7020.99c104.4,58.91 81.64,164.43 45.72,316.27 -37.83,157.88 115.1,382.94 -35.03,476.46 0,-10.5 91.12,-96.42 10.7,-238.34 -63.63,-112.74 -104.31,-182.02 -99.01,-380.39 5.4,-198.11 77.62,-174 77.62,-174z" class="colorba784a svgShape"></path><path fill="#51a03a" fill-rule="nonzero" d="M12645.77 7055.88c-37.39 53.64-182.02 160.63-26.56 460.56 155.2 300.09 58.78 316.08 37.39 342.87 69.6 32.09 182.24-53.61 117.81-267.71-64.2-214.43-31.99-289.36 16.09-428.72 48.34-139.2-85.82-144.38-85.82-144.38l-58.91 37.39zM12849.4 6458.71c0 0-29.82 7.79-55.61 15.68 22.95-51.72 31.06-116.7-20.72-181.61-73.91-92.56-274.51-45.85-274.51-45.85-5.97 123.18-45.72 147.6 208.93 334.89l13.41-7.98c0 0 29.06-25.61 54.41-65.45 31.42-14.53 66-25.57 66-25.57l8.11-24.11z" class="colora0593a svgShape"></path></svg>