<svg xmlns="http://www.w3.org/2000/svg" data-name="Layer 1" viewBox="0 0 168 168" id="Rentkey"><path fill="#ff9b50" d="M36.16339,125.10059A9.0625,9.0625,0,1,0,41.67218,111.228a20.98155,20.98155,0,0,1-1.09381-6.68005,20.24607,20.24607,0,0,1,6.02252-14.55035A9.98577,9.98577,0,1,0,43.929,86.999a24.24426,24.24426,0,0,0-7.35059,17.549,24.96333,24.96333,0,0,0,1.4541,8.37787A8.99386,8.99386,0,0,0,36.16339,125.10059ZM55.97681,86.94189a5.95294,5.95294,0,0,1-6.01276.44818,16.815,16.815,0,0,1,7.77356-2.34369A5.943,5.943,0,0,1,55.97681,86.94189ZM46.68,80.90771a5.99205,5.99205,0,0,1,11.80762.09467,20.81053,20.81053,0,0,0-11.377,3.4585A5.95494,5.95494,0,0,1,46.68,80.90771ZM43.57056,115a4.994,4.994,0,0,1,4.9248,5.88666,1.97335,1.97335,0,0,0-.41895-.4624,19.00517,19.00517,0,0,1-4.68353-5.41058C43.45239,115.01117,43.511,115,43.57056,115Zm-4.90814,4.09027a4.94719,4.94719,0,0,1,1.12787-2.3252,23.03524,23.03524,0,0,0,5.8233,6.81061,1.96025,1.96025,0,0,0,.98431.38428c-.06543.0498-.11914.11133-.18842.15875a4.99806,4.99806,0,0,1-7.74707-5.02844Z" class="color2d4356 svgShape"></path><path fill="#ff9b50" d="M34.01788 95.51459a28.23735 28.23735 0 0 1 1.9043-4.46667 26.05716 26.05716 0 0 1 7.622-34.00055 24.84179 24.84179 0 0 1 27.45306-.72809 3.9997 3.9997 0 0 0 4.40735-.1181l45.499-31.83789a3.44053 3.44053 0 0 1 1.293-.36377c.09857.00732.19818.01123.29681.01123h.003l11.459-.0083-3.34381 13.57324-1.74219 1.2182-7.85944-1.69177a3.99937 3.99937 0 0 0-4.77728 3.19379l-1.125 6.18256-6.4209-1.83057a4.00066 4.00066 0 0 0-5.09668 3.793l-.07318 5.48541L98.0022 52.47845a4.0007 4.0007 0 0 0-4.96582 3.23932l-1.53711 9.646-7.083 4.95209A4.00019 4.00019 0 0 0 82.7561 74.21a26.08784 26.08784 0 0 1-10.65332 25.2749 24.79474 24.79474 0 0 1-27.01758.9848 16.75667 16.75667 0 0 0-.50684 4.07825c0 .07758.00879.15375.01068.2309a28.81885 28.81885 0 0 0 29.80573-2.01611A29.94678 29.94678 0 0 0 86.70825 73.59418l8.47363-5.9248 1.80469-11.32172 8.40143 2.20551a1.97429 1.97429 0 0 0 .49695.06555 1.589 1.589 0 0 0 1.59186-1.68951l.11328-8.43463 8.6153 2.4566a2.02176 2.02176 0 0 0 .55658.0791 1.91 1.91 0 0 0 1.87793-1.62207l1.52826-8.396 8.52545 1.83545a1.983 1.983 0 0 0 .40625.039 2.85182 2.85182 0 0 0 1.50983-.42816l2.62891-1.83942a3.38879 3.38879 0 0 0 1.15027-1.6557L138.50708 22.248A1.71681 1.71681 0 0 0 136.93781 20l-14.4444.01074c-.09186-.00684-.18842-.01025-.28711-.01025a7.08028 7.08028 0 0 0-3.5849 1.07813L73.11157 52.92377a28.8409 28.8409 0 0 0-31.85937.8457 30.04732 30.04732 0 0 0-7.5224 41.34674C33.82251 95.25287 33.9231 95.37988 34.01788 95.51459zM73.87036 116.71338a5.77468 5.77468 0 0 0-.35547-2.0235 4.92972 4.92972 0 0 0-1.04291-1.68207 4.79938 4.79938 0 0 0-1.57721-1.11084 5.39942 5.39942 0 0 0-1.65228-.46149 18.16425 18.16425 0 0 0-2.16309-.11078H61.01385a2.49174 2.49174 0 0 0-1.85144.60345 2.69455 2.69455 0 0 0-.584 1.9151v14.65131a2.87347 2.87347 0 0 0 .52643 1.85449A1.833 1.833 0 0 0 60.59985 131a1.87133 1.87133 0 0 0 1.45215-.61963 2.757 2.757 0 0 0 .55566-1.8858v-5.96289h1.15619a4.16091 4.16091 0 0 1 1.588.26129 3.42521 3.42521 0 0 1 1.23145.9726 14.06838 14.06838 0 0 1 1.4209 2.13281l1.49512 2.57184c.35944.62006.63379 1.07324.83978 1.38379a3.04462 3.04462 0 0 0 .77356.81445A1.92035 1.92035 0 0 0 72.25128 131a2.09833 2.09833 0 0 0 .998-.231 1.79817 1.79817 0 0 0 .69141-.6377 1.55407 1.55407 0 0 0 .25592-.83148 4.42818 4.42818 0 0 0-.40729-1.39111 17.10983 17.10983 0 0 0-1.11523-2.18988 16.36452 16.36452 0 0 0-1.62891-2.2876 7.40163 7.40163 0 0 0-1.60638-1.44733 6.49618 6.49618 0 0 0 3.22937-1.7608A5.02931 5.02931 0 0 0 73.87036 116.71338zM69.345 118.4502a2.49909 2.49909 0 0 1-1.32422.77 8.94174 8.94174 0 0 1-2.22266.23584H62.60767v-4.92529h3.29a7.49072 7.49072 0 0 1 2.5166.27295 2.238 2.238 0 0 1 1.0127.84668 2.37019 2.37019 0 0 1 .36426 1.31A2.27027 2.27027 0 0 1 69.345 118.4502zM100.64868 130.39111a2.60038 2.60038 0 0 0 .52832-1.75342V118.00049l6.71979 10.6601q.30313.45566.60449.89209a4.74478 4.74478 0 0 0 .67572.78522 2.43033 2.43033 0 0 0 .80176.50391 2.72845 2.72845 0 0 0 .95514.1582c1.43256 0 2.15906-.895 2.15906-2.66064V113.3623a2.68615 2.68615 0 0 0-.50189-1.75781A1.72 1.72 0 0 0 111.20929 111a1.66934 1.66934 0 0 0-1.34961.606 2.69885 2.69885 0 0 0-.49518 1.75635v10.81146l-6.89252-10.79q-.30185-.49438-.585-.94971a4.85812 4.85812 0 0 0-.57129-.76471 2.253 2.253 0 0 0-.67187-.48682A2.1666 2.1666 0 0 0 99.721 111a2.33393 2.33393 0 0 0-2.12311 1.42291 4.37812 4.37812 0 0 0-.21094 1.52386V128.6377a2.649 2.649 0 0 0 .5127 1.74457 1.84691 1.84691 0 0 0 2.749.00885zM123.14679 130.36621A1.86907 1.86907 0 0 0 124.60565 131a1.84477 1.84477 0 0 0 1.44153-.62793 2.76457 2.76457 0 0 0 .55371-1.8775V114.81586h3.91888a2.212 2.212 0 0 0 1.53027-.4726 1.6435 1.6435 0 0 0 .52832-1.26617 1.67061 1.67061 0 0 0-.52051-1.27087 2.1858 2.1858 0 0 0-1.53809-.48151H118.66626a2.1948 2.1948 0 0 0-1.49707.46527 1.63943 1.63943 0 0 0-.53613 1.28711 1.659 1.659 0 0 0 .51465 1.26367 2.1551 2.1551 0 0 0 1.51855.4751h3.91895v13.67871A2.74662 2.74662 0 0 0 123.14679 130.36621zM157 14a3 3 0 1 0-3 3A3.00344 3.00344 0 0 0 157 14zm-3 1.5a1.5 1.5 0 1 1 1.5-1.5A1.50148 1.50148 0 0 1 154 15.5zM67 8a3 3 0 1 0-3-3A3.00344 3.00344 0 0 0 67 8zm0-4.5A1.5 1.5 0 1 1 65.5 5 1.50148 1.50148 0 0 1 67 3.5zM129 58a2 2 0 1 0-2 2A2.00229 2.00229 0 0 0 129 58zm-3 0a1 1 0 1 1 1 1A1.001 1.001 0 0 1 126 58zM123 86a2 2 0 1 0 2-2A2.00229 2.00229 0 0 0 123 86zm3 0a1 1 0 1 1-1-1A1.001 1.001 0 0 1 126 86zM43 48a2 2 0 1 0-2-2A2.00229 2.00229 0 0 0 43 48zm0-3a1 1 0 1 1-1 1A1.001 1.001 0 0 1 43 45z" class="color2d4356 svgShape"></path><circle cx="2" cy="146" r="2" fill="#ff9b50" class="color2d4356 svgShape"></circle><path fill="#ff9b50" d="M11 144H8a2 2 0 0 0 0 4h3a2 2 0 0 0 0-4zM160 144h-3a2 2 0 0 0 0 4h3a2 2 0 0 0 0-4z" class="color2d4356 svgShape"></path><circle cx="166" cy="146" r="2" fill="#ff9b50" class="color2d4356 svgShape"></circle><path fill="#ff9b50" d="M150.72131,144H140.49048a7.92192,7.92192,0,0,0,1.08789-4V100a8.02333,8.02333,0,0,0-8-8H88.135A34.24549,34.24549,0,0,1,86.054,96h47.52441a4.00419,4.00419,0,0,1,4,4v40a4.00423,4.00423,0,0,1-4,4H52.8587a14.90786,14.90786,0,0,1-9.834-4.75439l-11.34277-14.3125a7.198,7.198,0,0,1-.15527-7.88922l2.52734-3.46143a29.06838,29.06838,0,0,1-1.18646-5.15869l-4.57129,6.26172a11.14326,11.14326,0,0,0,.251,12.73151L39.88989,141.73a13.6722,13.6722,0,0,0,2.3526,2.27H17.27869a2.017,2.017,0,1,0,0,4H150.72131a2.017,2.017,0,1,0,0-4Z" class="color2d4356 svgShape"></path><path fill="#9dc08b" d="M81.07739,130.67529H91.21021a2.00946,2.00946,0,0,0,1.42578-.4624,1.60519,1.60519,0,0,0,.4942-1.21143,1.63435,1.63435,0,0,0-.49518-1.23779,2.00794,2.00794,0,0,0-1.4248-.4624h-8.539v-5.107h7.584a1.90427,1.90427,0,0,0,1.38367-.45258,1.5719,1.5719,0,0,0,.461-1.16992,1.5254,1.5254,0,0,0-.46967-1.16022,1.94331,1.94331,0,0,0-1.375-.43646h-7.584v-4.36719h8.25a2.0105,2.0105,0,0,0,1.4248-.44922,1.7136,1.7136,0,0,0,.001-2.38483,2.01475,2.01475,0,0,0-1.42578-.44916H81.07739a3.21079,3.21079,0,0,0-1.3623.25391,1.66228,1.66228,0,0,0-.82031.84125,3.49641,3.49641,0,0,0-.25287,1.4234v14.31342a2.70784,2.70784,0,0,0,.57709,1.9151A2.48528,2.48528,0,0,0,81.07739,130.67529Z" class="color0bceb2 svgShape"></path><polygon fill="#9dc08b" points="8.583 36.011 10.07 34.056 9.131 33.524 8.177 35.714 8.145 35.714 7.175 33.539 6.22 34.087 7.691 35.996 7.691 36.027 5.391 35.73 5.391 36.794 7.707 36.497 7.707 36.528 6.22 38.436 7.112 39 8.13 36.794 8.16 36.794 9.099 38.984 10.085 38.421 8.583 36.543 8.583 36.512 10.945 36.794 10.945 35.73 8.583 36.042 8.583 36.011" class="color0bceb2 svgShape"></polygon><polygon fill="#9dc08b" points="73.777 35.067 72.92 36.166 73.434 36.49 74.02 35.22 74.038 35.22 74.578 36.481 75.146 36.157 74.281 35.075 74.281 35.057 75.641 35.22 75.641 34.607 74.281 34.787 74.281 34.769 75.137 33.643 74.597 33.337 74.047 34.598 74.029 34.598 73.471 33.345 72.92 33.661 73.768 34.76 73.768 34.778 72.443 34.607 72.443 35.22 73.777 35.049 73.777 35.067" class="color0bceb2 svgShape"></polygon><polygon fill="#9dc08b" points="159 42.713 159 41.67 156.683 41.977 156.683 41.946 158.142 40.028 157.221 39.506 156.285 41.654 156.253 41.654 155.302 39.521 154.365 40.059 155.808 41.931 155.808 41.962 153.552 41.67 153.552 42.713 155.823 42.422 155.823 42.453 154.365 44.325 155.24 44.878 156.238 42.713 156.268 42.713 157.189 44.862 158.156 44.31 156.683 42.468 156.683 42.437 159 42.713" class="color0bceb2 svgShape"></polygon><polygon fill="#9dc08b" points="114.702 20.023 113.444 21.638 114.198 22.115 115.06 20.248 115.085 20.248 115.88 22.101 116.714 21.625 115.443 20.036 115.443 20.009 117.442 20.248 117.442 19.348 115.443 19.612 115.443 19.586 116.701 17.931 115.907 17.481 115.099 19.334 115.073 19.334 114.252 17.494 113.444 17.958 114.689 19.573 114.689 19.599 112.742 19.348 112.742 20.248 114.702 19.996 114.702 20.023" class="color0bceb2 svgShape"></polygon><path fill="#9dc08b" d="M118.15387 153h-8.30774a2.00641 2.00641 0 0 0 0 4h8.30774a2.00641 2.00641 0 0 0 0-4zM58.15387 153H49.84613a2.00641 2.00641 0 0 0 0 4h8.30774a2.00641 2.00641 0 0 0 0-4zM104 153H64a2 2 0 0 0 0 4H79.94v2H72a2 2 0 0 0 0 4H97a2 2 0 0 0 0-4H88.06v-2H104a2 2 0 0 0 0-4z" class="color0bceb2 svgShape"></path></svg>